<svg xmlns="http://www.w3.org/2000/svg" xmlns:xlink="http://www.w3.org/1999/xlink" width="500" zoomAndPan="magnify" viewBox="0 0 375 374.999991" height="500" preserveAspectRatio="xMidYMid meet" version="1.0"><defs><clipPath id="ec683503b1"><path d="M 31.421875 26.707031 L 343.421875 26.707031 L 343.421875 348.199219 L 31.421875 348.199219 Z M 31.421875 26.707031 " clip-rule="nonzero"/></clipPath></defs><g clip-path="url(#ec683503b1)"><path fill="#1d1a1b" d="M 65.8125 142.503906 C 62.148438 140.453125 59.855469 139.152344 58.949219 138.605469 C 47.871094 132.113281 36.445312 120.949219 32.101562 108.429688 C 31.363281 106.28125 30.792969 101.621094 32.976562 100.117188 C 39.890625 95.335938 55.113281 110.140625 63.339844 113.753906 C 63.507812 113.828125 63.703125 113.765625 63.789062 113.609375 C 63.882812 113.453125 63.847656 113.257812 63.703125 113.148438 C 53.308594 105.210938 45.15625 95.613281 39.273438 84.363281 C 37.015625 80.058594 33.0625 68.808594 36.542969 64.671875 C 39.464844 61.199219 43.675781 64.246094 46.476562 66.757812 C 47.859375 67.996094 52.265625 72.292969 59.675781 79.632812 C 60.972656 80.929688 64.078125 83.539062 68.96875 87.472656 C 69.078125 87.554688 69.234375 87.542969 69.320312 87.449219 L 69.332031 87.449219 C 69.417969 87.351562 69.429688 87.203125 69.34375 87.09375 C 67.863281 85.410156 65.933594 83.1875 63.558594 80.421875 C 57.105469 72.886719 52.398438 64.0625 48.757812 55.121094 C 45.738281 47.695312 44.816406 40.171875 46.003906 32.539062 C 46.515625 29.199219 49.910156 25.0625 53.769531 27.382812 C 55.429688 28.375 56.535156 29.273438 57.054688 30.085938 C 62.648438 38.640625 67.730469 46.203125 72.292969 52.765625 C 84.457031 70.300781 98.664062 86.210938 114.929688 100.515625 C 123.382812 107.953125 133.222656 115.816406 144.429688 124.105469 C 149.355469 127.746094 154.644531 133.035156 160.296875 139.976562 C 166.410156 147.476562 171.941406 159.527344 177.085938 167.804688 C 182.617188 176.683594 190.101562 182.875 199.527344 186.371094 C 201.601562 187.132812 203.53125 187.519531 205.324219 187.511719 C 205.714844 187.511719 205.824219 186.976562 205.460938 186.816406 C 198.277344 183.796875 192.078125 179.5625 186.875 174.125 C 185.964844 173.167969 185.796875 171.722656 186.476562 170.582031 C 189.785156 164.988281 192.007812 160.605469 193.136719 157.464844 C 199.601562 139.515625 205.289062 117.820312 227.160156 113.621094 C 237.75 111.59375 249.347656 114.882812 253.617188 125.5625 C 254.261719 127.175781 255.121094 129.6875 256.199219 133.074219 C 256.492188 133.984375 257.109375 134.761719 257.949219 135.246094 L 269.738281 142.054688 C 269.96875 142.1875 270.261719 142.101562 270.382812 141.871094 C 271.109375 140.535156 271.59375 139.382812 271.824219 138.402344 C 271.921875 137.976562 271.886719 137.527344 271.714844 137.125 C 270.878906 135.136719 270.042969 133.171875 269.21875 131.242188 C 265.054688 121.472656 263.550781 111.800781 264.679688 102.238281 C 264.863281 100.699219 265.285156 99.460938 265.953125 98.515625 C 266.574219 97.640625 267.785156 97.445312 268.660156 98.078125 C 270.636719 99.519531 272.273438 101.4375 273.585938 103.804688 C 278.777344 113.195312 279.347656 122.941406 275.292969 133.050781 C 275.246094 133.183594 275.292969 133.328125 275.414062 133.402344 C 275.550781 133.460938 275.695312 133.425781 275.78125 133.316406 C 280.28125 127.066406 284.828125 120.296875 289.4375 113.027344 C 290.761719 110.941406 291.148438 109.191406 290.613281 107.796875 C 286.234375 96.476562 282.597656 84.984375 284.585938 73.324219 C 284.851562 71.746094 285.542969 70.253906 286.660156 68.832031 C 287.535156 67.742188 289.171875 67.703125 290.09375 68.746094 C 297.929688 77.679688 296.875 93.625 294.472656 104.546875 C 294.398438 104.898438 294.859375 105.101562 295.066406 104.800781 C 297.796875 100.660156 300.269531 96.207031 302.492188 91.414062 C 303.582031 89.074219 304.808594 84.875 306.152344 78.820312 C 308.15625 69.875 315.3125 42.804688 324.871094 41.492188 C 325.84375 41.359375 326.75 41.980469 326.980469 42.9375 C 329.433594 52.996094 326.449219 64.730469 321.269531 73.664062 C 315.253906 84.023438 307.816406 94.824219 298.949219 106.0625 C 298.753906 106.304688 298.828125 106.65625 299.09375 106.8125 L 299.398438 106.996094 C 299.484375 107.042969 299.578125 107.03125 299.640625 106.972656 C 302.941406 104.011719 306.652344 101.230469 310.789062 98.625 C 319.691406 93.027344 332.039062 88.492188 342.316406 90.019531 C 343.175781 90.140625 343.660156 91.074219 343.285156 91.863281 C 341.332031 95.917969 338.421875 99.132812 334.539062 101.511719 C 323.753906 108.113281 312.148438 109.242188 299.617188 109.484375 C 298.027344 109.519531 296.65625 110.34375 295.503906 111.972656 C 291.523438 117.613281 286.164062 125.148438 279.429688 134.554688 C 279.347656 134.675781 279.371094 134.832031 279.46875 134.929688 C 279.578125 135.027344 279.734375 135.027344 279.84375 134.929688 C 284.78125 130.648438 288.699219 126.992188 296.109375 124.894531 C 304.878906 122.429688 317.167969 122.371094 326.046875 126.871094 C 326.535156 127.117188 326.667969 127.734375 326.328125 128.160156 C 325.273438 129.46875 323.902344 130.609375 322.203125 131.59375 C 310.507812 138.316406 297.566406 137.660156 283.871094 137.429688 C 282.9375 137.417969 280.839844 137.792969 277.574219 138.558594 C 277.042969 138.679688 276.554688 138.996094 276.214844 139.433594 C 275.171875 140.777344 274.324219 142.101562 273.679688 143.398438 C 269.761719 151.191406 266.269531 159.015625 265.761719 167 C 265.652344 168.738281 265.601562 172.339844 265.636719 177.824219 C 265.652344 178.894531 264.679688 179.707031 263.625 179.511719 L 263.40625 179.476562 C 262.265625 179.269531 261.417969 178.273438 261.394531 177.097656 C 261.136719 166.261719 263.101562 156.46875 267.277344 147.707031 C 267.386719 147.464844 267.226562 147.1875 266.960938 147.160156 C 262.871094 146.785156 258.324219 146.847656 253.324219 147.34375 C 238.429688 148.835938 239.15625 159.527344 241.050781 171.226562 C 244.703125 193.808594 246.714844 213.320312 239.691406 233.558594 C 230.761719 259.261719 210.980469 277.71875 185.273438 286.78125 C 175.304688 290.289062 162.03125 292.753906 145.449219 294.171875 C 143.496094 294.34375 141.785156 295.675781 140.292969 298.1875 C 129.570312 316.304688 120.605469 335.941406 100.46875 345.695312 C 97.011719 347.371094 92.089844 349.140625 88.59375 347.625 C 88.183594 347.445312 87.867188 347.105469 87.707031 346.691406 C 85.988281 342.128906 89.019531 338.511719 91.75 334.59375 C 91.832031 334.472656 91.820312 334.3125 91.710938 334.21875 C 91.601562 334.109375 91.445312 334.109375 91.324219 334.191406 C 82.296875 341.144531 68.480469 348.707031 57.105469 345.296875 C 56.316406 345.066406 55.585938 344.289062 54.921875 342.976562 C 53.160156 339.542969 56.425781 333.320312 58.609375 330.746094 C 60.792969 328.160156 63.582031 325.90625 66.964844 323.988281 C 67.113281 323.902344 67.171875 323.734375 67.097656 323.585938 C 67.039062 323.453125 66.894531 323.394531 66.757812 323.441406 C 58.65625 326.195312 51.109375 327.820312 44.0625 322.992188 C 41.296875 321.085938 39.757812 318.84375 39.441406 316.257812 C 38.605469 309.363281 44.183594 305.433594 50.042969 303.128906 C 54.714844 301.285156 62.683594 298.054688 73.976562 293.433594 C 96.625 284.160156 116.082031 273.859375 132.386719 257.488281 C 134.421875 255.4375 136.132812 253.292969 137.527344 251.035156 C 137.710938 250.753906 137.46875 250.390625 137.140625 250.453125 C 130.515625 251.675781 116.640625 252.625 112.222656 246.554688 C 111.300781 245.28125 111.132812 243.632812 111.800781 242.285156 C 113.644531 238.523438 119.222656 236.617188 122.546875 234.917969 C 122.816406 234.785156 122.730469 234.386719 122.4375 234.375 C 119.722656 234.238281 116.640625 235.269531 113.644531 235.40625 C 108.609375 235.636719 103.550781 235.136719 98.46875 233.898438 C 94.34375 232.894531 86.011719 228.902344 89.117188 223.597656 C 91.796875 219 101.839844 216.863281 107.675781 215.128906 C 107.796875 215.089844 107.882812 214.96875 107.859375 214.835938 C 107.832031 214.703125 107.722656 214.605469 107.589844 214.617188 C 94.308594 215.25 80.019531 216.183594 70.011719 207.277344 C 63.738281 201.707031 68.238281 197.082031 74.644531 196.292969 C 80.480469 195.566406 85.9375 194.875 90.996094 194.207031 C 91.105469 194.195312 91.179688 194.097656 91.179688 193.988281 C 91.179688 193.878906 91.09375 193.796875 90.984375 193.78125 C 89.46875 193.625 86.132812 193.347656 81 192.921875 C 71.164062 192.121094 51.464844 184.667969 49.59375 173.277344 C 48.515625 166.699219 57.105469 167.183594 61.277344 167.851562 C 66.117188 168.640625 70.507812 169.296875 74.449219 169.816406 C 74.644531 169.839844 74.839844 169.707031 74.875 169.515625 L 74.875 169.5 C 74.910156 169.308594 74.789062 169.113281 74.597656 169.066406 C 64.976562 166.625 56.316406 162.464844 48.589844 156.578125 C 43.871094 152.972656 36.261719 145.050781 37.171875 138.957031 C 37.367188 137.648438 38.277344 136.566406 39.503906 136.214844 C 41.566406 135.621094 43.675781 135.632812 45.847656 136.253906 C 50.832031 137.660156 56.109375 139.542969 61.703125 141.90625 C 62.949219 142.441406 64.285156 142.757812 65.703125 142.867188 C 65.910156 142.878906 65.996094 142.597656 65.8125 142.503906 Z M 65.8125 142.503906 " fill-opacity="1" fill-rule="nonzero"/></g></svg>