<svg xmlns="http://www.w3.org/2000/svg" xmlns:xlink="http://www.w3.org/1999/xlink" width="500" zoomAndPan="magnify" viewBox="0 0 375 374.999991" height="500" preserveAspectRatio="xMidYMid meet" version="1.0"><defs><clipPath id="46c655a4fb"><path d="M 171 34.289062 L 254 34.289062 L 254 136 L 171 136 Z M 171 34.289062 " clip-rule="nonzero"/></clipPath><clipPath id="c76d156b9d"><path d="M 24.074219 257 L 50 257 L 50 273 L 24.074219 273 Z M 24.074219 257 " clip-rule="nonzero"/></clipPath></defs><g clip-path="url(#46c655a4fb)"><path fill="#030302" d="M 201.863281 40.617188 C 206.617188 38.121094 211.488281 35.441406 216.914062 34.859375 C 221.980469 34.261719 227.378906 36.203125 230.535156 40.300781 C 231.910156 39.941406 233.328125 39.425781 234.753906 39.816406 C 239.042969 40.8125 242.574219 43.769531 245.332031 47.082031 C 249.878906 52.375 252.578125 59.171875 252.984375 66.132812 C 253.734375 73.539062 251.820312 80.828125 250.980469 88.136719 C 250.261719 92.875 250.429688 97.824219 248.539062 102.320312 C 248.960938 104.222656 249.984375 105.917969 250.625 107.75 C 251.09375 109.105469 251.691406 110.414062 252.375 111.679688 C 251.179688 114.519531 248.539062 116.296875 246.390625 118.367188 C 241.300781 122.644531 235.949219 126.601562 230.574219 130.515625 C 228.148438 132.175781 225.976562 134.285156 223.300781 135.539062 C 222.011719 134.910156 221.011719 133.828125 219.972656 132.863281 C 218.265625 131.007812 216.25 129.1875 215.761719 126.597656 C 211.699219 128.351562 207.578125 130.164062 203.152344 130.746094 C 201.636719 130.941406 199.8125 130.742188 198.898438 129.355469 C 197.492188 127.515625 197.839844 125.09375 197.460938 122.957031 C 197.011719 121.71875 195.765625 121.066406 194.644531 120.542969 C 193.441406 120 193.414062 118.519531 193.289062 117.390625 C 192.496094 116.875 191.605469 116.378906 191.207031 115.46875 C 190.746094 114.339844 190.695312 113.105469 190.4375 111.929688 C 188.683594 111.761719 186.632812 112.28125 185.152344 111.066406 C 183.859375 109.628906 184.523438 107.554688 184.804688 105.863281 C 185.539062 102.621094 186.195312 99.328125 185.953125 95.980469 C 186.222656 94.828125 185.152344 94.171875 184.539062 93.375 C 182.8125 91.488281 181.820312 89.085938 181.1875 86.636719 C 180.027344 83.050781 179.488281 79.316406 178.859375 75.613281 C 176.515625 74.164062 174.097656 72.515625 172.90625 69.929688 C 172.042969 68.1875 171.410156 66.082031 172.136719 64.183594 C 172.625 63.164062 173.746094 62.726562 174.664062 62.183594 C 174.09375 61.292969 173.753906 60.289062 173.757812 59.226562 C 175.464844 59.261719 177.234375 59.242188 178.785156 58.425781 C 178.515625 56.851562 178.050781 55.171875 178.679688 53.621094 C 179.238281 52.015625 180.871094 51.175781 182.347656 50.582031 C 189.140625 47.855469 195.503906 44.203125 201.863281 40.617188 Z M 201.863281 40.617188 " fill-opacity="1" fill-rule="nonzero"/></g><path fill="#030302" d="M 323.144531 200.460938 C 322.394531 195.117188 321.816406 189.753906 321.546875 184.363281 C 321.179688 177.765625 320.71875 171.109375 318.949219 164.707031 C 317.960938 160.890625 316.804688 157.054688 314.710938 153.683594 C 312.929688 150.769531 310.046875 148.796875 307.207031 147.023438 C 301.003906 143.3125 294.371094 140.414062 287.90625 137.207031 C 282.539062 134.609375 277.195312 131.9375 271.730469 129.554688 C 270.789062 129.25 270.8125 128.042969 270.105469 127.46875 C 267.3125 124.789062 264.394531 122.199219 262.074219 119.082031 C 261.214844 117.980469 260.402344 116.789062 259.253906 115.964844 C 257.988281 115.140625 256.429688 114.976562 254.957031 114.875 C 255.804688 116.777344 257.074219 118.433594 258.125 120.222656 C 255.648438 124.820312 252.738281 129.164062 250.125 133.683594 C 246.359375 139.894531 242.625 146.121094 239.109375 152.480469 C 235.839844 158.234375 232.632812 164.039062 229.855469 170.050781 C 222.8125 185.152344 216.84375 200.746094 211.949219 216.675781 C 209.605469 224.546875 207.117188 232.382812 205.078125 240.34375 C 203.757812 244.882812 202.902344 249.558594 201.316406 254.015625 C 200.09375 248.921875 199.660156 243.675781 199.015625 238.488281 C 198.183594 230.085938 197.871094 221.632812 198.128906 213.191406 C 198.582031 203.820312 199.476562 194.464844 201.109375 185.21875 C 202.71875 176.117188 204.511719 167.027344 207.179688 158.171875 C 208.109375 155.1875 208.925781 152.15625 210.207031 149.296875 C 210.476562 149.695312 210.734375 150.101562 211.046875 150.472656 C 214.308594 149.960938 216.488281 147.335938 218.867188 145.328125 C 220.636719 145.75 222.476562 145.949219 224.289062 145.640625 C 226.09375 148.15625 228.234375 150.585938 231.09375 151.917969 C 231.914062 152.320312 232.820312 152.476562 233.730469 152.421875 C 234.679688 149.773438 234.457031 146.882812 234.6875 144.109375 C 234.6875 141.085938 235.921875 138.183594 235.742188 135.152344 C 235.679688 133.957031 234.457031 133.21875 233.34375 133.40625 C 230.230469 133.773438 227.398438 135.410156 225.074219 137.453125 C 224.203125 137.050781 223.3125 136.496094 222.308594 136.730469 C 221.289062 136.734375 220.296875 137.417969 219.320312 137.257812 C 216.980469 135.375 214.609375 133.371094 211.6875 132.480469 C 210.789062 132.152344 209.753906 132.816406 209.632812 133.746094 C 209.253906 135.617188 209.492188 137.535156 209.363281 139.429688 C 203.445312 142.886719 197.363281 146.0625 191.488281 149.605469 C 189.316406 150.855469 187.167969 152.171875 185.214844 153.742188 C 183.640625 154.972656 183.015625 156.945312 182.371094 158.75 C 180.929688 163.074219 180.199219 167.585938 179.613281 172.089844 C 178.648438 180.386719 177.851562 188.699219 177.195312 197.027344 C 180.164062 200.292969 182.777344 203.882812 185.210938 207.566406 C 188.28125 212.292969 189.378906 218.253906 188.039062 223.742188 C 186.925781 228.292969 184.058594 232.089844 181.785156 236.097656 C 179.359375 239.988281 177.921875 244.402344 176.984375 248.863281 C 175.867188 253.773438 175.054688 258.769531 174.71875 263.796875 C 169.355469 261.472656 163.742188 259.808594 158.160156 258.109375 C 157.542969 258.015625 157.703125 257.238281 157.625 256.804688 C 156.980469 239.3125 156.238281 221.8125 156.335938 204.308594 C 158.246094 203.152344 159.933594 201.691406 161.695312 200.332031 C 165.199219 197.640625 169.035156 194.683594 173.667969 194.648438 C 165.289062 186.488281 157.308594 177.757812 151.222656 167.71875 C 149.703125 164.113281 149.625 159.984375 150.472656 156.199219 C 151.164062 152.925781 151.910156 149.664062 152.585938 146.390625 C 153.011719 144.582031 153.570312 142.691406 154.917969 141.335938 C 155.714844 140.503906 156.816406 139.742188 158.027344 139.96875 C 161.988281 140.382812 165.992188 140.886719 169.976562 140.488281 C 171.730469 140.289062 173.765625 139.503906 174.273438 137.625 C 174.980469 135.894531 173.910156 134.21875 173.601562 132.542969 C 173.824219 131.214844 175.027344 130.429688 175.695312 129.347656 C 176.058594 128.539062 175.480469 127.738281 175.289062 126.972656 C 176.027344 126.296875 176.957031 125.703125 177.285156 124.699219 C 177.0625 123.394531 176.3125 122.265625 175.855469 121.039062 C 177.363281 120.050781 179.132812 119.324219 180.234375 117.828125 C 180.816406 117.085938 180.929688 115.910156 180.242188 115.195312 C 178.296875 112.929688 175.949219 110.96875 174.472656 108.332031 C 174.183594 107.78125 173.804688 107.171875 174.054688 106.53125 C 174.644531 104.378906 174.859375 102.121094 174.570312 99.902344 C 174.460938 99.011719 174.078125 98.074219 174.53125 97.210938 C 175.921875 93.726562 176.660156 89.734375 175.375 86.105469 C 174.570312 83.8125 173.308594 81.53125 171.277344 80.109375 C 170.191406 79.3125 168.800781 79.300781 167.515625 79.140625 C 166.917969 76.578125 164.144531 75.738281 161.984375 74.910156 C 153.539062 72.015625 144.679688 69.675781 135.675781 70.214844 C 129.59375 70.65625 123.292969 72.203125 118.539062 76.222656 C 112.925781 80.941406 109.671875 87.894531 108.230469 94.976562 C 106.191406 95.132812 104.316406 96.101562 102.726562 97.335938 C 99.546875 99.949219 97.472656 103.839844 96.925781 107.910156 C 96.730469 110.910156 97.679688 113.902344 99.265625 116.433594 C 99.90625 117.414062 99.722656 118.644531 100.003906 119.738281 C 100.394531 122.144531 101.660156 124.292969 103.226562 126.121094 C 102.363281 127.347656 101.617188 128.75 101.644531 130.289062 C 101.59375 134.234375 103.558594 137.964844 106.285156 140.71875 C 107.925781 142.460938 110.257812 143.871094 110.753906 146.394531 C 111.257812 149.136719 109.1875 151.488281 109.15625 154.179688 C 109.199219 155.71875 110.484375 156.75 111.839844 157.207031 C 111.148438 156.402344 109.972656 155.765625 110.039062 154.554688 C 110.210938 152.621094 111.636719 151.136719 112.257812 149.351562 C 113.230469 146.96875 112.960938 144.046875 111.265625 142.050781 C 109.222656 139.648438 106.519531 137.746094 105.058594 134.875 C 104.242188 133.035156 103.648438 130.769531 104.710938 128.898438 C 106.117188 130.488281 107.570312 132.125 109.527344 133.054688 C 112.589844 134.484375 116.230469 135.019531 119.460938 133.828125 C 121.851562 133.015625 123.464844 130.75 124.125 128.386719 C 125.328125 129.582031 126.394531 130.902344 127.539062 132.152344 C 127.863281 132.535156 128.289062 132.914062 128.289062 133.472656 C 128.777344 138.085938 128.617188 142.820312 127.269531 147.285156 C 125.359375 153.984375 121.101562 159.601562 117.515625 165.464844 C 114.335938 170.632812 111.988281 176.328125 110.820312 182.292969 C 108.785156 192.421875 109.582031 202.886719 111.53125 212.964844 C 113 219.902344 114.761719 226.800781 117.121094 233.496094 C 121.601562 230.402344 125.8125 226.9375 129.96875 223.433594 C 130.636719 230.1875 131.148438 236.953125 131.996094 243.691406 C 133.0625 252.671875 134.355469 261.714844 137.453125 270.246094 C 138.457031 273.441406 140.113281 276.6875 143.121094 278.410156 C 147.53125 280.929688 152.679688 281.496094 157.511719 282.828125 C 157.492188 277.882812 159.058594 272.703125 162.765625 269.277344 C 165.570312 266.617188 169.558594 265.496094 173.363281 265.726562 C 178.753906 265.851562 183.660156 268.753906 187.453125 272.414062 C 190.335938 269.542969 193.871094 267.210938 197.878906 266.296875 C 202.023438 265.398438 206.582031 265.6875 210.320312 267.824219 C 213.269531 269.5 215.179688 272.515625 216.320312 275.640625 C 217.894531 280.109375 217.414062 285.0625 215.871094 289.476562 C 219.378906 290.253906 222.976562 291.457031 225.539062 294.105469 C 226.523438 290.058594 227.824219 286.042969 229.96875 282.449219 C 232.921875 277.472656 237.152344 272.953125 242.695312 270.9375 C 244.984375 270.214844 247.519531 269.738281 249.875 270.433594 C 251.628906 270.960938 252.480469 272.722656 252.984375 274.34375 C 254.863281 272.308594 256.804688 270.277344 259.140625 268.757812 C 261.828125 267.027344 265.113281 265.746094 268.347656 266.417969 C 270.015625 266.765625 271.171875 268.082031 272.140625 269.386719 C 275.109375 265.558594 278.316406 261.359375 283.175781 259.921875 C 285.757812 259.074219 288.695312 260.003906 290.335938 262.160156 C 292.414062 257.785156 295.429688 253.484375 299.9375 251.386719 C 302.144531 250.34375 304.777344 250.527344 306.75 251.992188 C 307.9375 247.640625 310.191406 243.457031 313.679688 240.527344 C 316.03125 238.523438 319.734375 237.84375 322.417969 239.574219 C 323.929688 240.5 324.761719 242.117188 325.632812 243.601562 C 325.820312 241.890625 325.851562 240.167969 325.859375 238.453125 C 326.082031 225.738281 324.933594 213.039062 323.144531 200.460938 Z M 174.261719 96.019531 C 173.792969 92.816406 172.894531 89.699219 171.910156 86.621094 C 174.414062 89.015625 174.976562 92.753906 174.261719 96.019531 Z M 234.925781 176.84375 C 234.574219 174.011719 237.011719 171.75 239.257812 170.464844 C 237.078125 170.566406 234.960938 169.394531 233.570312 167.769531 C 233.042969 167.003906 232.390625 165.675781 233.335938 164.988281 C 235.382812 163.25 238.347656 163.539062 240.761719 164.21875 C 239.800781 162.441406 239.519531 160.339844 239.890625 158.363281 C 240.0625 157.675781 240.332031 156.945312 240.949219 156.53125 C 241.894531 156.285156 242.898438 156.6875 243.617188 157.300781 C 245.066406 158.539062 246.117188 160.183594 246.855469 161.929688 C 248.238281 159.851562 250.171875 157.847656 252.730469 157.40625 C 253.570312 157.246094 254.269531 158.035156 254.386719 158.808594 C 254.703125 161.058594 253.882812 163.289062 252.789062 165.222656 C 255.375 164.871094 258.453125 165.070312 260.339844 167.105469 C 261.03125 167.726562 260.59375 168.773438 260.027344 169.320312 C 258.378906 171.039062 255.949219 172.003906 253.570312 171.835938 C 255.226562 173.257812 256.742188 175.117188 257.105469 177.328125 C 257.34375 178.425781 256.527344 179.671875 255.332031 179.597656 C 252.953125 179.464844 250.703125 178.269531 249.070312 176.566406 C 249.015625 178.753906 248.367188 180.980469 246.917969 182.65625 C 246.226562 183.445312 244.929688 183.695312 244.179688 182.851562 C 242.453125 181.039062 242.253906 178.273438 242.660156 175.921875 C 241.027344 177.117188 239.078125 177.90625 237.066406 178.140625 C 236.167969 178.269531 234.933594 177.941406 234.925781 176.84375 Z M 245.007812 196.367188 C 242.738281 196.527344 240.46875 196.640625 238.199219 196.648438 C 240.636719 194.011719 243.023438 191.320312 245.691406 188.910156 C 248.015625 186.730469 250.628906 184.574219 253.832031 183.921875 C 255.664062 183.492188 257.460938 184.953125 257.914062 186.679688 C 258.277344 188.078125 258.566406 189.507812 259.089844 190.859375 C 259.910156 190.273438 260.726562 189.667969 261.648438 189.242188 C 262.605469 190.996094 263.277344 192.890625 263.949219 194.769531 C 257.65625 195.488281 251.324219 195.851562 245.007812 196.367188 Z M 245.007812 196.367188 " fill-opacity="1" fill-rule="nonzero"/><path fill="#030302" d="M 95.816406 96.015625 C 98.808594 93.359375 102.585938 91.273438 106.675781 91.238281 C 105.148438 91.914062 103.550781 92.441406 102.128906 93.34375 C 99.058594 95.148438 96.660156 97.835938 94.371094 100.507812 C 89.828125 106.152344 86.25 112.484375 82.925781 118.890625 C 77.386719 129.578125 72.886719 140.769531 68.699219 152.042969 C 65.675781 160.171875 63.09375 168.449219 60.558594 176.738281 C 54.160156 198.324219 49.992188 220.535156 47.472656 242.898438 C 47.226562 244.570312 47.277344 246.300781 46.835938 247.945312 C 46.601562 244.683594 46.863281 241.410156 47.023438 238.148438 C 47.921875 220.390625 50.53125 202.734375 54.738281 185.460938 C 59.457031 165.835938 65.738281 146.527344 74.390625 128.273438 C 77.058594 122.738281 80.054688 117.371094 83.226562 112.113281 C 86.820312 106.324219 90.675781 100.5625 95.816406 96.015625 Z M 95.816406 96.015625 " fill-opacity="1" fill-rule="nonzero"/><path fill="#030302" d="M 95 119.519531 C 95.511719 120.792969 95.675781 122.167969 95.96875 123.503906 C 96.988281 128.257812 98.234375 132.96875 99.640625 137.625 C 101.039062 142.824219 102.878906 147.984375 103.167969 153.410156 C 103.476562 161.074219 100.632812 168.394531 97.546875 175.261719 C 94.445312 181.890625 91.480469 188.699219 90.3125 195.976562 C 88.742188 204.316406 89.257812 212.898438 90.855469 221.191406 C 93.582031 234.914062 99.546875 247.855469 107.25 259.472656 C 107.714844 260.199219 108.207031 260.917969 108.554688 261.714844 C 107.5 260.964844 106.746094 259.894531 105.9375 258.90625 C 97.40625 248.40625 91.34375 235.996094 87.773438 222.964844 C 85.550781 214.226562 84.816406 205.058594 86.054688 196.105469 C 87.105469 188.320312 89.515625 180.753906 92.976562 173.707031 C 95.496094 168.226562 98.375 162.789062 99.480469 156.800781 C 100.292969 152.355469 99.589844 147.816406 98.625 143.453125 C 96.957031 135.566406 95.039062 127.625 95 119.519531 Z M 95 119.519531 " fill-opacity="1" fill-rule="nonzero"/><path fill="#030302" d="M 87.863281 137.5625 C 88.597656 135.503906 89.101562 133.355469 90.078125 131.394531 C 86.832031 146.136719 83.164062 160.785156 79.90625 175.527344 C 75.632812 193.546875 71.859375 211.726562 69.875 230.160156 C 69.085938 237.191406 68.867188 244.273438 68.867188 251.34375 C 68.296875 250.820312 68.277344 250 68.121094 249.296875 C 66.996094 242.519531 67.113281 235.625 67.289062 228.785156 C 68.171875 210.28125 71.628906 191.964844 76.59375 174.136719 C 80.050781 161.855469 83.964844 149.710938 87.863281 137.5625 Z M 87.863281 137.5625 " fill-opacity="1" fill-rule="nonzero"/><path fill="#030302" d="M 217.070312 162.082031 C 218.035156 161.59375 219.460938 162.347656 219.398438 163.496094 C 219.484375 164.753906 217.773438 165.542969 216.824219 164.773438 C 215.878906 164.167969 215.996094 162.496094 217.070312 162.082031 Z M 217.070312 162.082031 " fill-opacity="1" fill-rule="nonzero"/><path fill="#030302" d="M 245.804688 166.648438 C 247.101562 166.355469 248.664062 167.035156 248.992188 168.410156 C 249.78125 170.535156 247.023438 172.699219 245.128906 171.460938 C 243.195312 170.410156 243.597656 167.078125 245.804688 166.648438 Z M 245.804688 166.648438 " fill-opacity="1" fill-rule="nonzero"/><path fill="#030302" d="M 210.820312 188.34375 C 212.234375 187.660156 213.792969 189.738281 212.652344 190.863281 C 211.929688 191.839844 210.152344 191.433594 209.917969 190.257812 C 209.679688 189.492188 210.089844 188.652344 210.820312 188.34375 Z M 210.820312 188.34375 " fill-opacity="1" fill-rule="nonzero"/><path fill="#030302" d="M 205.539062 217.667969 C 206.640625 216.964844 208.351562 218.09375 208.027344 219.378906 C 207.785156 220.652344 205.957031 220.980469 205.164062 220.035156 C 204.417969 219.386719 204.679688 218.078125 205.539062 217.667969 Z M 205.539062 217.667969 " fill-opacity="1" fill-rule="nonzero"/><path fill="#030302" d="M 56.042969 243.628906 C 58.140625 244.828125 59.519531 246.929688 60.722656 248.957031 C 63.796875 254.230469 64.332031 260.800781 62.484375 266.589844 C 61.804688 268.71875 60.847656 270.824219 59.28125 272.457031 C 54.488281 268.492188 52.121094 262.113281 52.242188 255.988281 C 52.121094 251.609375 53.246094 247.070312 56.042969 243.628906 Z M 56.042969 243.628906 " fill-opacity="1" fill-rule="nonzero"/><path fill="#030302" d="M 318.417969 244.152344 C 319.203125 243.925781 319.5625 244.859375 319.992188 245.339844 C 323.085938 250.0625 323.308594 256.097656 322.246094 261.496094 C 321.433594 265.785156 319.039062 269.699219 315.671875 272.457031 C 313.289062 269.738281 312.121094 266.195312 311.582031 262.671875 C 310.78125 256.730469 312.4375 250.414062 316.378906 245.851562 C 316.980469 245.203125 317.632812 244.574219 318.417969 244.152344 Z M 318.417969 244.152344 " fill-opacity="1" fill-rule="nonzero"/><path fill="#030302" d="M 72.167969 256.503906 C 72.535156 255.832031 73.253906 256.671875 73.664062 256.894531 C 81.488281 263.402344 83.6875 275.445312 79.078125 284.445312 C 74.144531 281.503906 71.058594 276.082031 70.027344 270.527344 C 69.1875 265.8125 69.621094 260.644531 72.167969 256.503906 Z M 72.167969 256.503906 " fill-opacity="1" fill-rule="nonzero"/><path fill="#030302" d="M 296.992188 261.890625 C 298.410156 259.710938 299.9375 257.421875 302.300781 256.175781 C 304.269531 258.34375 305.050781 261.335938 305.390625 264.179688 C 305.941406 270.113281 304.011719 276.1875 300.203125 280.753906 C 298.992188 282.148438 297.617188 283.4375 295.949219 284.277344 C 292.320312 277.320312 292.808594 268.5 296.992188 261.890625 Z M 296.992188 261.890625 " fill-opacity="1" fill-rule="nonzero"/><g clip-path="url(#c76d156b9d)"><path fill="#030302" d="M 24.226562 257.613281 C 34.480469 255.285156 45.777344 261.828125 49.289062 271.65625 C 44.613281 273.121094 39.394531 272.328125 35.082031 270.105469 C 30.023438 267.617188 25.785156 263.097656 24.226562 257.613281 Z M 24.226562 257.613281 " fill-opacity="1" fill-rule="nonzero"/></g><path fill="#030302" d="M 334.574219 260.695312 C 339.304688 257.578125 345.394531 256.15625 350.910156 257.769531 C 347.996094 266.308594 339.285156 272.574219 330.226562 272.363281 C 328.773438 272.367188 327.328125 272.097656 325.96875 271.601562 C 327.136719 266.949219 330.65625 263.261719 334.574219 260.695312 Z M 334.574219 260.695312 " fill-opacity="1" fill-rule="nonzero"/><path fill="#030302" d="M 89.546875 265.683594 C 89.917969 264.734375 90.984375 265.570312 91.566406 265.84375 C 96.882812 269.207031 100.042969 275.277344 101.019531 281.371094 C 101.453125 285.136719 101.160156 289.105469 99.574219 292.589844 C 94.367188 289.828125 90.636719 284.671875 89.140625 279.019531 C 87.898438 274.6875 87.875 269.902344 89.546875 265.683594 Z M 89.546875 265.683594 " fill-opacity="1" fill-rule="nonzero"/><path fill="#030302" d="M 278.742188 270.101562 C 280.382812 267.964844 282.425781 265.929688 285.089844 265.175781 C 287.386719 269.425781 287.136719 274.585938 285.886719 279.117188 C 284.21875 284.613281 280.757812 289.917969 275.53125 292.574219 C 272.519531 285.21875 273.859375 276.347656 278.742188 270.101562 Z M 278.742188 270.101562 " fill-opacity="1" fill-rule="nonzero"/><path fill="#030302" d="M 51.886719 270.875 C 53.164062 271.660156 54.214844 272.753906 55.378906 273.691406 C 61.328125 278.546875 67.898438 282.605469 74.796875 285.964844 C 88.875 293.128906 104.226562 297.421875 119.71875 300.21875 C 127.488281 301.671875 135.355469 302.476562 143.222656 303.183594 C 143.101562 303.953125 142.976562 304.726562 142.863281 305.5 C 134.550781 305.125 126.300781 303.886719 118.128906 302.359375 C 102.777344 299.382812 87.65625 294.6875 73.828125 287.292969 C 65.859375 282.800781 58.132812 277.613281 51.886719 270.875 Z M 51.886719 270.875 " fill-opacity="1" fill-rule="nonzero"/><path fill="#030302" d="M 307.253906 282.207031 C 312.933594 279.019531 318.074219 274.980469 323.097656 270.859375 C 316.882812 277.601562 309.28125 282.972656 301.265625 287.375 C 285.355469 295.695312 267.882812 300.65625 250.210938 303.535156 C 244.167969 304.421875 238.085938 305.222656 231.980469 305.5 C 231.851562 304.730469 231.734375 303.957031 231.640625 303.183594 C 237.914062 302.535156 244.214844 302.082031 250.4375 301 C 261.339844 299.316406 272.105469 296.757812 282.597656 293.34375 C 291.113281 290.34375 299.445312 286.753906 307.253906 282.207031 Z M 307.253906 282.207031 " fill-opacity="1" fill-rule="nonzero"/><path fill="#030302" d="M 108.367188 271.320312 C 113.453125 273.121094 117.371094 277.339844 119.683594 282.117188 C 122.035156 286.933594 122.335938 292.53125 121.265625 297.722656 C 116.824219 295.964844 113.203125 292.484375 110.652344 288.5 C 107.488281 283.46875 106.390625 276.996094 108.367188 271.320312 Z M 108.367188 271.320312 " fill-opacity="1" fill-rule="nonzero"/><path fill="#030302" d="M 168.25 272.167969 C 170.480469 270.964844 173.160156 271.0625 175.539062 271.730469 C 180.539062 273.214844 184.546875 277.171875 186.816406 281.785156 C 187.214844 282.441406 186.761719 283.1875 186.660156 283.867188 C 185.855469 286.691406 185.730469 289.632812 185.578125 292.546875 C 185.53125 294.8125 185.847656 297.074219 185.746094 299.34375 C 184.734375 297.382812 184.09375 295.246094 182.945312 293.351562 C 180.925781 289.863281 178.542969 286.261719 174.855469 284.378906 C 175.238281 289.285156 177.902344 293.605469 180.539062 297.621094 C 181.273438 298.714844 182.121094 299.738281 182.667969 300.957031 C 180.691406 300.082031 178.96875 298.746094 177.050781 297.769531 C 173.988281 296.1875 170.914062 294.453125 167.484375 293.839844 C 164.519531 289.308594 162.90625 283.675781 164.007812 278.285156 C 164.515625 275.785156 165.96875 273.40625 168.25 272.167969 Z M 168.25 272.167969 " fill-opacity="1" fill-rule="nonzero"/><path fill="#030302" d="M 200.066406 271.605469 C 202.683594 271.007812 205.710938 271.105469 207.878906 272.878906 C 210.277344 274.65625 211.136719 277.746094 211.371094 280.589844 C 211.679688 285.199219 210.152344 289.796875 207.660156 293.632812 C 206.917969 294.171875 205.847656 294.046875 205.003906 294.414062 C 200.585938 296.023438 196.671875 298.691406 192.574219 300.933594 C 194.582031 297.042969 197.386719 293.578125 198.941406 289.449219 C 199.539062 287.820312 200.121094 286.113281 200.007812 284.351562 C 197.726562 285.503906 195.976562 287.429688 194.546875 289.515625 C 192.324219 292.515625 190.847656 295.960938 189.324219 299.34375 C 189.453125 293.925781 190.035156 288.320312 188.277344 283.070312 C 187.835938 282.25 188.492188 281.515625 188.851562 280.820312 C 191.25 276.5 195.195312 272.84375 200.066406 271.605469 Z M 200.066406 271.605469 " fill-opacity="1" fill-rule="nonzero"/><path fill="#030302" d="M 255.039062 282.867188 C 257.058594 277.632812 261.316406 273.21875 266.652344 271.359375 C 268.140625 275.328125 267.964844 279.773438 266.652344 283.761719 C 264.535156 289.941406 259.71875 295.101562 253.761719 297.75 C 252.640625 292.8125 253.078125 287.535156 255.039062 282.867188 Z M 255.039062 282.867188 " fill-opacity="1" fill-rule="nonzero"/><path fill="#030302" d="M 128.144531 275.097656 C 133.507812 276.824219 137.796875 281.003906 140.457031 285.890625 C 142.9375 290.207031 143.9375 295.351562 143.289062 300.289062 C 137.351562 298.707031 132.566406 294.140625 129.761719 288.785156 C 127.570312 284.636719 126.832031 279.632812 128.144531 275.097656 Z M 128.144531 275.097656 " fill-opacity="1" fill-rule="nonzero"/><path fill="#030302" d="M 235.507812 284.25 C 238.203125 280.222656 242.023438 276.664062 246.789062 275.367188 C 248.605469 280.527344 247.128906 286.285156 244.257812 290.757812 C 241.359375 295.242188 237.011719 299.109375 231.722656 300.363281 C 230.671875 294.761719 232.472656 288.953125 235.507812 284.25 Z M 235.507812 284.25 " fill-opacity="1" fill-rule="nonzero"/><path fill="#030302" d="M 323.332031 280.117188 C 330.25 279.347656 337.703125 281.832031 342.167969 287.304688 C 337.5625 290.851562 331.34375 291.621094 325.746094 290.601562 C 320.890625 289.625 316.144531 287.375 312.820312 283.625 C 315.988281 281.664062 319.660156 280.628906 323.332031 280.117188 Z M 323.332031 280.117188 " fill-opacity="1" fill-rule="nonzero"/><path fill="#030302" d="M 32.8125 287.339844 C 36.921875 282.347656 43.566406 279.757812 49.960938 280.015625 C 54.226562 280.238281 58.53125 281.316406 62.1875 283.582031 C 57.949219 288.199219 51.71875 290.769531 45.503906 291.035156 C 41.03125 291.203125 36.433594 290.035156 32.8125 287.339844 Z M 32.8125 287.339844 " fill-opacity="1" fill-rule="nonzero"/><path fill="#030302" d="M 62.609375 294.324219 C 68.265625 291.636719 75.050781 291.878906 80.746094 294.292969 C 77.300781 299.71875 71.359375 303.375 65.089844 304.53125 C 61.03125 305.125 56.660156 305.132812 52.894531 303.304688 C 54.910156 299.257812 58.613281 296.28125 62.609375 294.324219 Z M 62.609375 294.324219 " fill-opacity="1" fill-rule="nonzero"/><path fill="#030302" d="M 294.144531 294.292969 C 297.671875 292.554688 301.761719 292.152344 305.640625 292.449219 C 312.414062 293.191406 318.960938 297.175781 322.191406 303.25 C 318.175781 305.183594 313.507812 305.226562 309.210938 304.34375 C 303.140625 303.101562 297.644531 299.402344 294.144531 294.292969 Z M 294.144531 294.292969 " fill-opacity="1" fill-rule="nonzero"/><path fill="#030302" d="M 154.707031 297.390625 C 158.382812 295.304688 162.65625 294.40625 166.855469 294.46875 C 168.992188 297.476562 172.15625 299.5625 175.339844 301.324219 C 177.175781 302.351562 179.195312 303.019531 180.992188 304.125 C 176.0625 303.671875 171.023438 303.183594 166.148438 304.339844 C 164.730469 304.664062 163.359375 305.183594 162.125 305.945312 C 164.070312 307.375 166.539062 307.6875 168.871094 307.933594 C 172.40625 308.210938 175.988281 308.023438 179.453125 307.277344 C 180.046875 307.144531 180.65625 307.121094 181.265625 307.113281 C 180.097656 308.054688 178.632812 308.480469 177.328125 309.1875 C 173.378906 311.246094 169.457031 313.675781 166.765625 317.316406 C 166.03125 317.648438 165.152344 317.414062 164.367188 317.445312 C 159.691406 317.082031 154.878906 315.535156 151.539062 312.109375 C 149.195312 309.753906 148.152344 306.046875 149.398438 302.894531 C 150.335938 300.421875 152.488281 298.683594 154.707031 297.390625 Z M 154.707031 297.390625 " fill-opacity="1" fill-rule="nonzero"/><path fill="#030302" d="M 208.1875 294.578125 L 208.429688 294.429688 C 213.160156 294.367188 217.980469 295.65625 221.855469 298.425781 C 223.949219 299.980469 225.84375 302.183594 226.117188 304.871094 C 226.453125 307.894531 224.867188 310.824219 222.667969 312.800781 C 218.96875 316.050781 213.949219 317.417969 209.113281 317.601562 C 208.542969 317.710938 208.257812 317.15625 207.953125 316.800781 C 205.242188 313.316406 201.363281 310.988281 197.464844 309.054688 C 196.292969 308.449219 195.023438 307.96875 194.039062 307.066406 C 196.105469 307.210938 198.09375 307.898438 200.167969 308.007812 C 204.511719 308.273438 209.105469 308.058594 213.035156 305.988281 C 207.269531 302.929688 200.46875 303.488281 194.203125 304.109375 C 195.648438 303.035156 197.398438 302.535156 198.980469 301.714844 C 202.460938 299.972656 205.882812 297.777344 208.1875 294.578125 Z M 208.1875 294.578125 " fill-opacity="1" fill-rule="nonzero"/><path fill="#030302" d="M 184.617188 300.441406 C 187.921875 298.355469 192.867188 300.644531 193.445312 304.511719 C 193.898438 306.460938 192.855469 308.304688 191.617188 309.714844 C 190.992188 310.429688 189.960938 310.59375 189.304688 311.25 C 189.324219 311.957031 189.703125 312.578125 189.953125 313.230469 C 191.699219 317.519531 193.6875 321.84375 196.917969 325.242188 C 197.820312 326.210938 198.945312 326.949219 200.117188 327.558594 C 199.890625 320.84375 195.277344 315.550781 192.109375 309.980469 C 195.738281 312.199219 199.195312 314.75 203.15625 316.378906 C 204.632812 317.117188 206.28125 317.417969 207.796875 318.050781 C 210.195312 321.476562 211.332031 325.667969 211.425781 329.820312 C 211.320312 332.875 210.542969 336.136719 208.347656 338.378906 C 205.929688 340.761719 202.128906 340.773438 199.085938 339.78125 C 194.605469 338.15625 190.941406 334.695312 188.574219 330.601562 C 188.351562 330.140625 187.882812 329.632812 188.167969 329.097656 C 189.902344 323.640625 189.683594 317.808594 189.1875 312.175781 C 189.121094 312.039062 188.988281 311.765625 188.925781 311.628906 C 188.082031 310.957031 186.925781 311.414062 185.941406 311.304688 C 185.640625 317.058594 185.347656 322.933594 186.859375 328.558594 C 186.960938 329.027344 187.226562 329.546875 186.925781 330.011719 C 184.847656 333.839844 181.644531 337.109375 177.753906 339.097656 C 174.835938 340.582031 171.183594 341.039062 168.210938 339.464844 C 165.539062 337.988281 164.28125 334.914062 163.84375 332.035156 C 163.445312 327.996094 164.207031 323.847656 165.984375 320.210938 C 166.535156 319.222656 167.0625 318 168.289062 317.738281 C 173.550781 316.011719 178.390625 313.203125 182.847656 309.949219 C 181.300781 313.007812 179.125 315.707031 177.5625 318.761719 C 176.175781 321.492188 174.980469 324.433594 174.878906 327.539062 C 178.507812 326.023438 180.625 322.445312 182.402344 319.132812 C 183.742188 316.554688 184.808594 313.851562 185.929688 311.175781 C 183.8125 310.257812 181.589844 308.496094 181.574219 305.984375 C 181.277344 303.730469 182.597656 301.4375 184.617188 300.441406 Z M 184.617188 300.441406 " fill-opacity="1" fill-rule="nonzero"/><path fill="#030302" d="M 79.40625 307.8125 C 84.464844 302.015625 92.730469 299.316406 100.242188 300.886719 C 98.554688 306.644531 93.835938 311.0625 88.582031 313.660156 C 84.496094 315.535156 79.777344 316.8125 75.332031 315.519531 C 75.785156 312.582031 77.484375 310.011719 79.40625 307.8125 Z M 79.40625 307.8125 " fill-opacity="1" fill-rule="nonzero"/><path fill="#030302" d="M 274.679688 300.949219 C 280.71875 299.582031 287.273438 301.15625 292.175781 304.898438 C 295.679688 307.554688 298.667969 311.132812 299.894531 315.425781 C 296.257812 316.761719 292.277344 315.882812 288.722656 314.710938 C 282.382812 312.449219 276.652344 307.542969 274.679688 300.949219 Z M 274.679688 300.949219 " fill-opacity="1" fill-rule="nonzero"/><path fill="#030302" d="M 105.132812 310.808594 C 109.679688 307.210938 115.628906 305.597656 121.378906 306.003906 C 120.28125 311.285156 116.671875 315.683594 112.480469 318.902344 C 108.335938 322.046875 103.152344 323.949219 97.921875 323.769531 C 98.179688 318.652344 101.121094 313.890625 105.132812 310.808594 Z M 105.132812 310.808594 " fill-opacity="1" fill-rule="nonzero"/><path fill="#030302" d="M 253.628906 305.910156 C 259.207031 305.625 264.980469 307.046875 269.492188 310.433594 C 273.75 313.515625 276.867188 318.433594 277.070312 323.769531 C 270.683594 323.914062 264.363281 321.199219 259.882812 316.683594 C 256.929688 313.730469 254.445312 310.054688 253.628906 305.910156 Z M 253.628906 305.910156 " fill-opacity="1" fill-rule="nonzero"/><path fill="#030302" d="M 125.601562 316.003906 C 129.539062 311.722656 135.292969 308.734375 141.195312 309.042969 C 140.726562 315.019531 137.429688 320.59375 132.734375 324.25 C 129.292969 327.011719 125.097656 329.003906 120.644531 329.269531 C 120.238281 324.390625 122.539062 319.664062 125.601562 316.003906 Z M 125.601562 316.003906 " fill-opacity="1" fill-rule="nonzero"/><path fill="#030302" d="M 233.714844 308.976562 C 243.324219 308.609375 252.195312 316.132812 254.15625 325.414062 C 254.4375 326.671875 254.472656 327.96875 254.425781 329.257812 C 248.460938 328.824219 242.910156 325.625 239 321.179688 C 236.113281 317.757812 233.902344 313.519531 233.714844 308.976562 Z M 233.714844 308.976562 " fill-opacity="1" fill-rule="nonzero"/></svg>