<svg xmlns="http://www.w3.org/2000/svg" xmlns:xlink="http://www.w3.org/1999/xlink" width="500" height="500" preserveAspectRatio="xMidYMid meet" version="1.0" viewBox="0 0 375 375" zoomAndPan="magnify"><defs><clipPath id="6afa9382d6"><path d="M 37.5 27 L 337.5 27 L 337.5 348.535156 L 37.5 348.535156 Z M 37.5 27" clip-rule="nonzero"/></clipPath></defs><path fill="#000" fill-opacity="1" fill-rule="nonzero" d="M 217.945312 312.839844 L 119.777344 312.839844 C 119.425781 312.839844 119.078125 312.875 118.734375 312.945312 C 118.390625 313.011719 118.054688 313.113281 117.730469 313.25 C 117.40625 313.382812 117.097656 313.546875 116.808594 313.742188 C 116.515625 313.9375 116.246094 314.160156 115.996094 314.410156 C 115.75 314.65625 115.527344 314.929688 115.332031 315.222656 C 115.136719 315.511719 114.972656 315.820312 114.835938 316.144531 C 114.703125 316.472656 114.601562 316.804688 114.535156 317.152344 C 114.464844 317.496094 114.429688 317.84375 114.429688 318.195312 C 114.429688 318.546875 114.464844 318.894531 114.535156 319.238281 C 114.601562 319.582031 114.703125 319.917969 114.835938 320.242188 C 114.972656 320.566406 115.136719 320.875 115.332031 321.167969 C 115.527344 321.460938 115.75 321.730469 115.996094 321.980469 C 116.246094 322.230469 116.515625 322.449219 116.808594 322.644531 C 117.097656 322.839844 117.40625 323.003906 117.730469 323.140625 C 118.054688 323.273438 118.390625 323.375 118.734375 323.445312 C 119.078125 323.511719 119.425781 323.546875 119.777344 323.546875 L 217.945312 323.546875 C 218.296875 323.546875 218.644531 323.511719 218.988281 323.445312 C 219.332031 323.375 219.664062 323.273438 219.992188 323.140625 C 220.316406 323.003906 220.621094 322.839844 220.914062 322.644531 C 221.207031 322.449219 221.476562 322.230469 221.726562 321.980469 C 221.972656 321.730469 222.195312 321.460938 222.390625 321.167969 C 222.585938 320.875 222.75 320.566406 222.882812 320.242188 C 223.019531 319.917969 223.121094 319.582031 223.1875 319.238281 C 223.257812 318.894531 223.292969 318.546875 223.292969 318.195312 C 223.292969 317.84375 223.257812 317.496094 223.1875 317.152344 C 223.121094 316.804688 223.019531 316.472656 222.882812 316.144531 C 222.75 315.820312 222.585938 315.511719 222.390625 315.222656 C 222.195312 314.929688 221.972656 314.65625 221.726562 314.410156 C 221.476562 314.160156 221.207031 313.9375 220.914062 313.742188 C 220.621094 313.546875 220.316406 313.382812 219.992188 313.25 C 219.664062 313.113281 219.332031 313.011719 218.988281 312.945312 C 218.644531 312.875 218.296875 312.839844 217.945312 312.839844 Z M 217.945312 312.839844"/><path fill="#000" fill-opacity="1" fill-rule="nonzero" d="M 255.757812 312.839844 L 243.054688 312.839844 C 242.703125 312.839844 242.355469 312.875 242.011719 312.945312 C 241.667969 313.011719 241.335938 313.113281 241.007812 313.25 C 240.683594 313.382812 240.378906 313.546875 240.085938 313.742188 C 239.792969 313.9375 239.523438 314.160156 239.273438 314.410156 C 239.027344 314.65625 238.804688 314.929688 238.609375 315.222656 C 238.414062 315.511719 238.25 315.820312 238.117188 316.144531 C 237.980469 316.472656 237.878906 316.804688 237.8125 317.152344 C 237.742188 317.496094 237.707031 317.84375 237.707031 318.195312 C 237.707031 318.546875 237.742188 318.894531 237.8125 319.238281 C 237.878906 319.582031 237.980469 319.917969 238.117188 320.242188 C 238.25 320.566406 238.414062 320.875 238.609375 321.167969 C 238.804688 321.460938 239.027344 321.730469 239.273438 321.980469 C 239.523438 322.230469 239.792969 322.449219 240.085938 322.644531 C 240.378906 322.839844 240.683594 323.003906 241.007812 323.140625 C 241.335938 323.273438 241.667969 323.375 242.011719 323.445312 C 242.355469 323.511719 242.703125 323.546875 243.054688 323.546875 L 255.757812 323.546875 C 256.109375 323.546875 256.457031 323.511719 256.800781 323.445312 C 257.144531 323.375 257.480469 323.273438 257.804688 323.140625 C 258.128906 323.003906 258.4375 322.839844 258.726562 322.644531 C 259.019531 322.449219 259.289062 322.230469 259.539062 321.980469 C 259.785156 321.730469 260.007812 321.460938 260.203125 321.167969 C 260.398438 320.875 260.5625 320.566406 260.695312 320.242188 C 260.832031 319.917969 260.933594 319.582031 261 319.238281 C 261.070312 318.894531 261.105469 318.546875 261.105469 318.195312 C 261.105469 317.84375 261.070312 317.496094 261 317.152344 C 260.933594 316.804688 260.832031 316.472656 260.695312 316.144531 C 260.5625 315.820312 260.398438 315.511719 260.203125 315.222656 C 260.007812 314.929688 259.785156 314.65625 259.539062 314.410156 C 259.289062 314.160156 259.019531 313.9375 258.726562 313.742188 C 258.4375 313.546875 258.128906 313.382812 257.804688 313.25 C 257.480469 313.113281 257.144531 313.011719 256.800781 312.945312 C 256.457031 312.875 256.109375 312.839844 255.757812 312.839844 Z M 255.757812 312.839844"/><path fill="#000" fill-opacity="1" fill-rule="nonzero" d="M 154.132812 149.386719 C 155.09375 150.355469 156.144531 151.222656 157.277344 151.984375 C 158.414062 152.746094 159.609375 153.390625 160.871094 153.914062 C 162.136719 154.4375 163.4375 154.832031 164.777344 155.097656 C 166.117188 155.367188 167.46875 155.496094 168.835938 155.496094 C 170.203125 155.496094 171.554688 155.367188 172.894531 155.101562 C 174.234375 154.839844 175.535156 154.445312 176.796875 153.921875 C 178.058594 153.398438 179.257812 152.757812 180.390625 151.996094 C 181.523438 151.234375 182.574219 150.371094 183.539062 149.402344 L 243.675781 89.277344 C 244.398438 88.554688 245.066406 87.78125 245.675781 86.957031 C 246.285156 86.136719 246.832031 85.273438 247.3125 84.371094 C 247.796875 83.46875 248.207031 82.535156 248.554688 81.570312 C 248.898438 80.605469 249.171875 79.625 249.371094 78.621094 C 249.570312 77.617188 249.695312 76.601562 249.746094 75.578125 C 249.796875 74.558594 249.773438 73.535156 249.671875 72.519531 C 249.570312 71.5 249.398438 70.492188 249.148438 69.5 C 248.902344 68.507812 248.582031 67.539062 248.191406 66.589844 C 247.800781 65.644531 247.34375 64.734375 246.816406 63.855469 C 246.292969 62.976562 245.707031 62.140625 245.058594 61.351562 C 244.410156 60.558594 243.707031 59.816406 242.949219 59.128906 C 242.191406 58.441406 241.386719 57.8125 240.539062 57.246094 C 239.6875 56.675781 238.800781 56.171875 237.875 55.734375 C 236.953125 55.292969 236 54.925781 235.023438 54.628906 C 234.042969 54.332031 233.050781 54.105469 232.039062 53.957031 C 231.027344 53.804688 230.007812 53.726562 228.988281 53.726562 C 227.621094 53.722656 226.269531 53.855469 224.929688 54.117188 C 223.589844 54.382812 222.289062 54.777344 221.027344 55.300781 C 219.765625 55.824219 218.566406 56.464844 217.433594 57.226562 C 216.296875 57.984375 215.25 58.851562 214.285156 59.820312 L 168.863281 105.222656 L 161.269531 97.617188 C 160.308594 96.648438 159.257812 95.78125 158.125 95.019531 C 156.988281 94.257812 155.789062 93.613281 154.527344 93.089844 C 153.265625 92.566406 151.964844 92.171875 150.625 91.90625 C 149.285156 91.640625 147.929688 91.511719 146.5625 91.515625 C 145.542969 91.511719 144.523438 91.585938 143.511719 91.738281 C 142.5 91.886719 141.503906 92.109375 140.523438 92.40625 C 139.546875 92.703125 138.59375 93.070312 137.667969 93.507812 C 136.742188 93.945312 135.855469 94.445312 135.003906 95.015625 C 134.152344 95.582031 133.347656 96.210938 132.589844 96.898438 C 131.832031 97.585938 131.128906 98.324219 130.480469 99.117188 C 129.828125 99.90625 129.242188 100.742188 128.714844 101.621094 C 128.191406 102.5 127.730469 103.410156 127.339844 104.355469 C 126.945312 105.300781 126.625 106.273438 126.378906 107.265625 C 126.128906 108.257812 125.953125 109.265625 125.855469 110.285156 C 125.753906 111.304688 125.730469 112.324219 125.777344 113.347656 C 125.828125 114.371094 125.953125 115.382812 126.152344 116.386719 C 126.351562 117.390625 126.625 118.375 126.96875 119.339844 C 127.3125 120.304688 127.726562 121.238281 128.210938 122.140625 C 128.691406 123.042969 129.238281 123.90625 129.847656 124.730469 C 130.457031 125.550781 131.125 126.324219 131.847656 127.046875 Z M 139.417969 105.179688 C 139.890625 104.710938 140.398438 104.292969 140.953125 103.925781 C 141.503906 103.558594 142.085938 103.246094 142.699219 102.992188 C 143.3125 102.738281 143.941406 102.546875 144.59375 102.417969 C 145.246094 102.289062 145.902344 102.222656 146.5625 102.222656 C 147.226562 102.222656 147.882812 102.289062 148.535156 102.417969 C 149.183594 102.546875 149.816406 102.738281 150.429688 102.992188 C 151.042969 103.246094 151.625 103.558594 152.175781 103.925781 C 152.726562 104.292969 153.238281 104.710938 153.707031 105.179688 L 165.078125 116.570312 C 165.324219 116.820312 165.597656 117.042969 165.886719 117.238281 C 166.179688 117.433594 166.488281 117.597656 166.8125 117.730469 C 167.136719 117.867188 167.472656 117.96875 167.816406 118.035156 C 168.160156 118.105469 168.507812 118.140625 168.859375 118.140625 C 169.210938 118.140625 169.558594 118.105469 169.902344 118.035156 C 170.246094 117.96875 170.578125 117.867188 170.90625 117.730469 C 171.230469 117.597656 171.535156 117.433594 171.828125 117.238281 C 172.121094 117.042969 172.390625 116.820312 172.640625 116.570312 L 221.835938 67.382812 C 222.78125 66.433594 223.871094 65.699219 225.109375 65.1875 C 226.347656 64.671875 227.636719 64.417969 228.976562 64.421875 C 229.976562 64.421875 230.953125 64.570312 231.910156 64.859375 C 232.863281 65.148438 233.757812 65.574219 234.589844 66.128906 C 235.417969 66.683594 236.152344 67.351562 236.785156 68.125 C 237.417969 68.898438 237.925781 69.746094 238.308594 70.671875 C 238.691406 71.59375 238.929688 72.554688 239.027344 73.550781 C 239.125 74.546875 239.074219 75.535156 238.878906 76.515625 C 238.683594 77.496094 238.351562 78.425781 237.878906 79.308594 C 237.40625 80.191406 236.816406 80.984375 236.109375 81.691406 L 176.003906 141.828125 C 175.058594 142.777344 173.964844 143.507812 172.730469 144.023438 C 171.492188 144.535156 170.203125 144.789062 168.863281 144.789062 C 167.523438 144.792969 166.234375 144.539062 164.996094 144.023438 C 163.757812 143.507812 162.667969 142.777344 161.722656 141.824219 L 139.429688 119.484375 C 138.960938 119.015625 138.542969 118.503906 138.171875 117.953125 C 137.804688 117.398438 137.492188 116.816406 137.238281 116.203125 C 136.984375 115.589844 136.792969 114.957031 136.664062 114.304688 C 136.535156 113.65625 136.46875 112.996094 136.46875 112.332031 C 136.46875 111.667969 136.535156 111.011719 136.664062 110.359375 C 136.792969 109.707031 136.984375 109.074219 137.238281 108.460938 C 137.492188 107.847656 137.804688 107.265625 138.171875 106.714844 C 138.542969 106.160156 138.960938 105.648438 139.429688 105.179688 Z M 139.417969 105.179688"/><g clip-path="url(#6afa9382d6)"><path fill="#000" fill-opacity="1" fill-rule="nonzero" d="M 291.324219 109.339844 L 291.324219 32.421875 C 291.324219 32.070312 291.289062 31.722656 291.222656 31.378906 C 291.152344 31.03125 291.050781 30.699219 290.917969 30.375 C 290.78125 30.050781 290.617188 29.742188 290.421875 29.449219 C 290.226562 29.15625 290.003906 28.886719 289.757812 28.636719 C 289.507812 28.386719 289.238281 28.167969 288.945312 27.972656 C 288.65625 27.777344 288.347656 27.609375 288.023438 27.476562 C 287.699219 27.34375 287.363281 27.242188 287.019531 27.171875 C 286.675781 27.101562 286.328125 27.070312 285.976562 27.070312 L 85.832031 27.070312 C 85.480469 27.070312 85.132812 27.101562 84.789062 27.171875 C 84.445312 27.242188 84.109375 27.34375 83.785156 27.476562 C 83.460938 27.609375 83.152344 27.777344 82.859375 27.972656 C 82.570312 28.167969 82.296875 28.386719 82.050781 28.636719 C 81.800781 28.886719 81.582031 29.15625 81.386719 29.449219 C 81.191406 29.742188 81.023438 30.050781 80.890625 30.375 C 80.757812 30.699219 80.65625 31.03125 80.585938 31.378906 C 80.519531 31.722656 80.484375 32.070312 80.484375 32.421875 L 80.484375 112.371094 L 39.746094 145.308594 C 39.117188 145.816406 38.628906 146.433594 38.28125 147.164062 C 37.929688 147.894531 37.757812 148.664062 37.757812 149.472656 L 37.757812 342.898438 C 37.757812 343.023438 37.820312 343.125 37.828125 343.246094 C 37.855469 343.800781 37.964844 344.335938 38.15625 344.851562 C 38.34375 345.25 38.578125 345.621094 38.851562 345.960938 C 38.960938 346.160156 39.082031 346.351562 39.214844 346.535156 L 39.265625 346.566406 C 39.765625 347.09375 40.347656 347.503906 41.015625 347.789062 C 41.679688 348.078125 42.378906 348.222656 43.105469 348.226562 L 332.445312 348.226562 C 332.796875 348.226562 333.144531 348.191406 333.488281 348.121094 C 333.835938 348.054688 334.167969 347.953125 334.492188 347.816406 C 334.816406 347.683594 335.125 347.519531 335.417969 347.324219 C 335.710938 347.128906 335.980469 346.90625 336.226562 346.65625 C 336.476562 346.410156 336.699219 346.136719 336.894531 345.847656 C 337.089844 345.554688 337.253906 345.246094 337.386719 344.921875 C 337.519531 344.597656 337.621094 344.261719 337.691406 343.917969 C 337.761719 343.570312 337.792969 343.222656 337.792969 342.871094 L 337.792969 149.472656 C 337.792969 148.664062 337.621094 147.894531 337.269531 147.164062 C 336.921875 146.433594 336.433594 145.816406 335.804688 145.308594 Z M 48.453125 165.328125 L 141.683594 241.726562 L 48.453125 330.390625 Z M 150.019531 248.582031 L 182.515625 275.21875 C 182.992188 275.613281 183.523438 275.910156 184.105469 276.121094 C 184.6875 276.328125 185.285156 276.433594 185.902344 276.433594 C 186.519531 276.433594 187.121094 276.328125 187.703125 276.121094 C 188.285156 275.910156 188.8125 275.613281 189.292969 275.21875 L 222.789062 247.757812 L 317.222656 337.546875 L 56.453125 337.546875 Z M 231.132812 240.921875 L 327.097656 162.234375 L 327.097656 332.191406 Z M 324.878906 150.238281 L 291.324219 177.742188 L 291.324219 123.101562 Z M 280.628906 37.773438 L 280.628906 186.507812 L 185.902344 264.160156 L 154.582031 238.464844 C 154.410156 238.101562 154.199219 237.761719 153.945312 237.449219 C 153.316406 236.816406 152.578125 236.375 151.722656 236.121094 L 91.179688 186.507812 L 91.179688 37.773438 Z M 80.484375 177.742188 L 48.785156 151.761719 L 80.484375 126.128906 Z M 80.484375 177.742188"/></g><path fill="#000" fill-opacity="1" fill-rule="nonzero" d="M 240.417969 175.925781 L 135.105469 175.925781 C 134.753906 175.925781 134.40625 175.960938 134.0625 176.03125 C 133.714844 176.097656 133.382812 176.199219 133.058594 176.335938 C 132.734375 176.46875 132.425781 176.632812 132.132812 176.828125 C 131.839844 177.023438 131.570312 177.246094 131.324219 177.496094 C 131.074219 177.742188 130.851562 178.011719 130.65625 178.304688 C 130.460938 178.597656 130.296875 178.90625 130.164062 179.230469 C 130.03125 179.554688 129.929688 179.890625 129.859375 180.234375 C 129.789062 180.582031 129.757812 180.929688 129.757812 181.28125 C 129.757812 181.632812 129.789062 181.980469 129.859375 182.324219 C 129.929688 182.667969 130.03125 183.003906 130.164062 183.328125 C 130.296875 183.652344 130.460938 183.960938 130.65625 184.253906 C 130.851562 184.546875 131.074219 184.816406 131.324219 185.066406 C 131.570312 185.3125 131.839844 185.535156 132.132812 185.730469 C 132.425781 185.925781 132.734375 186.089844 133.058594 186.226562 C 133.382812 186.359375 133.714844 186.460938 134.0625 186.53125 C 134.40625 186.597656 134.753906 186.632812 135.105469 186.632812 L 240.417969 186.632812 C 240.769531 186.632812 241.117188 186.597656 241.464844 186.53125 C 241.808594 186.460938 242.140625 186.359375 242.464844 186.226562 C 242.789062 186.089844 243.097656 185.925781 243.390625 185.730469 C 243.683594 185.535156 243.953125 185.3125 244.199219 185.066406 C 244.449219 184.816406 244.671875 184.546875 244.867188 184.253906 C 245.0625 183.960938 245.226562 183.652344 245.359375 183.328125 C 245.496094 183.003906 245.597656 182.667969 245.664062 182.324219 C 245.734375 181.980469 245.765625 181.632812 245.765625 181.28125 C 245.765625 180.929688 245.734375 180.582031 245.664062 180.234375 C 245.597656 179.890625 245.496094 179.554688 245.359375 179.230469 C 245.226562 178.90625 245.0625 178.597656 244.867188 178.304688 C 244.671875 178.011719 244.449219 177.742188 244.199219 177.496094 C 243.953125 177.246094 243.683594 177.023438 243.390625 176.828125 C 243.097656 176.632812 242.789062 176.46875 242.464844 176.335938 C 242.140625 176.199219 241.808594 176.097656 241.464844 176.03125 C 241.117188 175.960938 240.769531 175.925781 240.417969 175.925781 Z M 240.417969 175.925781"/><path fill="#000" fill-opacity="1" fill-rule="nonzero" d="M 215.9375 210.144531 L 159.589844 210.144531 C 159.238281 210.144531 158.890625 210.179688 158.546875 210.246094 C 158.203125 210.316406 157.867188 210.417969 157.542969 210.550781 C 157.21875 210.683594 156.910156 210.851562 156.621094 211.046875 C 156.328125 211.242188 156.058594 211.460938 155.808594 211.710938 C 155.5625 211.960938 155.339844 212.230469 155.144531 212.523438 C 154.949219 212.816406 154.785156 213.125 154.648438 213.449219 C 154.515625 213.773438 154.414062 214.109375 154.347656 214.453125 C 154.277344 214.796875 154.242188 215.144531 154.242188 215.496094 C 154.242188 215.847656 154.277344 216.195312 154.347656 216.539062 C 154.414062 216.886719 154.515625 217.21875 154.648438 217.546875 C 154.785156 217.871094 154.949219 218.179688 155.144531 218.46875 C 155.339844 218.761719 155.5625 219.03125 155.808594 219.28125 C 156.058594 219.53125 156.328125 219.753906 156.621094 219.949219 C 156.910156 220.144531 157.21875 220.308594 157.542969 220.441406 C 157.867188 220.578125 158.203125 220.679688 158.546875 220.746094 C 158.890625 220.816406 159.238281 220.847656 159.589844 220.847656 L 215.9375 220.847656 C 216.289062 220.847656 216.636719 220.816406 216.980469 220.746094 C 217.324219 220.679688 217.660156 220.578125 217.984375 220.441406 C 218.308594 220.308594 218.617188 220.144531 218.910156 219.949219 C 219.203125 219.753906 219.472656 219.53125 219.71875 219.28125 C 219.96875 219.03125 220.191406 218.761719 220.386719 218.46875 C 220.578125 218.179688 220.746094 217.871094 220.878906 217.546875 C 221.011719 217.21875 221.113281 216.886719 221.183594 216.539062 C 221.25 216.195312 221.285156 215.847656 221.285156 215.496094 C 221.285156 215.144531 221.25 214.796875 221.183594 214.453125 C 221.113281 214.109375 221.011719 213.773438 220.878906 213.449219 C 220.746094 213.125 220.578125 212.816406 220.386719 212.523438 C 220.191406 212.230469 219.96875 211.960938 219.71875 211.710938 C 219.472656 211.460938 219.203125 211.242188 218.910156 211.046875 C 218.617188 210.851562 218.308594 210.683594 217.984375 210.550781 C 217.660156 210.417969 217.324219 210.316406 216.980469 210.246094 C 216.636719 210.179688 216.289062 210.144531 215.9375 210.144531 Z M 215.9375 210.144531"/></svg>