<svg xmlns="http://www.w3.org/2000/svg" xmlns:xlink="http://www.w3.org/1999/xlink" width="500" height="500" preserveAspectRatio="xMidYMid meet" version="1.0" viewBox="0 0 375 375" zoomAndPan="magnify"><defs><clipPath id="609f75318a"><path d="M 21.105469 12.988281 L 345.855469 12.988281 L 345.855469 358.738281 L 21.105469 358.738281 Z M 21.105469 12.988281" clip-rule="nonzero"/></clipPath></defs><g clip-path="url(#609f75318a)"><path fill="#000" fill-opacity="1" fill-rule="nonzero" d="M 321.851562 279.515625 L 321.851562 208.746094 C 321.851562 198.449219 310.761719 189.207031 289.738281 181.925781 L 289.738281 121.277344 C 289.738281 112.042969 279.621094 104.082031 260.433594 98.15625 L 260.433594 67.550781 C 260.433594 64.199219 258.636719 61.121094 255.742188 59.523438 C 255.074219 59.152344 254.386719 58.824219 253.683594 58.53125 C 258.8125 54.882812 262.210938 47.984375 262.210938 41.78125 C 262.210938 35.582031 257.183594 12.988281 246.015625 12.988281 C 234.847656 12.988281 229.824219 35.878906 229.824219 41.789062 C 229.824219 47.699219 233.21875 54.875 238.339844 58.523438 C 237.675781 58.804688 237.019531 59.113281 236.371094 59.472656 C 233.425781 61.082031 231.597656 64.179688 231.597656 67.542969 L 231.597656 91.898438 C 221.0625 90.34375 209.792969 89.339844 197.996094 88.882812 L 197.996094 67.558594 C 197.996094 64.207031 196.199219 61.128906 193.304688 59.53125 C 192.636719 59.160156 191.945312 58.828125 191.246094 58.539062 C 196.371094 54.886719 199.773438 47.992188 199.773438 41.789062 C 199.773438 35.585938 194.75 12.988281 183.578125 12.988281 C 172.402344 12.988281 167.386719 35.878906 167.386719 41.789062 C 167.386719 47.699219 170.78125 54.875 175.898438 58.523438 C 175.230469 58.804688 174.574219 59.121094 173.933594 59.472656 C 170.988281 61.082031 169.15625 64.179688 169.15625 67.542969 L 169.15625 88.882812 C 157.359375 89.34375 146.089844 90.351562 135.558594 91.898438 L 135.558594 67.550781 C 135.558594 64.199219 133.757812 61.121094 130.863281 59.523438 C 130.195312 59.152344 129.507812 58.824219 128.808594 58.53125 C 133.933594 54.882812 137.335938 47.984375 137.335938 41.78125 C 137.335938 35.582031 132.3125 12.988281 121.136719 12.988281 C 109.964844 12.988281 104.949219 35.878906 104.949219 41.789062 C 104.949219 47.699219 108.339844 54.875 113.460938 58.523438 C 112.800781 58.804688 112.144531 59.113281 111.496094 59.472656 C 108.550781 61.082031 106.71875 64.179688 106.71875 67.542969 L 106.71875 98.15625 C 87.539062 104.082031 77.414062 112.042969 77.414062 121.277344 L 77.414062 182.1875 C 56.640625 189.328125 46.109375 198.257812 46.109375 208.746094 L 46.109375 278.996094 C 25.652344 289.203125 21.25 299.875 21.25 307.152344 C 21.25 322.039062 38.292969 335.015625 70.535156 344.675781 C 100.761719 353.738281 140.871094 358.722656 183.480469 358.722656 C 226.085938 358.722656 266.195312 353.738281 296.421875 344.675781 C 328.667969 335.015625 345.707031 322.039062 345.707031 307.152344 C 345.707031 296.894531 337.671875 287.605469 321.851562 279.519531 Z M 54.539062 259.492188 C 61.074219 260.84375 65 265.335938 69.425781 270.417969 C 75.234375 277.09375 81.820312 284.65625 94.875 284.65625 C 107.933594 284.65625 114.519531 277.09375 120.328125 270.417969 C 125.628906 264.324219 130.203125 259.0625 139.425781 259.0625 C 148.644531 259.0625 153.21875 264.324219 158.523438 270.417969 C 164.335938 277.09375 170.921875 284.65625 183.972656 284.65625 C 197.023438 284.65625 203.613281 277.09375 209.421875 270.417969 C 214.722656 264.324219 219.300781 259.070312 228.519531 259.070312 C 237.742188 259.070312 242.320312 264.332031 247.625 270.421875 C 253.4375 277.097656 260.023438 284.664062 273.082031 284.664062 C 286.136719 284.664062 292.722656 277.097656 298.539062 270.421875 C 302.964844 265.335938 306.890625 260.851562 313.421875 259.5 L 313.421875 297.21875 C 313.421875 300.816406 312.121094 304.308594 309.847656 306.796875 C 286.546875 332.320312 214.121094 334.683594 183.953125 334.519531 C 153.886719 334.683594 81.410156 332.320312 58.101562 306.796875 C 55.832031 304.308594 54.527344 300.816406 54.527344 297.21875 L 54.527344 259.5 Z M 54.539062 250.925781 L 54.539062 223.582031 C 75.265625 240.542969 130.941406 249.542969 183.984375 249.542969 C 237.027344 249.542969 292.699219 240.535156 313.429688 223.582031 L 313.429688 250.925781 C 303.105469 252.355469 297.335938 258.960938 292.191406 264.875 C 286.890625 270.96875 282.316406 276.226562 273.085938 276.226562 C 263.859375 276.226562 259.285156 270.96875 253.984375 264.875 C 248.167969 258.199219 241.582031 250.636719 228.527344 250.636719 C 215.46875 250.636719 208.882812 258.199219 203.074219 264.875 C 197.773438 270.96875 193.199219 276.226562 183.980469 276.226562 C 174.757812 276.226562 170.183594 270.96875 164.882812 264.875 C 159.066406 258.199219 152.488281 250.636719 139.429688 250.636719 C 126.375 250.636719 119.789062 258.199219 113.980469 264.875 C 108.679688 270.96875 104.105469 276.226562 94.882812 276.226562 C 85.660156 276.226562 81.085938 270.96875 75.785156 264.875 C 70.640625 258.960938 64.871094 252.363281 54.546875 250.925781 Z M 85.84375 165.90625 C 89.296875 167.449219 91.820312 170.992188 95.109375 175.953125 C 99.453125 182.492188 104.855469 190.628906 115.609375 190.628906 C 126.363281 190.628906 131.765625 182.492188 136.109375 175.953125 C 140.597656 169.183594 143.65625 165.042969 149.585938 165.042969 C 155.515625 165.042969 158.574219 169.191406 163.070312 175.953125 C 167.410156 182.492188 172.816406 190.628906 183.570312 190.628906 C 194.320312 190.628906 199.726562 182.492188 204.070312 175.953125 C 208.558594 169.183594 211.617188 165.042969 217.554688 165.042969 C 223.492188 165.042969 226.546875 169.191406 231.039062 175.953125 C 235.378906 182.492188 240.785156 190.628906 251.535156 190.628906 C 262.289062 190.628906 267.695312 182.492188 272.035156 175.953125 C 275.332031 170.992188 277.855469 167.445312 281.308594 165.90625 L 281.308594 200.550781 C 281.308594 210.675781 244.125 224.808594 183.578125 224.808594 C 123.027344 224.808594 85.84375 210.683594 85.84375 200.550781 Z M 85.84375 157.074219 L 85.84375 134.816406 C 91.386719 138.875 99.605469 142.460938 110.359375 145.46875 C 129.976562 150.941406 155.976562 153.960938 183.578125 153.960938 C 211.175781 153.960938 237.183594 150.949219 256.792969 145.46875 C 267.546875 142.46875 275.765625 138.875 281.308594 134.816406 L 281.308594 157.074219 C 273.28125 158.871094 268.753906 165.660156 265.019531 171.28125 C 260.53125 178.050781 257.472656 182.191406 251.535156 182.191406 C 245.597656 182.191406 242.542969 178.042969 238.050781 171.28125 C 233.710938 164.742188 228.304688 156.605469 217.554688 156.605469 C 206.800781 156.605469 201.394531 164.742188 197.054688 171.28125 C 192.5625 178.050781 189.507812 182.191406 183.578125 182.191406 C 177.644531 182.191406 174.589844 178.042969 170.09375 171.28125 C 165.75 164.742188 160.34375 156.605469 149.59375 156.605469 C 138.839844 156.605469 133.433594 164.742188 129.09375 171.28125 C 124.601562 178.050781 121.546875 182.191406 115.617188 182.191406 C 109.683594 182.191406 106.628906 178.042969 102.136719 171.28125 C 98.40625 165.660156 93.878906 158.871094 85.851562 157.074219 Z M 238.246094 41.789062 C 238.246094 35.261719 243.132812 22.535156 246.015625 21.441406 C 248.894531 22.535156 253.78125 35.261719 253.78125 41.789062 C 253.78125 44.605469 252.28125 48.113281 250.226562 50.375 L 250.226562 46.023438 C 250.226562 43.691406 248.335938 41.808594 246.015625 41.808594 C 243.691406 41.808594 241.804688 43.699219 241.804688 46.023438 L 241.804688 50.375 C 239.746094 48.113281 238.246094 44.605469 238.246094 41.789062 Z M 252.003906 67.550781 L 252.003906 121.453125 C 252.003906 121.730469 251.847656 121.984375 251.589844 122.132812 C 249.773438 123.179688 247.824219 123.707031 245.820312 123.660156 C 243.925781 123.628906 242.109375 123.117188 240.414062 122.128906 C 240.167969 121.984375 240.019531 121.730469 240.019531 121.453125 L 240.019531 67.539062 C 240.019531 67.253906 240.167969 67 240.414062 66.863281 C 242.03125 65.980469 243.757812 65.492188 245.546875 65.421875 C 245.613281 65.421875 245.671875 65.421875 245.734375 65.421875 C 245.921875 65.433594 246.113281 65.433594 246.292969 65.421875 C 248.15625 65.464844 249.960938 65.964844 251.671875 66.914062 C 251.875 67.023438 252.003906 67.277344 252.003906 67.550781 Z M 175.808594 41.789062 C 175.808594 35.261719 180.695312 22.535156 183.578125 21.441406 C 186.457031 22.535156 191.34375 35.261719 191.34375 41.789062 C 191.34375 44.613281 189.84375 48.113281 187.789062 50.375 L 187.789062 46.023438 C 187.789062 43.691406 185.898438 41.808594 183.578125 41.808594 C 181.253906 41.808594 179.363281 43.699219 179.363281 46.023438 L 179.363281 50.375 C 177.308594 48.113281 175.808594 44.605469 175.808594 41.789062 Z M 189.570312 67.550781 L 189.570312 121.453125 C 189.570312 121.730469 189.417969 121.984375 189.15625 122.132812 C 187.339844 123.179688 185.40625 123.707031 183.386719 123.660156 C 181.492188 123.628906 179.675781 123.117188 177.984375 122.128906 C 177.734375 121.984375 177.585938 121.730469 177.585938 121.453125 L 177.585938 67.539062 C 177.585938 67.253906 177.734375 67 177.984375 66.863281 C 179.597656 65.980469 181.324219 65.492188 183.117188 65.421875 C 183.179688 65.421875 183.238281 65.421875 183.304688 65.421875 C 183.484375 65.433594 183.671875 65.433594 183.863281 65.421875 C 185.722656 65.464844 187.527344 65.964844 189.242188 66.914062 C 189.441406 67.023438 189.578125 67.277344 189.578125 67.550781 Z M 113.371094 41.789062 C 113.371094 35.261719 118.257812 22.535156 121.136719 21.441406 C 124.019531 22.535156 128.90625 35.261719 128.90625 41.789062 C 128.90625 44.605469 127.40625 48.113281 125.347656 50.375 L 125.347656 46.023438 C 125.347656 43.691406 123.460938 41.808594 121.136719 41.808594 C 118.816406 41.808594 116.925781 43.699219 116.925781 46.023438 L 116.925781 50.375 C 114.871094 48.113281 113.371094 44.605469 113.371094 41.789062 Z M 127.132812 67.550781 L 127.132812 121.453125 C 127.132812 121.730469 126.976562 121.984375 126.71875 122.132812 C 124.902344 123.179688 122.980469 123.707031 120.949219 123.660156 C 119.054688 123.628906 117.238281 123.117188 115.542969 122.128906 C 115.296875 121.984375 115.148438 121.730469 115.148438 121.453125 L 115.148438 67.539062 C 115.148438 67.257812 115.296875 67 115.542969 66.863281 C 117.160156 65.980469 118.886719 65.492188 120.675781 65.421875 C 120.742188 65.421875 120.800781 65.421875 120.867188 65.421875 C 121.046875 65.433594 121.242188 65.433594 121.421875 65.421875 C 123.285156 65.464844 125.089844 65.964844 126.804688 66.914062 C 127.003906 67.023438 127.132812 67.277344 127.132812 67.550781 Z M 106.71875 107.027344 L 106.71875 121.453125 C 106.71875 124.71875 108.476562 127.773438 111.308594 129.421875 C 114.214844 131.117188 117.496094 132.039062 120.800781 132.097656 C 120.910156 132.097656 121.015625 132.097656 121.125 132.097656 C 124.53125 132.097656 127.914062 131.179688 130.929688 129.441406 C 133.785156 127.792969 135.558594 124.730469 135.558594 121.453125 L 135.558594 100.429688 C 146.050781 98.832031 157.316406 97.789062 169.15625 97.320312 L 169.15625 121.460938 C 169.15625 124.726562 170.914062 127.777344 173.746094 129.425781 C 176.660156 131.121094 179.9375 132.042969 183.238281 132.101562 C 183.347656 132.101562 183.453125 132.101562 183.5625 132.101562 C 186.96875 132.101562 190.351562 131.1875 193.367188 129.445312 C 196.222656 127.796875 197.996094 124.738281 197.996094 121.460938 L 197.996094 97.328125 C 209.835938 97.800781 221.101562 98.847656 231.597656 100.4375 L 231.597656 121.464844 C 231.597656 124.730469 233.355469 127.785156 236.183594 129.433594 C 239.089844 131.128906 242.375 132.050781 245.675781 132.109375 C 245.789062 132.109375 245.890625 132.109375 246 132.109375 C 249.410156 132.109375 252.789062 131.195312 255.808594 129.453125 C 258.660156 127.804688 260.433594 124.746094 260.433594 121.464844 L 260.433594 107.042969 C 270.992188 110.621094 281.308594 115.945312 281.308594 121.289062 C 281.308594 131.414062 244.125 145.546875 183.578125 145.546875 C 123.027344 145.546875 85.84375 131.421875 85.84375 121.289062 C 85.84375 115.945312 96.167969 110.621094 106.71875 107.042969 Z M 77.414062 191.140625 L 77.414062 200.558594 C 77.414062 210.363281 88.800781 218.734375 110.351562 224.75 C 129.96875 230.222656 155.972656 233.242188 183.570312 233.242188 C 211.167969 233.242188 237.175781 230.222656 256.785156 224.75 C 278.335938 218.730469 289.726562 210.363281 289.726562 200.558594 L 289.726562 190.886719 C 307.070312 197.34375 313.417969 204.214844 313.417969 208.753906 C 313.417969 217.554688 294.800781 225.78125 277.371094 230.554688 C 252.476562 237.367188 219.304688 241.121094 183.972656 241.121094 C 148.640625 241.121094 115.464844 237.367188 90.574219 230.554688 C 73.152344 225.789062 54.527344 217.554688 54.527344 208.753906 C 54.527344 205.871094 56.894531 198.699219 77.402344 191.140625 Z M 294 336.597656 C 264.542969 345.429688 225.289062 350.289062 183.480469 350.289062 C 141.667969 350.289062 102.417969 345.425781 72.957031 336.597656 C 45.859375 328.480469 29.679688 317.472656 29.679688 307.152344 C 29.679688 301.011719 35.476562 294.515625 46.117188 288.542969 L 46.117188 297.210938 C 46.117188 302.972656 48.167969 308.394531 51.898438 312.480469 C 76.558594 339.488281 145.269531 343.152344 183.964844 342.941406 C 184.972656 342.941406 185.996094 342.949219 187.042969 342.949219 C 226.253906 342.949219 292.0625 338.78125 316.078125 312.480469 C 319.800781 308.394531 321.851562 302.976562 321.851562 297.210938 L 321.851562 289.121094 C 331.847656 294.933594 337.277344 301.21875 337.277344 307.152344 C 337.277344 317.472656 321.101562 328.480469 294 336.597656 Z M 294 336.597656"/></g></svg>