<svg xmlns="http://www.w3.org/2000/svg" xmlns:xlink="http://www.w3.org/1999/xlink" width="500" zoomAndPan="magnify" viewBox="0 0 375 374.999991" height="500" preserveAspectRatio="xMidYMid meet" version="1.0"><defs><clipPath id="d513212fb4"><path d="M 27.386719 93 L 282 93 L 282 347.636719 L 27.386719 347.636719 Z M 27.386719 93 " clip-rule="nonzero"/></clipPath><clipPath id="1483253b4c"><path d="M 93 27.386719 L 347.636719 27.386719 L 347.636719 282 L 93 282 Z M 93 27.386719 " clip-rule="nonzero"/></clipPath><clipPath id="23e71bd35a"><path d="M 33 204 L 210 204 L 210 347.636719 L 33 347.636719 Z M 33 204 " clip-rule="nonzero"/></clipPath></defs><g clip-path="url(#d513212fb4)"><path fill="#000000" d="M 255.191406 347.636719 L 53.746094 347.636719 C 52.882812 347.632812 52.019531 347.589844 51.164062 347.503906 C 50.304688 347.417969 49.449219 347.292969 48.605469 347.121094 C 47.757812 346.953125 46.921875 346.742188 46.097656 346.492188 C 45.269531 346.242188 44.460938 345.949219 43.664062 345.621094 C 42.867188 345.289062 42.085938 344.917969 41.324219 344.511719 C 40.566406 344.105469 39.824219 343.660156 39.109375 343.183594 C 38.390625 342.703125 37.699219 342.1875 37.03125 341.640625 C 36.363281 341.09375 35.726562 340.515625 35.117188 339.90625 C 34.503906 339.292969 33.925781 338.65625 33.378906 337.988281 C 32.832031 337.320312 32.316406 336.628906 31.835938 335.910156 C 31.359375 335.195312 30.914062 334.457031 30.507812 333.695312 C 30.101562 332.933594 29.730469 332.15625 29.402344 331.355469 C 29.070312 330.558594 28.777344 329.75 28.527344 328.921875 C 28.277344 328.097656 28.066406 327.261719 27.898438 326.414062 C 27.726562 325.570312 27.601562 324.714844 27.515625 323.859375 C 27.429688 323 27.386719 322.136719 27.386719 321.273438 L 27.386719 119.828125 C 27.386719 118.964844 27.429688 118.101562 27.515625 117.242188 C 27.601562 116.386719 27.726562 115.53125 27.898438 114.6875 C 28.066406 113.839844 28.277344 113.003906 28.527344 112.179688 C 28.777344 111.351562 29.070312 110.542969 29.402344 109.746094 C 29.730469 108.949219 30.101562 108.167969 30.507812 107.40625 C 30.914062 106.644531 31.359375 105.90625 31.835938 105.191406 C 32.316406 104.472656 32.832031 103.78125 33.378906 103.113281 C 33.925781 102.445312 34.503906 101.808594 35.117188 101.195312 C 35.726562 100.585938 36.363281 100.007812 37.03125 99.460938 C 37.699219 98.914062 38.390625 98.398438 39.109375 97.917969 C 39.824219 97.441406 40.566406 96.996094 41.324219 96.589844 C 42.085938 96.183594 42.867188 95.8125 43.664062 95.480469 C 44.460938 95.152344 45.269531 94.859375 46.097656 94.609375 C 46.921875 94.359375 47.757812 94.148438 48.605469 93.980469 C 49.449219 93.808594 50.304688 93.683594 51.164062 93.597656 C 52.019531 93.511719 52.882812 93.46875 53.746094 93.464844 L 255.191406 93.464844 C 256.054688 93.46875 256.917969 93.511719 257.777344 93.597656 C 258.632812 93.683594 259.488281 93.808594 260.332031 93.980469 C 261.179688 94.148438 262.015625 94.359375 262.839844 94.609375 C 263.667969 94.859375 264.476562 95.152344 265.273438 95.480469 C 266.074219 95.8125 266.851562 96.183594 267.613281 96.589844 C 268.375 96.996094 269.113281 97.441406 269.828125 97.917969 C 270.546875 98.398438 271.238281 98.914062 271.90625 99.460938 C 272.574219 100.007812 273.210938 100.585938 273.824219 101.195312 C 274.433594 101.808594 275.011719 102.445312 275.558594 103.113281 C 276.105469 103.78125 276.621094 104.472656 277.101562 105.191406 C 277.578125 105.90625 278.023438 106.644531 278.429688 107.40625 C 278.835938 108.167969 279.207031 108.949219 279.539062 109.746094 C 279.867188 110.542969 280.160156 111.351562 280.410156 112.179688 C 280.660156 113.003906 280.871094 113.839844 281.039062 114.6875 C 281.210938 115.53125 281.335938 116.386719 281.421875 117.242188 C 281.507812 118.101562 281.550781 118.964844 281.554688 119.828125 L 281.554688 321.273438 C 281.550781 322.136719 281.507812 323 281.421875 323.859375 C 281.335938 324.714844 281.210938 325.570312 281.039062 326.414062 C 280.871094 327.261719 280.660156 328.097656 280.410156 328.921875 C 280.160156 329.75 279.867188 330.558594 279.539062 331.355469 C 279.207031 332.152344 278.835938 332.933594 278.429688 333.695312 C 278.023438 334.457031 277.578125 335.195312 277.101562 335.910156 C 276.621094 336.628906 276.105469 337.320312 275.558594 337.988281 C 275.011719 338.65625 274.433594 339.292969 273.824219 339.90625 C 273.210938 340.515625 272.574219 341.09375 271.90625 341.640625 C 271.238281 342.1875 270.546875 342.703125 269.828125 343.183594 C 269.113281 343.660156 268.375 344.105469 267.613281 344.511719 C 266.851562 344.917969 266.074219 345.289062 265.273438 345.621094 C 264.476562 345.949219 263.667969 346.242188 262.839844 346.492188 C 262.015625 346.742188 261.179688 346.953125 260.332031 347.121094 C 259.488281 347.292969 258.632812 347.417969 257.777344 347.503906 C 256.917969 347.589844 256.054688 347.632812 255.191406 347.636719 Z M 53.746094 104.230469 C 52.722656 104.234375 51.707031 104.332031 50.703125 104.535156 C 49.699219 104.734375 48.726562 105.03125 47.78125 105.425781 C 46.835938 105.816406 45.9375 106.296875 45.085938 106.867188 C 44.234375 107.433594 43.445312 108.082031 42.722656 108.804688 C 42 109.527344 41.351562 110.316406 40.785156 111.167969 C 40.214844 112.019531 39.734375 112.917969 39.34375 113.863281 C 38.949219 114.808594 38.652344 115.78125 38.453125 116.785156 C 38.25 117.789062 38.152344 118.804688 38.148438 119.828125 L 38.148438 321.273438 C 38.152344 322.296875 38.25 323.3125 38.453125 324.316406 C 38.652344 325.320312 38.949219 326.292969 39.34375 327.238281 C 39.734375 328.183594 40.214844 329.082031 40.785156 329.933594 C 41.351562 330.785156 42 331.574219 42.722656 332.296875 C 43.445312 333.019531 44.234375 333.667969 45.085938 334.234375 C 45.9375 334.804688 46.835938 335.285156 47.78125 335.675781 C 48.726562 336.070312 49.699219 336.367188 50.703125 336.566406 C 51.707031 336.769531 52.722656 336.867188 53.746094 336.871094 L 255.191406 336.871094 C 256.214844 336.867188 257.230469 336.769531 258.234375 336.566406 C 259.238281 336.367188 260.210938 336.070312 261.15625 335.675781 C 262.101562 335.285156 263 334.804688 263.851562 334.234375 C 264.703125 333.667969 265.492188 333.019531 266.214844 332.296875 C 266.9375 331.574219 267.585938 330.785156 268.152344 329.933594 C 268.722656 329.082031 269.203125 328.183594 269.597656 327.238281 C 269.988281 326.292969 270.285156 325.320312 270.484375 324.316406 C 270.6875 323.3125 270.785156 322.296875 270.789062 321.273438 L 270.789062 119.828125 C 270.785156 118.804688 270.6875 117.789062 270.484375 116.785156 C 270.285156 115.78125 269.988281 114.808594 269.597656 113.863281 C 269.203125 112.917969 268.722656 112.019531 268.152344 111.167969 C 267.585938 110.316406 266.9375 109.527344 266.214844 108.804688 C 265.492188 108.082031 264.703125 107.433594 263.851562 106.867188 C 263 106.296875 262.101562 105.816406 261.15625 105.425781 C 260.210938 105.03125 259.238281 104.734375 258.234375 104.535156 C 257.230469 104.332031 256.214844 104.234375 255.191406 104.230469 Z M 53.746094 104.230469 " fill-opacity="1" fill-rule="nonzero"/></g><path fill="#000000" d="M 285.476562 314.585938 L 276.171875 314.585938 C 275.816406 314.585938 275.46875 314.554688 275.121094 314.484375 C 274.773438 314.414062 274.4375 314.3125 274.109375 314.175781 C 273.785156 314.042969 273.472656 313.875 273.179688 313.679688 C 272.886719 313.484375 272.613281 313.261719 272.363281 313.011719 C 272.113281 312.761719 271.890625 312.488281 271.695312 312.195312 C 271.5 311.902344 271.332031 311.589844 271.199219 311.265625 C 271.0625 310.9375 270.960938 310.601562 270.890625 310.253906 C 270.824219 309.910156 270.789062 309.558594 270.789062 309.203125 C 270.789062 308.851562 270.824219 308.5 270.890625 308.15625 C 270.960938 307.808594 271.0625 307.472656 271.199219 307.144531 C 271.332031 306.820312 271.5 306.507812 271.695312 306.214844 C 271.890625 305.921875 272.113281 305.648438 272.363281 305.398438 C 272.613281 305.148438 272.886719 304.925781 273.179688 304.730469 C 273.472656 304.535156 273.785156 304.367188 274.109375 304.230469 C 274.4375 304.097656 274.773438 303.996094 275.121094 303.925781 C 275.46875 303.855469 275.816406 303.824219 276.171875 303.824219 L 285.476562 303.824219 C 286.078125 303.820312 286.675781 303.792969 287.273438 303.730469 C 287.871094 303.671875 288.464844 303.585938 289.054688 303.464844 C 289.644531 303.347656 290.226562 303.203125 290.800781 303.027344 C 291.375 302.851562 291.941406 302.652344 292.496094 302.421875 C 293.050781 302.191406 293.59375 301.933594 294.125 301.648438 C 294.65625 301.367188 295.167969 301.058594 295.667969 300.722656 C 296.167969 300.390625 296.652344 300.03125 297.117188 299.652344 C 297.582031 299.269531 298.023438 298.867188 298.449219 298.441406 C 298.875 298.015625 299.277344 297.570312 299.660156 297.105469 C 300.042969 296.644531 300.398438 296.160156 300.734375 295.660156 C 301.066406 295.160156 301.375 294.648438 301.660156 294.117188 C 301.945312 293.585938 302.199219 293.042969 302.429688 292.488281 C 302.660156 291.933594 302.863281 291.371094 303.039062 290.792969 C 303.214844 290.21875 303.359375 289.636719 303.480469 289.046875 C 303.597656 288.460938 303.683594 287.867188 303.746094 287.265625 C 303.804688 286.667969 303.835938 286.070312 303.835938 285.46875 L 303.835938 89.542969 C 303.835938 88.941406 303.804688 88.34375 303.746094 87.746094 C 303.6875 87.148438 303.597656 86.554688 303.480469 85.964844 C 303.363281 85.375 303.214844 84.792969 303.039062 84.21875 C 302.867188 83.640625 302.664062 83.078125 302.433594 82.519531 C 302.203125 81.964844 301.945312 81.421875 301.660156 80.894531 C 301.378906 80.363281 301.070312 79.847656 300.734375 79.347656 C 300.402344 78.847656 300.042969 78.367188 299.664062 77.902344 C 299.28125 77.4375 298.878906 76.992188 298.453125 76.566406 C 298.027344 76.140625 297.582031 75.738281 297.117188 75.359375 C 296.652344 74.976562 296.171875 74.617188 295.671875 74.285156 C 295.171875 73.949219 294.65625 73.640625 294.125 73.359375 C 293.597656 73.074219 293.054688 72.816406 292.5 72.585938 C 291.941406 72.355469 291.378906 72.152344 290.804688 71.980469 C 290.226562 71.804688 289.644531 71.65625 289.054688 71.539062 C 288.464844 71.421875 287.871094 71.332031 287.273438 71.273438 C 286.675781 71.214844 286.078125 71.183594 285.476562 71.183594 L 89.550781 71.183594 C 88.949219 71.183594 88.351562 71.214844 87.753906 71.273438 C 87.15625 71.335938 86.5625 71.421875 85.972656 71.542969 C 85.382812 71.660156 84.800781 71.804688 84.226562 71.980469 C 83.648438 72.15625 83.085938 72.359375 82.53125 72.589844 C 81.976562 72.820312 81.433594 73.078125 80.902344 73.359375 C 80.371094 73.644531 79.859375 73.953125 79.359375 74.285156 C 78.859375 74.621094 78.375 74.980469 77.914062 75.359375 C 77.449219 75.742188 77.003906 76.144531 76.578125 76.570312 C 76.152344 76.996094 75.75 77.441406 75.371094 77.902344 C 74.988281 78.367188 74.628906 78.851562 74.296875 79.351562 C 73.960938 79.851562 73.652344 80.363281 73.371094 80.894531 C 73.085938 81.425781 72.828125 81.96875 72.597656 82.523438 C 72.371094 83.078125 72.167969 83.644531 71.992188 84.21875 C 71.816406 84.792969 71.671875 85.375 71.554688 85.964844 C 71.433594 86.554688 71.347656 87.148438 71.289062 87.746094 C 71.226562 88.34375 71.199219 88.941406 71.195312 89.542969 L 71.195312 98.847656 C 71.195312 99.203125 71.164062 99.550781 71.09375 99.898438 C 71.023438 100.246094 70.921875 100.582031 70.789062 100.910156 C 70.652344 101.234375 70.488281 101.546875 70.289062 101.839844 C 70.09375 102.132812 69.871094 102.40625 69.621094 102.65625 C 69.371094 102.90625 69.097656 103.128906 68.804688 103.324219 C 68.511719 103.519531 68.199219 103.6875 67.875 103.820312 C 67.546875 103.957031 67.210938 104.058594 66.863281 104.128906 C 66.519531 104.195312 66.167969 104.230469 65.816406 104.230469 C 65.460938 104.230469 65.113281 104.195312 64.765625 104.128906 C 64.417969 104.058594 64.082031 103.957031 63.753906 103.820312 C 63.429688 103.6875 63.117188 103.519531 62.824219 103.324219 C 62.53125 103.128906 62.257812 102.90625 62.007812 102.65625 C 61.757812 102.40625 61.535156 102.132812 61.339844 101.839844 C 61.144531 101.546875 60.976562 101.234375 60.84375 100.910156 C 60.707031 100.582031 60.605469 100.246094 60.535156 99.898438 C 60.46875 99.550781 60.433594 99.203125 60.433594 98.847656 L 60.433594 89.542969 C 60.433594 88.589844 60.480469 87.640625 60.574219 86.691406 C 60.667969 85.742188 60.808594 84.800781 60.996094 83.863281 C 61.183594 82.929688 61.414062 82.007812 61.691406 81.09375 C 61.96875 80.179688 62.289062 79.285156 62.65625 78.40625 C 63.019531 77.523438 63.429688 76.664062 63.878906 75.820312 C 64.328125 74.980469 64.816406 74.164062 65.347656 73.371094 C 65.878906 72.578125 66.445312 71.8125 67.050781 71.078125 C 67.65625 70.339844 68.292969 69.632812 68.96875 68.960938 C 69.644531 68.285156 70.347656 67.644531 71.085938 67.039062 C 71.820312 66.4375 72.585938 65.867188 73.378906 65.339844 C 74.171875 64.808594 74.988281 64.316406 75.828125 63.867188 C 76.671875 63.417969 77.53125 63.011719 78.410156 62.644531 C 79.292969 62.28125 80.1875 61.957031 81.101562 61.679688 C 82.011719 61.402344 82.9375 61.171875 83.871094 60.984375 C 84.808594 60.796875 85.75 60.65625 86.699219 60.5625 C 87.644531 60.46875 88.597656 60.421875 89.550781 60.417969 L 285.476562 60.417969 C 286.429688 60.421875 287.378906 60.46875 288.328125 60.5625 C 289.277344 60.65625 290.21875 60.796875 291.15625 60.984375 C 292.089844 61.171875 293.015625 61.402344 293.925781 61.679688 C 294.839844 61.957031 295.734375 62.28125 296.617188 62.644531 C 297.496094 63.011719 298.359375 63.417969 299.199219 63.867188 C 300.039062 64.316406 300.855469 64.808594 301.648438 65.339844 C 302.441406 65.867188 303.207031 66.433594 303.941406 67.039062 C 304.679688 67.644531 305.386719 68.285156 306.058594 68.960938 C 306.734375 69.632812 307.375 70.339844 307.980469 71.078125 C 308.585938 71.8125 309.152344 72.578125 309.683594 73.371094 C 310.210938 74.164062 310.703125 74.980469 311.152344 75.820312 C 311.601562 76.664062 312.007812 77.523438 312.375 78.402344 C 312.738281 79.285156 313.0625 80.179688 313.339844 81.09375 C 313.617188 82.003906 313.847656 82.929688 314.035156 83.863281 C 314.222656 84.800781 314.363281 85.742188 314.457031 86.691406 C 314.550781 87.640625 314.597656 88.589844 314.601562 89.542969 L 314.601562 285.46875 C 314.597656 286.421875 314.550781 287.375 314.457031 288.320312 C 314.363281 289.269531 314.222656 290.214844 314.035156 291.148438 C 313.847656 292.082031 313.617188 293.007812 313.339844 293.917969 C 313.0625 294.832031 312.738281 295.726562 312.375 296.609375 C 312.007812 297.488281 311.601562 298.351562 311.152344 299.191406 C 310.703125 300.03125 310.210938 300.847656 309.679688 301.640625 C 309.152344 302.433594 308.582031 303.199219 307.980469 303.933594 C 307.375 304.671875 306.734375 305.378906 306.058594 306.050781 C 305.386719 306.726562 304.679688 307.363281 303.941406 307.96875 C 303.207031 308.574219 302.441406 309.140625 301.648438 309.671875 C 300.855469 310.203125 300.039062 310.691406 299.199219 311.140625 C 298.355469 311.589844 297.496094 312 296.617188 312.363281 C 295.734375 312.730469 294.839844 313.050781 293.925781 313.328125 C 293.011719 313.605469 292.089844 313.835938 291.15625 314.023438 C 290.21875 314.210938 289.277344 314.351562 288.328125 314.445312 C 287.378906 314.539062 286.429688 314.585938 285.476562 314.585938 Z M 285.476562 314.585938 " fill-opacity="1" fill-rule="nonzero"/><g clip-path="url(#1483253b4c)"><path fill="#000000" d="M 318.507812 281.554688 L 309.21875 281.554688 C 308.863281 281.554688 308.515625 281.519531 308.167969 281.449219 C 307.820312 281.378906 307.484375 281.277344 307.160156 281.144531 C 306.832031 281.007812 306.523438 280.84375 306.226562 280.644531 C 305.933594 280.449219 305.664062 280.226562 305.414062 279.976562 C 305.164062 279.726562 304.9375 279.453125 304.742188 279.160156 C 304.546875 278.867188 304.382812 278.558594 304.246094 278.230469 C 304.109375 277.902344 304.007812 277.566406 303.9375 277.222656 C 303.871094 276.875 303.835938 276.523438 303.835938 276.171875 C 303.835938 275.816406 303.871094 275.46875 303.9375 275.121094 C 304.007812 274.773438 304.109375 274.4375 304.246094 274.109375 C 304.382812 273.785156 304.546875 273.472656 304.742188 273.179688 C 304.9375 272.886719 305.164062 272.613281 305.414062 272.363281 C 305.664062 272.113281 305.933594 271.890625 306.226562 271.695312 C 306.523438 271.5 306.832031 271.332031 307.160156 271.199219 C 307.484375 271.0625 307.820312 270.960938 308.167969 270.890625 C 308.515625 270.824219 308.863281 270.789062 309.21875 270.789062 L 318.507812 270.789062 C 319.109375 270.789062 319.710938 270.757812 320.308594 270.699219 C 320.90625 270.636719 321.5 270.550781 322.089844 270.433594 C 322.679688 270.3125 323.261719 270.167969 323.835938 269.992188 C 324.414062 269.816406 324.976562 269.617188 325.53125 269.386719 C 326.089844 269.15625 326.628906 268.898438 327.160156 268.613281 C 327.691406 268.332031 328.207031 268.023438 328.707031 267.6875 C 329.207031 267.355469 329.6875 266.996094 330.152344 266.613281 C 330.617188 266.234375 331.0625 265.828125 331.488281 265.40625 C 331.910156 264.980469 332.316406 264.535156 332.695312 264.070312 C 333.078125 263.605469 333.433594 263.125 333.769531 262.625 C 334.105469 262.125 334.414062 261.609375 334.695312 261.078125 C 334.980469 260.550781 335.238281 260.007812 335.46875 259.449219 C 335.699219 258.894531 335.898438 258.332031 336.074219 257.753906 C 336.25 257.179688 336.394531 256.597656 336.515625 256.007812 C 336.632812 255.417969 336.71875 254.824219 336.78125 254.226562 C 336.839844 253.628906 336.871094 253.027344 336.871094 252.429688 L 336.871094 56.511719 C 336.871094 55.910156 336.839844 55.308594 336.78125 54.710938 C 336.71875 54.113281 336.632812 53.519531 336.515625 52.929688 C 336.394531 52.339844 336.25 51.757812 336.074219 51.183594 C 335.898438 50.609375 335.699219 50.042969 335.46875 49.488281 C 335.238281 48.933594 334.980469 48.390625 334.695312 47.859375 C 334.414062 47.328125 334.105469 46.8125 333.769531 46.3125 C 333.433594 45.816406 333.078125 45.332031 332.695312 44.867188 C 332.316406 44.402344 331.910156 43.957031 331.488281 43.53125 C 331.0625 43.109375 330.617188 42.703125 330.152344 42.324219 C 329.6875 41.941406 329.207031 41.585938 328.707031 41.25 C 328.207031 40.914062 327.691406 40.605469 327.160156 40.324219 C 326.628906 40.039062 326.089844 39.78125 325.53125 39.550781 C 324.976562 39.320312 324.414062 39.121094 323.835938 38.945312 C 323.261719 38.769531 322.679688 38.625 322.089844 38.503906 C 321.5 38.386719 320.90625 38.300781 320.308594 38.238281 C 319.710938 38.179688 319.109375 38.148438 318.507812 38.148438 L 122.59375 38.148438 C 121.992188 38.148438 121.390625 38.179688 120.792969 38.238281 C 120.195312 38.300781 119.601562 38.386719 119.011719 38.503906 C 118.421875 38.625 117.839844 38.769531 117.265625 38.945312 C 116.6875 39.121094 116.125 39.320312 115.570312 39.550781 C 115.011719 39.78125 114.472656 40.039062 113.941406 40.324219 C 113.410156 40.605469 112.894531 40.914062 112.394531 41.25 C 111.894531 41.585938 111.414062 41.941406 110.949219 42.324219 C 110.484375 42.703125 110.039062 43.109375 109.613281 43.53125 C 109.191406 43.957031 108.785156 44.402344 108.40625 44.867188 C 108.023438 45.332031 107.667969 45.816406 107.332031 46.3125 C 106.996094 46.8125 106.6875 47.328125 106.40625 47.859375 C 106.121094 48.390625 105.863281 48.933594 105.632812 49.488281 C 105.402344 50.042969 105.203125 50.609375 105.027344 51.183594 C 104.851562 51.757812 104.707031 52.339844 104.585938 52.929688 C 104.46875 53.519531 104.382812 54.113281 104.320312 54.710938 C 104.261719 55.308594 104.230469 55.910156 104.230469 56.511719 L 104.230469 65.800781 C 104.230469 66.15625 104.195312 66.503906 104.128906 66.851562 C 104.058594 67.199219 103.957031 67.535156 103.820312 67.859375 C 103.6875 68.1875 103.519531 68.496094 103.324219 68.792969 C 103.128906 69.085938 102.90625 69.359375 102.65625 69.605469 C 102.40625 69.855469 102.132812 70.082031 101.839844 70.277344 C 101.546875 70.472656 101.234375 70.640625 100.910156 70.773438 C 100.582031 70.910156 100.246094 71.011719 99.898438 71.082031 C 99.550781 71.148438 99.203125 71.183594 98.847656 71.183594 C 98.496094 71.183594 98.144531 71.148438 97.800781 71.082031 C 97.453125 71.011719 97.117188 70.910156 96.789062 70.773438 C 96.460938 70.640625 96.152344 70.472656 95.859375 70.277344 C 95.566406 70.082031 95.292969 69.855469 95.042969 69.605469 C 94.792969 69.359375 94.570312 69.085938 94.375 68.792969 C 94.175781 68.496094 94.011719 68.1875 93.875 67.859375 C 93.742188 67.535156 93.640625 67.199219 93.570312 66.851562 C 93.5 66.503906 93.464844 66.15625 93.464844 65.800781 L 93.464844 56.511719 C 93.46875 55.554688 93.515625 54.605469 93.609375 53.65625 C 93.703125 52.707031 93.84375 51.765625 94.03125 50.832031 C 94.21875 49.894531 94.449219 48.972656 94.726562 48.058594 C 95.003906 47.148438 95.328125 46.25 95.691406 45.371094 C 96.058594 44.488281 96.464844 43.628906 96.914062 42.789062 C 97.367188 41.945312 97.855469 41.128906 98.386719 40.335938 C 98.914062 39.542969 99.484375 38.78125 100.089844 38.042969 C 100.691406 37.304688 101.332031 36.601562 102.007812 35.925781 C 102.679688 35.25 103.386719 34.613281 104.125 34.007812 C 104.859375 33.402344 105.625 32.832031 106.417969 32.304688 C 107.210938 31.773438 108.027344 31.285156 108.867188 30.832031 C 109.710938 30.382812 110.570312 29.976562 111.453125 29.609375 C 112.332031 29.246094 113.230469 28.925781 114.140625 28.648438 C 115.054688 28.367188 115.976562 28.136719 116.914062 27.949219 C 117.847656 27.761719 118.789062 27.621094 119.738281 27.527344 C 120.6875 27.433594 121.636719 27.386719 122.59375 27.386719 L 318.507812 27.386719 C 319.464844 27.386719 320.414062 27.433594 321.363281 27.527344 C 322.3125 27.621094 323.253906 27.761719 324.1875 27.949219 C 325.125 28.136719 326.046875 28.367188 326.960938 28.648438 C 327.871094 28.925781 328.769531 29.246094 329.648438 29.609375 C 330.53125 29.976562 331.390625 30.382812 332.234375 30.832031 C 333.074219 31.285156 333.890625 31.773438 334.683594 32.304688 C 335.476562 32.832031 336.242188 33.402344 336.976562 34.007812 C 337.714844 34.613281 338.421875 35.25 339.09375 35.925781 C 339.769531 36.601562 340.410156 37.304688 341.011719 38.042969 C 341.617188 38.78125 342.1875 39.542969 342.714844 40.335938 C 343.246094 41.128906 343.734375 41.945312 344.1875 42.789062 C 344.636719 43.628906 345.042969 44.488281 345.410156 45.371094 C 345.773438 46.25 346.097656 47.148438 346.375 48.058594 C 346.652344 48.972656 346.882812 49.894531 347.070312 50.832031 C 347.257812 51.765625 347.398438 52.707031 347.492188 53.65625 C 347.585938 54.605469 347.632812 55.554688 347.636719 56.511719 L 347.636719 252.429688 C 347.632812 253.382812 347.585938 254.332031 347.492188 255.28125 C 347.398438 256.230469 347.257812 257.171875 347.070312 258.109375 C 346.882812 259.042969 346.652344 259.964844 346.375 260.878906 C 346.097656 261.789062 345.773438 262.6875 345.410156 263.570312 C 345.042969 264.449219 344.636719 265.308594 344.1875 266.152344 C 343.734375 266.992188 343.246094 267.808594 342.714844 268.601562 C 342.1875 269.394531 341.617188 270.160156 341.011719 270.894531 C 340.410156 271.632812 339.769531 272.339844 339.09375 273.011719 C 338.421875 273.6875 337.714844 274.328125 336.976562 274.933594 C 336.242188 275.535156 335.476562 276.105469 334.683594 276.632812 C 333.890625 277.164062 333.074219 277.652344 332.234375 278.105469 C 331.390625 278.554688 330.53125 278.960938 329.648438 279.328125 C 328.769531 279.691406 327.871094 280.015625 326.960938 280.292969 C 326.046875 280.570312 325.125 280.800781 324.1875 280.988281 C 323.253906 281.175781 322.3125 281.316406 321.363281 281.410156 C 320.414062 281.503906 319.464844 281.550781 318.507812 281.554688 Z M 318.507812 281.554688 " fill-opacity="1" fill-rule="nonzero"/></g><g clip-path="url(#23e71bd35a)"><path fill="#000000" d="M 203.851562 347.636719 C 202.890625 347.636719 201.992188 347.398438 201.15625 346.914062 C 200.320312 346.433594 199.664062 345.777344 199.183594 344.945312 L 127.011719 219.9375 C 126.601562 219.214844 126.101562 218.558594 125.515625 217.96875 C 124.933594 217.378906 124.28125 216.875 123.5625 216.457031 C 122.84375 216.039062 122.082031 215.722656 121.277344 215.507812 C 120.476562 215.289062 119.660156 215.179688 118.828125 215.179688 C 117.996094 215.179688 117.179688 215.289062 116.375 215.507812 C 115.574219 215.722656 114.8125 216.039062 114.09375 216.457031 C 113.375 216.875 112.722656 217.378906 112.136719 217.96875 C 111.554688 218.558594 111.054688 219.214844 110.644531 219.9375 L 43.210938 336.734375 C 43.03125 337.042969 42.828125 337.328125 42.59375 337.59375 C 42.359375 337.859375 42.105469 338.097656 41.824219 338.3125 C 41.542969 338.527344 41.246094 338.714844 40.929688 338.871094 C 40.609375 339.027344 40.28125 339.152344 39.941406 339.242188 C 39.597656 339.332031 39.253906 339.390625 38.898438 339.414062 C 38.546875 339.4375 38.195312 339.425781 37.84375 339.378906 C 37.496094 339.332031 37.152344 339.253906 36.816406 339.140625 C 36.484375 339.027344 36.164062 338.882812 35.855469 338.703125 C 35.550781 338.527344 35.265625 338.324219 35 338.089844 C 34.734375 337.855469 34.492188 337.601562 34.277344 337.320312 C 34.0625 337.039062 33.875 336.742188 33.71875 336.425781 C 33.5625 336.109375 33.441406 335.777344 33.347656 335.4375 C 33.257812 335.097656 33.199219 334.75 33.175781 334.398438 C 33.152344 334.042969 33.164062 333.691406 33.210938 333.34375 C 33.257812 332.992188 33.335938 332.648438 33.449219 332.316406 C 33.5625 331.980469 33.707031 331.660156 33.882812 331.351562 L 101.324219 214.554688 C 102.203125 213.015625 103.269531 211.617188 104.519531 210.359375 C 105.773438 209.101562 107.167969 208.027344 108.703125 207.140625 C 110.242188 206.253906 111.867188 205.582031 113.582031 205.128906 C 115.296875 204.675781 117.042969 204.453125 118.816406 204.464844 C 120.59375 204.453125 122.335938 204.675781 124.050781 205.128906 C 125.769531 205.582031 127.394531 206.253906 128.929688 207.140625 C 130.46875 208.027344 131.863281 209.097656 133.113281 210.355469 C 134.367188 211.613281 135.429688 213.015625 136.308594 214.554688 L 208.507812 339.5625 C 208.683594 339.867188 208.828125 340.1875 208.945312 340.523438 C 209.058594 340.855469 209.136719 341.199219 209.183594 341.550781 C 209.230469 341.902344 209.242188 342.253906 209.21875 342.605469 C 209.195312 342.957031 209.136719 343.304688 209.046875 343.648438 C 208.953125 343.988281 208.828125 344.316406 208.671875 344.632812 C 208.515625 344.953125 208.332031 345.25 208.117188 345.53125 C 207.902344 345.8125 207.660156 346.066406 207.394531 346.300781 C 207.128906 346.535156 206.84375 346.738281 206.535156 346.914062 C 205.707031 347.398438 204.8125 347.636719 203.851562 347.636719 Z M 203.851562 347.636719 " fill-opacity="1" fill-rule="nonzero"/></g><path fill="#000000" d="M 263.746094 344.78125 C 262.78125 344.785156 261.882812 344.542969 261.046875 344.0625 C 260.214844 343.582031 259.554688 342.925781 259.074219 342.089844 L 198.273438 236.8125 C 197.863281 236.089844 197.363281 235.433594 196.78125 234.84375 C 196.195312 234.253906 195.542969 233.75 194.824219 233.332031 C 194.105469 232.914062 193.34375 232.597656 192.542969 232.378906 C 191.738281 232.164062 190.921875 232.054688 190.089844 232.054688 C 189.257812 232.054688 188.441406 232.164062 187.640625 232.378906 C 186.835938 232.597656 186.074219 232.914062 185.355469 233.332031 C 184.636719 233.75 183.984375 234.253906 183.402344 234.84375 C 182.816406 235.433594 182.316406 236.089844 181.90625 236.8125 L 163.980469 267.863281 C 163.804688 268.167969 163.601562 268.453125 163.367188 268.71875 C 163.132812 268.984375 162.878906 269.226562 162.597656 269.441406 C 162.316406 269.65625 162.019531 269.84375 161.703125 270 C 161.382812 270.15625 161.054688 270.277344 160.714844 270.371094 C 160.371094 270.460938 160.023438 270.519531 159.671875 270.542969 C 159.320312 270.566406 158.96875 270.554688 158.617188 270.507812 C 158.265625 270.460938 157.925781 270.382812 157.589844 270.269531 C 157.253906 270.15625 156.933594 270.007812 156.628906 269.832031 C 156.324219 269.65625 156.035156 269.453125 155.769531 269.21875 C 155.503906 268.984375 155.265625 268.730469 155.050781 268.449219 C 154.835938 268.167969 154.648438 267.867188 154.492188 267.550781 C 154.335938 267.234375 154.210938 266.90625 154.121094 266.5625 C 154.027344 266.222656 153.972656 265.875 153.949219 265.523438 C 153.925781 265.171875 153.9375 264.820312 153.980469 264.46875 C 154.027344 264.117188 154.109375 263.773438 154.222656 263.441406 C 154.335938 263.105469 154.480469 262.785156 154.65625 262.480469 L 172.585938 231.429688 C 173.472656 229.894531 174.542969 228.496094 175.792969 227.242188 C 177.046875 225.984375 178.441406 224.914062 179.976562 224.027344 C 181.511719 223.136719 183.136719 222.464844 184.851562 222.003906 C 186.5625 221.546875 188.304688 221.316406 190.078125 221.316406 C 191.855469 221.316406 193.597656 221.546875 195.308594 222.003906 C 197.023438 222.464844 198.648438 223.136719 200.183594 224.027344 C 201.71875 224.914062 203.113281 225.984375 204.367188 227.242188 C 205.617188 228.496094 206.6875 229.894531 207.574219 231.429688 L 268.351562 336.707031 C 268.46875 336.914062 268.574219 337.121094 268.664062 337.339844 C 268.753906 337.558594 268.828125 337.777344 268.890625 338.007812 C 268.953125 338.234375 268.996094 338.464844 269.027344 338.695312 C 269.058594 338.929688 269.074219 339.164062 269.074219 339.398438 C 269.074219 339.632812 269.058594 339.867188 269.027344 340.101562 C 268.996094 340.332031 268.953125 340.5625 268.890625 340.789062 C 268.832031 341.019531 268.753906 341.238281 268.664062 341.457031 C 268.574219 341.675781 268.472656 341.886719 268.355469 342.089844 C 268.238281 342.292969 268.105469 342.488281 267.964844 342.675781 C 267.820312 342.859375 267.664062 343.035156 267.5 343.203125 C 267.332031 343.371094 267.15625 343.523438 266.972656 343.667969 C 266.785156 343.8125 266.589844 343.941406 266.386719 344.058594 C 266.183594 344.175781 265.972656 344.28125 265.753906 344.371094 C 265.539062 344.460938 265.316406 344.535156 265.089844 344.597656 C 264.863281 344.660156 264.632812 344.703125 264.398438 344.734375 C 264.167969 344.765625 263.933594 344.78125 263.695312 344.78125 Z M 263.746094 344.78125 " fill-opacity="1" fill-rule="nonzero"/><path fill="#000000" d="M 159.339844 194.0625 C 158.347656 194.0625 157.359375 194.015625 156.371094 193.917969 C 155.386719 193.820312 154.40625 193.675781 153.433594 193.480469 C 152.460938 193.289062 151.5 193.046875 150.550781 192.757812 C 149.601562 192.472656 148.671875 192.136719 147.753906 191.757812 C 146.835938 191.378906 145.941406 190.957031 145.066406 190.488281 C 144.195312 190.019531 143.34375 189.511719 142.519531 188.960938 C 141.695312 188.410156 140.898438 187.820312 140.132812 187.191406 C 139.367188 186.5625 138.632812 185.898438 137.933594 185.195312 C 137.230469 184.496094 136.566406 183.761719 135.9375 182.992188 C 135.308594 182.226562 134.71875 181.433594 134.167969 180.609375 C 133.617188 179.78125 133.105469 178.933594 132.640625 178.058594 C 132.171875 177.183594 131.75 176.289062 131.367188 175.375 C 130.988281 174.457031 130.65625 173.523438 130.367188 172.574219 C 130.082031 171.625 129.839844 170.667969 129.644531 169.695312 C 129.453125 168.722656 129.308594 167.742188 129.210938 166.753906 C 129.113281 165.769531 129.0625 164.777344 129.0625 163.789062 C 129.0625 162.796875 129.113281 161.804688 129.210938 160.820312 C 129.308594 159.832031 129.453125 158.851562 129.644531 157.878906 C 129.839844 156.90625 130.082031 155.949219 130.367188 155 C 130.65625 154.050781 130.988281 153.117188 131.367188 152.199219 C 131.75 151.285156 132.171875 150.390625 132.640625 149.515625 C 133.105469 148.640625 133.617188 147.792969 134.167969 146.96875 C 134.71875 146.140625 135.308594 145.347656 135.9375 144.582031 C 136.566406 143.8125 137.230469 143.082031 137.933594 142.378906 C 138.632812 141.679688 139.367188 141.011719 140.132812 140.382812 C 140.898438 139.753906 141.695312 139.164062 142.519531 138.613281 C 143.34375 138.0625 144.195312 137.554688 145.066406 137.085938 C 145.941406 136.617188 146.835938 136.195312 147.753906 135.816406 C 148.671875 135.4375 149.601562 135.101562 150.550781 134.816406 C 151.5 134.527344 152.460938 134.285156 153.433594 134.09375 C 154.40625 133.898438 155.386719 133.753906 156.371094 133.65625 C 157.359375 133.558594 158.347656 133.511719 159.339844 133.511719 C 160.332031 133.511719 161.320312 133.558594 162.308594 133.65625 C 163.292969 133.753906 164.273438 133.898438 165.246094 134.09375 C 166.21875 134.285156 167.179688 134.527344 168.128906 134.816406 C 169.078125 135.101562 170.011719 135.4375 170.925781 135.816406 C 171.84375 136.195312 172.738281 136.617188 173.613281 137.085938 C 174.488281 137.554688 175.335938 138.0625 176.160156 138.613281 C 176.984375 139.164062 177.78125 139.753906 178.546875 140.382812 C 179.3125 141.011719 180.046875 141.679688 180.75 142.378906 C 181.449219 143.082031 182.113281 143.8125 182.742188 144.582031 C 183.371094 145.347656 183.960938 146.140625 184.511719 146.96875 C 185.0625 147.792969 185.574219 148.640625 186.039062 149.515625 C 186.507812 150.390625 186.929688 151.285156 187.3125 152.199219 C 187.691406 153.117188 188.023438 154.050781 188.3125 155 C 188.601562 155.949219 188.839844 156.90625 189.035156 157.878906 C 189.226562 158.851562 189.371094 159.832031 189.46875 160.820312 C 189.566406 161.804688 189.617188 162.796875 189.617188 163.789062 C 189.613281 164.777344 189.5625 165.765625 189.464844 166.753906 C 189.367188 167.738281 189.21875 168.71875 189.023438 169.691406 C 188.832031 170.660156 188.589844 171.621094 188.300781 172.570312 C 188.011719 173.519531 187.675781 174.449219 187.296875 175.363281 C 186.917969 176.28125 186.492188 177.175781 186.023438 178.046875 C 185.558594 178.921875 185.046875 179.769531 184.496094 180.59375 C 183.945312 181.417969 183.355469 182.214844 182.726562 182.980469 C 182.097656 183.746094 181.433594 184.480469 180.734375 185.179688 C 180.03125 185.878906 179.296875 186.546875 178.53125 187.175781 C 177.765625 187.804688 176.972656 188.394531 176.148438 188.945312 C 175.324219 189.496094 174.476562 190.003906 173.601562 190.472656 C 172.726562 190.941406 171.832031 191.363281 170.917969 191.742188 C 170.003906 192.125 169.070312 192.457031 168.121094 192.746094 C 167.175781 193.035156 166.214844 193.277344 165.242188 193.472656 C 164.269531 193.667969 163.292969 193.8125 162.304688 193.914062 C 161.320312 194.011719 160.332031 194.0625 159.339844 194.0625 Z M 159.339844 144.242188 C 158.699219 144.242188 158.0625 144.273438 157.425781 144.335938 C 156.792969 144.398438 156.160156 144.492188 155.535156 144.617188 C 154.90625 144.742188 154.289062 144.898438 153.675781 145.082031 C 153.066406 145.269531 152.464844 145.484375 151.875 145.726562 C 151.28125 145.972656 150.707031 146.246094 150.140625 146.546875 C 149.578125 146.847656 149.03125 147.175781 148.5 147.53125 C 147.96875 147.886719 147.457031 148.265625 146.960938 148.671875 C 146.46875 149.078125 145.996094 149.503906 145.542969 149.957031 C 145.089844 150.410156 144.664062 150.882812 144.257812 151.375 C 143.851562 151.871094 143.472656 152.382812 143.117188 152.914062 C 142.761719 153.445312 142.433594 153.992188 142.132812 154.554688 C 141.832031 155.121094 141.558594 155.695312 141.3125 156.285156 C 141.070312 156.878906 140.855469 157.476562 140.667969 158.089844 C 140.484375 158.703125 140.328125 159.320312 140.203125 159.945312 C 140.078125 160.574219 139.984375 161.207031 139.921875 161.839844 C 139.859375 162.476562 139.828125 163.113281 139.828125 163.753906 C 139.828125 164.390625 139.859375 165.03125 139.921875 165.664062 C 139.984375 166.300781 140.078125 166.933594 140.203125 167.558594 C 140.328125 168.1875 140.484375 168.804688 140.667969 169.417969 C 140.855469 170.027344 141.070312 170.628906 141.3125 171.21875 C 141.558594 171.808594 141.832031 172.386719 142.132812 172.949219 C 142.433594 173.515625 142.761719 174.0625 143.117188 174.59375 C 143.472656 175.125 143.851562 175.636719 144.257812 176.132812 C 144.664062 176.625 145.089844 177.097656 145.542969 177.550781 C 145.996094 178 146.46875 178.429688 146.960938 178.835938 C 147.457031 179.242188 147.96875 179.621094 148.5 179.976562 C 149.03125 180.332031 149.578125 180.660156 150.140625 180.960938 C 150.707031 181.261719 151.28125 181.535156 151.875 181.78125 C 152.464844 182.023438 153.066406 182.238281 153.675781 182.425781 C 154.289062 182.609375 154.90625 182.765625 155.535156 182.890625 C 156.160156 183.015625 156.792969 183.109375 157.425781 183.171875 C 158.0625 183.234375 158.699219 183.265625 159.339844 183.265625 C 159.980469 183.265625 160.617188 183.234375 161.253906 183.171875 C 161.886719 183.109375 162.519531 183.015625 163.144531 182.890625 C 163.773438 182.765625 164.390625 182.609375 165.003906 182.425781 C 165.613281 182.238281 166.214844 182.023438 166.804688 181.78125 C 167.398438 181.535156 167.972656 181.261719 168.539062 180.960938 C 169.101562 180.660156 169.648438 180.332031 170.179688 179.976562 C 170.710938 179.621094 171.222656 179.242188 171.71875 178.835938 C 172.210938 178.429688 172.683594 178 173.136719 177.550781 C 173.589844 177.097656 174.015625 176.625 174.421875 176.132812 C 174.828125 175.636719 175.207031 175.125 175.5625 174.59375 C 175.917969 174.0625 176.246094 173.515625 176.546875 172.949219 C 176.847656 172.386719 177.121094 171.808594 177.367188 171.21875 C 177.609375 170.628906 177.824219 170.027344 178.011719 169.417969 C 178.195312 168.804688 178.351562 168.1875 178.476562 167.558594 C 178.601562 166.933594 178.695312 166.300781 178.757812 165.664062 C 178.820312 165.03125 178.851562 164.390625 178.851562 163.753906 C 178.851562 163.113281 178.816406 162.476562 178.753906 161.84375 C 178.691406 161.207031 178.59375 160.574219 178.46875 159.949219 C 178.34375 159.324219 178.1875 158.707031 178 158.09375 C 177.816406 157.484375 177.601562 156.882812 177.355469 156.292969 C 177.109375 155.703125 176.835938 155.128906 176.535156 154.5625 C 176.234375 154 175.90625 153.453125 175.550781 152.921875 C 175.195312 152.390625 174.816406 151.878906 174.410156 151.386719 C 174.003906 150.894531 173.578125 150.421875 173.125 149.96875 C 172.671875 149.515625 172.199219 149.089844 171.707031 148.683594 C 171.214844 148.277344 170.699219 147.898438 170.171875 147.542969 C 169.640625 147.1875 169.09375 146.859375 168.53125 146.558594 C 167.964844 146.257812 167.390625 145.984375 166.800781 145.738281 C 166.210938 145.492188 165.609375 145.277344 165 145.089844 C 164.386719 144.90625 163.769531 144.75 163.144531 144.625 C 162.515625 144.5 161.886719 144.402344 161.25 144.339844 C 160.617188 144.277344 159.980469 144.242188 159.339844 144.242188 Z M 159.339844 144.242188 " fill-opacity="1" fill-rule="nonzero"/></svg>