<svg xmlns="http://www.w3.org/2000/svg" xmlns:xlink="http://www.w3.org/1999/xlink" width="500" zoomAndPan="magnify" viewBox="0 0 375 374.999991" height="500" preserveAspectRatio="xMidYMid meet" version="1.0"><defs><clipPath id="0b226f5f49"><path d="M 75 27.46875 L 299.875 27.46875 L 299.875 347.71875 L 75 347.71875 Z M 75 27.46875 " clip-rule="nonzero"/></clipPath></defs><g clip-path="url(#0b226f5f49)"><path fill="#000000" d="M 299.277344 298.851562 C 299.324219 298.714844 299.363281 298.578125 299.394531 298.4375 C 299.394531 298.320312 299.453125 298.203125 299.453125 298.085938 L 299.453125 30.480469 C 299.453125 30.089844 299.378906 29.710938 299.230469 29.351562 C 299.078125 28.988281 298.867188 28.667969 298.589844 28.390625 C 298.3125 28.113281 297.992188 27.902344 297.632812 27.75 C 297.269531 27.601562 296.894531 27.527344 296.503906 27.527344 L 78.25 27.527344 C 77.859375 27.527344 77.484375 27.601562 77.121094 27.75 C 76.757812 27.902344 76.441406 28.113281 76.164062 28.390625 C 75.886719 28.667969 75.675781 28.988281 75.523438 29.351562 C 75.375 29.710938 75.300781 30.089844 75.300781 30.480469 L 75.300781 344.703125 C 75.300781 345.09375 75.375 345.472656 75.523438 345.835938 C 75.675781 346.195312 75.886719 346.515625 76.164062 346.792969 C 76.441406 347.070312 76.757812 347.28125 77.121094 347.433594 C 77.484375 347.582031 77.859375 347.65625 78.25 347.65625 L 250.023438 347.65625 C 250.414062 347.671875 250.789062 347.59375 251.140625 347.421875 C 251.519531 347.292969 251.832031 347.078125 252.085938 346.773438 L 298.570312 300.152344 C 298.945312 299.796875 299.183594 299.363281 299.277344 298.851562 Z M 293.554688 295.128906 L 250.023438 295.128906 C 249.628906 295.128906 249.253906 295.203125 248.894531 295.355469 C 248.53125 295.503906 248.210938 295.71875 247.9375 295.996094 C 247.660156 296.273438 247.445312 296.589844 247.296875 296.953125 C 247.148438 297.316406 247.074219 297.691406 247.074219 298.085938 L 247.074219 341.75 L 81.199219 341.75 L 81.199219 33.433594 L 293.554688 33.433594 Z M 293.554688 295.128906 " fill-opacity="1" fill-rule="nonzero"/></g><path fill="#000000" d="M 99.78125 113.082031 C 100.171875 113.082031 100.546875 113.007812 100.910156 112.859375 C 101.269531 112.707031 101.589844 112.496094 101.867188 112.21875 C 102.140625 111.941406 102.355469 111.621094 102.503906 111.261719 C 102.65625 110.898438 102.730469 110.519531 102.730469 110.128906 C 102.722656 108.21875 103.003906 106.351562 103.566406 104.527344 C 104.128906 102.707031 104.953125 101.007812 106.03125 99.433594 C 106.699219 98.441406 107.445312 97.515625 108.273438 96.65625 C 109.160156 95.769531 110.125 94.976562 111.167969 94.28125 C 112.210938 93.582031 113.3125 92.996094 114.46875 92.519531 C 115.628906 92.042969 116.824219 91.683594 118.054688 91.445312 C 119.285156 91.207031 120.527344 91.09375 121.78125 91.101562 L 128.390625 91.101562 C 129.941406 91.101562 131.46875 91.289062 132.976562 91.664062 C 134.484375 92.039062 135.921875 92.589844 137.292969 93.3125 C 138.667969 94.039062 139.933594 94.921875 141.089844 95.957031 C 142.246094 96.992188 143.265625 98.152344 144.140625 99.433594 C 145.21875 101.007812 146.042969 102.707031 146.605469 104.527344 C 147.167969 106.351562 147.449219 108.21875 147.441406 110.128906 C 147.441406 110.519531 147.515625 110.898438 147.667969 111.261719 C 147.816406 111.621094 148.03125 111.941406 148.304688 112.21875 C 148.582031 112.496094 148.902344 112.707031 149.261719 112.859375 C 149.625 113.007812 150 113.082031 150.390625 113.082031 C 150.78125 113.082031 151.160156 113.007812 151.519531 112.859375 C 151.882812 112.707031 152.199219 112.496094 152.476562 112.21875 C 152.753906 111.941406 152.964844 111.621094 153.117188 111.261719 C 153.265625 110.898438 153.339844 110.519531 153.339844 110.128906 C 153.339844 108.882812 153.246094 107.640625 153.058594 106.40625 C 152.875 105.171875 152.59375 103.957031 152.226562 102.765625 C 151.859375 101.574219 151.402344 100.417969 150.859375 99.292969 C 150.316406 98.167969 149.695312 97.089844 148.992188 96.0625 C 148.285156 95.03125 147.511719 94.058594 146.660156 93.148438 C 145.8125 92.234375 144.898438 91.390625 143.921875 90.613281 C 142.945312 89.835938 141.917969 89.140625 140.835938 88.519531 C 139.753906 87.898438 138.632812 87.359375 137.472656 86.910156 C 138.796875 85.945312 139.988281 84.84375 141.050781 83.601562 C 142.113281 82.355469 143.015625 81.003906 143.761719 79.546875 C 144.503906 78.085938 145.066406 76.5625 145.449219 74.972656 C 145.832031 73.378906 146.023438 71.765625 146.027344 70.128906 C 146.027344 69.441406 145.992188 68.753906 145.925781 68.070312 C 145.859375 67.386719 145.757812 66.710938 145.625 66.035156 C 145.492188 65.363281 145.324219 64.695312 145.125 64.039062 C 144.925781 63.382812 144.695312 62.734375 144.433594 62.101562 C 144.171875 61.464844 143.878906 60.84375 143.554688 60.238281 C 143.230469 59.632812 142.878906 59.046875 142.496094 58.472656 C 142.117188 57.902344 141.707031 57.351562 141.273438 56.820312 C 140.839844 56.289062 140.378906 55.78125 139.894531 55.296875 C 139.410156 54.808594 138.902344 54.347656 138.371094 53.914062 C 137.839844 53.476562 137.289062 53.070312 136.71875 52.6875 C 136.148438 52.304688 135.5625 51.953125 134.957031 51.628906 C 134.351562 51.304688 133.734375 51.011719 133.097656 50.75 C 132.464844 50.484375 131.820312 50.253906 131.164062 50.054688 C 130.507812 49.855469 129.84375 49.6875 129.171875 49.554688 C 128.5 49.421875 127.820312 49.320312 127.136719 49.253906 C 126.457031 49.1875 125.773438 49.152344 125.085938 49.152344 C 124.398438 49.152344 123.714844 49.1875 123.035156 49.253906 C 122.351562 49.320312 121.671875 49.421875 121 49.554688 C 120.328125 49.6875 119.664062 49.855469 119.007812 50.054688 C 118.351562 50.253906 117.707031 50.484375 117.074219 50.75 C 116.4375 51.011719 115.820312 51.304688 115.214844 51.628906 C 114.609375 51.953125 114.023438 52.304688 113.453125 52.6875 C 112.882812 53.070312 112.332031 53.476562 111.800781 53.914062 C 111.269531 54.347656 110.761719 54.808594 110.277344 55.296875 C 109.792969 55.78125 109.332031 56.289062 108.898438 56.820312 C 108.464844 57.351562 108.054688 57.902344 107.675781 58.472656 C 107.292969 59.046875 106.941406 59.632812 106.617188 60.238281 C 106.292969 60.84375 106 61.464844 105.738281 62.101562 C 105.476562 62.734375 105.246094 63.382812 105.046875 64.039062 C 104.847656 64.695312 104.679688 65.363281 104.546875 66.035156 C 104.414062 66.710938 104.3125 67.386719 104.246094 68.070312 C 104.179688 68.753906 104.144531 69.441406 104.144531 70.128906 C 104.144531 71.765625 104.332031 73.378906 104.714844 74.972656 C 105.097656 76.566406 105.660156 78.089844 106.402344 79.550781 C 107.148438 81.007812 108.050781 82.359375 109.113281 83.605469 C 110.179688 84.847656 111.375 85.949219 112.699219 86.910156 C 109.453125 88.175781 106.601562 90.046875 104.144531 92.523438 C 103.011719 93.613281 102.007812 94.816406 101.136719 96.125 C 99.726562 98.1875 98.65625 100.410156 97.921875 102.800781 C 97.1875 105.1875 96.824219 107.628906 96.832031 110.128906 C 96.832031 110.519531 96.90625 110.898438 97.054688 111.261719 C 97.203125 111.621094 97.417969 111.941406 97.695312 112.21875 C 97.972656 112.496094 98.289062 112.707031 98.652344 112.859375 C 99.011719 113.007812 99.390625 113.082031 99.78125 113.082031 Z M 110.042969 70.128906 C 110.042969 69.136719 110.140625 68.160156 110.332031 67.1875 C 110.527344 66.21875 110.8125 65.277344 111.1875 64.363281 C 111.566406 63.449219 112.03125 62.578125 112.578125 61.757812 C 113.128906 60.933594 113.75 60.171875 114.449219 59.472656 C 115.148438 58.773438 115.90625 58.148438 116.730469 57.601562 C 117.550781 57.050781 118.417969 56.585938 119.328125 56.207031 C 120.242188 55.828125 121.183594 55.542969 122.152344 55.351562 C 123.121094 55.15625 124.097656 55.0625 125.085938 55.0625 C 126.074219 55.0625 127.050781 55.15625 128.019531 55.351562 C 128.988281 55.542969 129.929688 55.828125 130.84375 56.207031 C 131.753906 56.585938 132.621094 57.050781 133.441406 57.601562 C 134.265625 58.148438 135.023438 58.773438 135.722656 59.472656 C 136.421875 60.171875 137.042969 60.933594 137.59375 61.757812 C 138.140625 62.578125 138.605469 63.449219 138.984375 64.363281 C 139.359375 65.277344 139.644531 66.21875 139.839844 67.1875 C 140.03125 68.160156 140.128906 69.136719 140.128906 70.128906 C 140.128906 71.117188 140.03125 72.097656 139.839844 73.066406 C 139.644531 74.039062 139.359375 74.980469 138.984375 75.894531 C 138.605469 76.808594 138.140625 77.675781 137.59375 78.5 C 137.042969 79.320312 136.421875 80.082031 135.722656 80.78125 C 135.023438 81.480469 134.265625 82.105469 133.441406 82.65625 C 132.621094 83.207031 131.753906 83.667969 130.84375 84.046875 C 129.929688 84.425781 128.988281 84.710938 128.019531 84.90625 C 127.050781 85.097656 126.074219 85.195312 125.085938 85.195312 C 124.097656 85.195312 123.121094 85.101562 122.152344 84.90625 C 121.179688 84.714844 120.242188 84.429688 119.328125 84.050781 C 118.414062 83.671875 117.546875 83.207031 116.726562 82.660156 C 115.90625 82.109375 115.144531 81.484375 114.445312 80.785156 C 113.746094 80.085938 113.125 79.324219 112.574219 78.5 C 112.027344 77.679688 111.5625 76.808594 111.1875 75.894531 C 110.808594 74.980469 110.523438 74.039062 110.332031 73.066406 C 110.140625 72.097656 110.042969 71.117188 110.042969 70.128906 Z M 110.042969 70.128906 " fill-opacity="1" fill-rule="nonzero"/><path fill="#000000" d="M 166.796875 72.917969 L 229.023438 72.917969 C 229.414062 72.917969 229.789062 72.839844 230.152344 72.691406 C 230.511719 72.542969 230.832031 72.328125 231.109375 72.050781 C 231.382812 71.773438 231.597656 71.453125 231.746094 71.09375 C 231.898438 70.730469 231.972656 70.355469 231.972656 69.960938 C 231.972656 69.570312 231.898438 69.195312 231.746094 68.832031 C 231.597656 68.46875 231.382812 68.148438 231.109375 67.875 C 230.832031 67.597656 230.511719 67.382812 230.152344 67.234375 C 229.789062 67.082031 229.414062 67.007812 229.023438 67.007812 L 166.796875 67.007812 C 166.40625 67.007812 166.027344 67.082031 165.667969 67.234375 C 165.304688 67.382812 164.988281 67.597656 164.710938 67.875 C 164.433594 68.148438 164.222656 68.46875 164.070312 68.832031 C 163.921875 69.195312 163.847656 69.570312 163.847656 69.960938 C 163.847656 70.355469 163.921875 70.730469 164.070312 71.09375 C 164.222656 71.453125 164.433594 71.773438 164.710938 72.050781 C 164.988281 72.328125 165.304688 72.542969 165.667969 72.691406 C 166.027344 72.839844 166.40625 72.917969 166.796875 72.917969 Z M 166.796875 72.917969 " fill-opacity="1" fill-rule="nonzero"/><path fill="#000000" d="M 166.796875 95.214844 L 212.742188 95.214844 C 213.132812 95.214844 213.507812 95.140625 213.871094 94.992188 C 214.230469 94.839844 214.550781 94.628906 214.828125 94.351562 C 215.105469 94.074219 215.316406 93.753906 215.464844 93.390625 C 215.617188 93.03125 215.691406 92.652344 215.691406 92.261719 C 215.691406 91.871094 215.617188 91.492188 215.464844 91.132812 C 215.316406 90.769531 215.105469 90.449219 214.828125 90.171875 C 214.550781 89.894531 214.230469 89.683594 213.871094 89.53125 C 213.507812 89.382812 213.132812 89.308594 212.742188 89.308594 L 166.796875 89.308594 C 166.40625 89.308594 166.027344 89.382812 165.667969 89.53125 C 165.304688 89.683594 164.988281 89.894531 164.710938 90.171875 C 164.433594 90.449219 164.222656 90.769531 164.070312 91.132812 C 163.921875 91.492188 163.847656 91.871094 163.847656 92.261719 C 163.847656 92.652344 163.921875 93.03125 164.070312 93.390625 C 164.222656 93.753906 164.433594 94.074219 164.710938 94.351562 C 164.988281 94.628906 165.304688 94.839844 165.667969 94.992188 C 166.027344 95.140625 166.40625 95.214844 166.796875 95.214844 Z M 166.796875 95.214844 " fill-opacity="1" fill-rule="nonzero"/><path fill="#000000" d="M 250.191406 94.566406 C 250.46875 94.84375 250.789062 95.054688 251.148438 95.207031 C 251.511719 95.355469 251.886719 95.429688 252.277344 95.429688 C 252.667969 95.429688 253.046875 95.355469 253.40625 95.207031 C 253.769531 95.054688 254.085938 94.84375 254.363281 94.566406 L 277.039062 71.835938 C 277.355469 71.570312 277.605469 71.253906 277.792969 70.882812 C 277.976562 70.511719 278.078125 70.121094 278.097656 69.707031 C 278.117188 69.296875 278.054688 68.894531 277.90625 68.507812 C 277.761719 68.121094 277.542969 67.78125 277.25 67.488281 C 276.960938 67.191406 276.625 66.96875 276.242188 66.816406 C 275.855469 66.664062 275.457031 66.597656 275.046875 66.609375 C 274.632812 66.625 274.242188 66.722656 273.867188 66.902344 C 273.496094 67.082031 273.175781 67.332031 272.910156 67.644531 L 252.261719 88.328125 L 245.074219 81.128906 C 244.796875 80.84375 244.480469 80.625 244.113281 80.46875 C 243.75 80.3125 243.371094 80.230469 242.976562 80.226562 C 242.582031 80.222656 242.199219 80.296875 241.835938 80.449219 C 241.46875 80.597656 241.144531 80.8125 240.867188 81.09375 C 240.585938 81.375 240.371094 81.695312 240.222656 82.0625 C 240.070312 82.429688 240 82.8125 240 83.207031 C 240.003906 83.605469 240.085938 83.984375 240.242188 84.347656 C 240.398438 84.710938 240.617188 85.03125 240.902344 85.308594 Z M 250.191406 94.566406 " fill-opacity="1" fill-rule="nonzero"/><path fill="#000000" d="M 99.78125 190.902344 C 100.171875 190.902344 100.546875 190.824219 100.910156 190.675781 C 101.269531 190.527344 101.589844 190.3125 101.867188 190.035156 C 102.140625 189.757812 102.355469 189.4375 102.503906 189.078125 C 102.65625 188.714844 102.730469 188.339844 102.730469 187.945312 C 102.722656 186.039062 103.003906 184.171875 103.566406 182.347656 C 104.128906 180.523438 104.953125 178.824219 106.03125 177.25 C 106.699219 176.257812 107.445312 175.332031 108.273438 174.476562 C 109.160156 173.585938 110.125 172.792969 111.167969 172.097656 C 112.210938 171.398438 113.3125 170.8125 114.46875 170.335938 C 115.628906 169.859375 116.824219 169.503906 118.054688 169.265625 C 119.285156 169.027344 120.527344 168.910156 121.78125 168.921875 L 128.390625 168.921875 C 129.941406 168.921875 131.46875 169.109375 132.976562 169.480469 C 134.484375 169.855469 135.921875 170.40625 137.292969 171.132812 C 138.667969 171.855469 139.933594 172.738281 141.089844 173.773438 C 142.246094 174.808594 143.265625 175.96875 144.140625 177.25 C 145.21875 178.824219 146.042969 180.523438 146.605469 182.347656 C 147.167969 184.171875 147.449219 186.039062 147.441406 187.945312 C 147.441406 188.339844 147.515625 188.714844 147.667969 189.078125 C 147.816406 189.4375 148.03125 189.757812 148.304688 190.035156 C 148.582031 190.3125 148.902344 190.527344 149.261719 190.675781 C 149.625 190.824219 150 190.902344 150.390625 190.902344 C 150.78125 190.902344 151.160156 190.824219 151.519531 190.675781 C 151.882812 190.527344 152.199219 190.3125 152.476562 190.035156 C 152.753906 189.757812 152.964844 189.4375 153.117188 189.078125 C 153.265625 188.714844 153.339844 188.339844 153.339844 187.945312 C 153.339844 186.699219 153.246094 185.457031 153.058594 184.222656 C 152.875 182.988281 152.59375 181.777344 152.226562 180.582031 C 151.859375 179.390625 151.402344 178.234375 150.859375 177.109375 C 150.316406 175.984375 149.695312 174.910156 148.992188 173.878906 C 148.285156 172.847656 147.511719 171.878906 146.660156 170.964844 C 145.8125 170.050781 144.898438 169.207031 143.921875 168.429688 C 142.945312 167.65625 141.917969 166.957031 140.835938 166.335938 C 139.753906 165.714844 138.632812 165.179688 137.472656 164.726562 C 138.796875 163.765625 139.988281 162.660156 141.050781 161.417969 C 142.113281 160.171875 143.015625 158.820312 143.761719 157.363281 C 144.503906 155.90625 145.066406 154.378906 145.449219 152.789062 C 145.832031 151.195312 146.023438 149.582031 146.027344 147.945312 C 146.027344 147.257812 145.992188 146.574219 145.925781 145.890625 C 145.859375 145.207031 145.757812 144.527344 145.625 143.851562 C 145.492188 143.179688 145.324219 142.511719 145.125 141.855469 C 144.925781 141.199219 144.695312 140.550781 144.433594 139.917969 C 144.171875 139.28125 143.878906 138.664062 143.554688 138.058594 C 143.230469 137.449219 142.878906 136.863281 142.496094 136.292969 C 142.117188 135.71875 141.707031 135.167969 141.273438 134.636719 C 140.839844 134.105469 140.378906 133.597656 139.894531 133.113281 C 139.410156 132.628906 138.902344 132.167969 138.371094 131.730469 C 137.839844 131.292969 137.289062 130.886719 136.71875 130.503906 C 136.148438 130.121094 135.5625 129.769531 134.957031 129.445312 C 134.351562 129.121094 133.734375 128.828125 133.097656 128.566406 C 132.464844 128.304688 131.820312 128.070312 131.164062 127.871094 C 130.507812 127.671875 129.84375 127.507812 129.171875 127.371094 C 128.5 127.238281 127.820312 127.136719 127.136719 127.070312 C 126.457031 127.003906 125.773438 126.96875 125.085938 126.96875 C 124.398438 126.96875 123.714844 127.003906 123.035156 127.070312 C 122.351562 127.136719 121.671875 127.238281 121 127.371094 C 120.328125 127.507812 119.664062 127.671875 119.007812 127.871094 C 118.351562 128.070312 117.707031 128.304688 117.074219 128.566406 C 116.4375 128.828125 115.820312 129.121094 115.214844 129.445312 C 114.609375 129.769531 114.023438 130.121094 113.453125 130.503906 C 112.882812 130.886719 112.332031 131.292969 111.800781 131.730469 C 111.269531 132.167969 110.761719 132.628906 110.277344 133.113281 C 109.792969 133.597656 109.332031 134.105469 108.898438 134.636719 C 108.464844 135.167969 108.054688 135.71875 107.675781 136.292969 C 107.292969 136.863281 106.941406 137.449219 106.617188 138.058594 C 106.292969 138.664062 106 139.28125 105.738281 139.917969 C 105.476562 140.550781 105.246094 141.199219 105.046875 141.855469 C 104.847656 142.511719 104.679688 143.179688 104.546875 143.851562 C 104.414062 144.527344 104.3125 145.207031 104.246094 145.890625 C 104.179688 146.574219 104.144531 147.257812 104.144531 147.945312 C 104.144531 149.582031 104.332031 151.199219 104.714844 152.789062 C 105.097656 154.382812 105.660156 155.910156 106.402344 157.367188 C 107.148438 158.828125 108.050781 160.175781 109.113281 161.421875 C 110.179688 162.664062 111.375 163.765625 112.699219 164.726562 C 109.453125 165.992188 106.601562 167.863281 104.144531 170.339844 C 103.011719 171.429688 102.007812 172.632812 101.136719 173.941406 C 99.726562 176.003906 98.65625 178.230469 97.921875 180.617188 C 97.1875 183.003906 96.824219 185.449219 96.832031 187.945312 C 96.832031 188.339844 96.90625 188.714844 97.054688 189.078125 C 97.203125 189.4375 97.417969 189.757812 97.695312 190.035156 C 97.972656 190.3125 98.289062 190.527344 98.652344 190.675781 C 99.011719 190.824219 99.390625 190.902344 99.78125 190.902344 Z M 110.042969 147.945312 C 110.042969 146.957031 110.140625 145.976562 110.332031 145.003906 C 110.527344 144.035156 110.8125 143.09375 111.1875 142.179688 C 111.566406 141.265625 112.03125 140.398438 112.578125 139.574219 C 113.128906 138.75 113.75 137.992188 114.449219 137.289062 C 115.148438 136.589844 115.90625 135.964844 116.730469 135.417969 C 117.550781 134.867188 118.417969 134.402344 119.328125 134.023438 C 120.242188 133.644531 121.183594 133.359375 122.152344 133.167969 C 123.121094 132.972656 124.097656 132.878906 125.085938 132.878906 C 126.074219 132.878906 127.050781 132.972656 128.019531 133.167969 C 128.988281 133.359375 129.929688 133.644531 130.84375 134.023438 C 131.753906 134.402344 132.621094 134.867188 133.441406 135.417969 C 134.265625 135.964844 135.023438 136.589844 135.722656 137.289062 C 136.421875 137.992188 137.042969 138.75 137.59375 139.574219 C 138.140625 140.398438 138.605469 141.265625 138.984375 142.179688 C 139.359375 143.09375 139.644531 144.035156 139.839844 145.003906 C 140.03125 145.976562 140.128906 146.957031 140.128906 147.945312 C 140.128906 148.933594 140.03125 149.914062 139.839844 150.882812 C 139.644531 151.855469 139.359375 152.796875 138.984375 153.710938 C 138.605469 154.625 138.140625 155.492188 137.59375 156.316406 C 137.042969 157.136719 136.421875 157.898438 135.722656 158.597656 C 135.023438 159.296875 134.265625 159.921875 133.441406 160.472656 C 132.621094 161.023438 131.753906 161.488281 130.84375 161.863281 C 129.929688 162.242188 128.988281 162.53125 128.019531 162.722656 C 127.050781 162.914062 126.074219 163.011719 125.085938 163.011719 C 124.097656 163.011719 123.121094 162.917969 122.152344 162.722656 C 121.179688 162.53125 120.242188 162.246094 119.328125 161.867188 C 118.414062 161.488281 117.546875 161.027344 116.726562 160.476562 C 115.90625 159.925781 115.144531 159.300781 114.445312 158.601562 C 113.746094 157.902344 113.125 157.140625 112.574219 156.320312 C 112.027344 155.496094 111.5625 154.628906 111.1875 153.710938 C 110.808594 152.796875 110.523438 151.855469 110.332031 150.886719 C 110.140625 149.914062 110.042969 148.933594 110.042969 147.945312 Z M 110.042969 147.945312 " fill-opacity="1" fill-rule="nonzero"/><path fill="#000000" d="M 166.796875 150.734375 L 229.023438 150.734375 C 229.414062 150.734375 229.789062 150.660156 230.152344 150.507812 C 230.511719 150.359375 230.832031 150.144531 231.109375 149.867188 C 231.382812 149.589844 231.597656 149.273438 231.746094 148.910156 C 231.898438 148.546875 231.972656 148.171875 231.972656 147.78125 C 231.972656 147.386719 231.898438 147.011719 231.746094 146.648438 C 231.597656 146.285156 231.382812 145.96875 231.109375 145.691406 C 230.832031 145.414062 230.511719 145.199219 230.152344 145.050781 C 229.789062 144.898438 229.414062 144.824219 229.023438 144.824219 L 166.796875 144.824219 C 166.40625 144.824219 166.027344 144.898438 165.667969 145.050781 C 165.304688 145.199219 164.988281 145.414062 164.710938 145.691406 C 164.433594 145.96875 164.222656 146.285156 164.070312 146.648438 C 163.921875 147.011719 163.847656 147.386719 163.847656 147.78125 C 163.847656 148.171875 163.921875 148.546875 164.070312 148.910156 C 164.222656 149.273438 164.433594 149.589844 164.710938 149.867188 C 164.988281 150.144531 165.304688 150.359375 165.667969 150.507812 C 166.027344 150.660156 166.40625 150.734375 166.796875 150.734375 Z M 166.796875 150.734375 " fill-opacity="1" fill-rule="nonzero"/><path fill="#000000" d="M 166.796875 173.03125 L 212.742188 173.03125 C 213.132812 173.03125 213.507812 172.957031 213.871094 172.808594 C 214.230469 172.660156 214.550781 172.445312 214.828125 172.167969 C 215.105469 171.890625 215.316406 171.570312 215.464844 171.210938 C 215.617188 170.847656 215.691406 170.46875 215.691406 170.078125 C 215.691406 169.6875 215.617188 169.308594 215.464844 168.949219 C 215.316406 168.585938 215.105469 168.265625 214.828125 167.988281 C 214.550781 167.710938 214.230469 167.5 213.871094 167.347656 C 213.507812 167.199219 213.132812 167.125 212.742188 167.125 L 166.796875 167.125 C 166.40625 167.125 166.027344 167.199219 165.667969 167.347656 C 165.304688 167.5 164.988281 167.710938 164.710938 167.988281 C 164.433594 168.265625 164.222656 168.585938 164.070312 168.949219 C 163.921875 169.308594 163.847656 169.6875 163.847656 170.078125 C 163.847656 170.46875 163.921875 170.847656 164.070312 171.210938 C 164.222656 171.570312 164.433594 171.890625 164.710938 172.167969 C 164.988281 172.445312 165.304688 172.660156 165.667969 172.808594 C 166.027344 172.957031 166.40625 173.03125 166.796875 173.03125 Z M 166.796875 173.03125 " fill-opacity="1" fill-rule="nonzero"/><path fill="#000000" d="M 250.191406 172.382812 C 250.46875 172.660156 250.789062 172.875 251.148438 173.023438 C 251.511719 173.171875 251.886719 173.25 252.277344 173.25 C 252.667969 173.25 253.046875 173.171875 253.40625 173.023438 C 253.769531 172.875 254.085938 172.660156 254.363281 172.382812 L 277.039062 149.652344 C 277.324219 149.378906 277.542969 149.058594 277.699219 148.695312 C 277.855469 148.328125 277.933594 147.949219 277.9375 147.554688 C 277.941406 147.15625 277.867188 146.777344 277.71875 146.410156 C 277.570312 146.042969 277.355469 145.71875 277.074219 145.4375 C 276.792969 145.160156 276.472656 144.941406 276.105469 144.792969 C 275.738281 144.644531 275.359375 144.570312 274.964844 144.574219 C 274.566406 144.578125 274.1875 144.65625 273.824219 144.8125 C 273.460938 144.96875 273.140625 145.191406 272.867188 145.476562 L 252.261719 166.113281 L 245.074219 158.910156 C 244.796875 158.632812 244.476562 158.421875 244.113281 158.269531 C 243.753906 158.121094 243.375 158.046875 242.984375 158.046875 C 242.59375 158.046875 242.21875 158.121094 241.855469 158.273438 C 241.496094 158.421875 241.175781 158.636719 240.898438 158.914062 C 240.621094 159.191406 240.410156 159.511719 240.261719 159.875 C 240.109375 160.234375 240.035156 160.613281 240.035156 161.003906 C 240.035156 161.398438 240.113281 161.773438 240.261719 162.136719 C 240.410156 162.5 240.625 162.816406 240.902344 163.09375 Z M 250.191406 172.382812 " fill-opacity="1" fill-rule="nonzero"/><path fill="#000000" d="M 99.78125 268.71875 C 100.171875 268.71875 100.546875 268.644531 100.910156 268.492188 C 101.269531 268.34375 101.589844 268.128906 101.867188 267.851562 C 102.140625 267.574219 102.355469 267.257812 102.503906 266.894531 C 102.65625 266.53125 102.730469 266.15625 102.730469 265.765625 C 102.722656 263.855469 103.003906 261.988281 103.566406 260.164062 C 104.128906 258.339844 104.953125 256.640625 106.03125 255.070312 C 106.699219 254.078125 107.445312 253.152344 108.273438 252.292969 C 109.160156 251.402344 110.125 250.609375 111.167969 249.914062 C 112.210938 249.21875 113.3125 248.628906 114.46875 248.152344 C 115.628906 247.675781 116.824219 247.320312 118.054688 247.082031 C 119.285156 246.84375 120.527344 246.726562 121.78125 246.738281 L 128.390625 246.738281 C 129.941406 246.738281 131.46875 246.925781 132.976562 247.300781 C 134.484375 247.671875 135.921875 248.222656 137.292969 248.949219 C 138.667969 249.675781 139.933594 250.554688 141.089844 251.589844 C 142.246094 252.625 143.265625 253.785156 144.140625 255.070312 C 145.21875 256.640625 146.042969 258.339844 146.605469 260.164062 C 147.167969 261.988281 147.449219 263.855469 147.441406 265.765625 C 147.441406 266.15625 147.515625 266.53125 147.667969 266.894531 C 147.816406 267.257812 148.03125 267.574219 148.304688 267.851562 C 148.582031 268.128906 148.902344 268.34375 149.261719 268.492188 C 149.625 268.644531 150 268.71875 150.390625 268.71875 C 150.78125 268.71875 151.160156 268.644531 151.519531 268.492188 C 151.882812 268.34375 152.199219 268.128906 152.476562 267.851562 C 152.753906 267.574219 152.964844 267.257812 153.117188 266.894531 C 153.265625 266.53125 153.339844 266.15625 153.339844 265.765625 C 153.339844 264.515625 153.246094 263.273438 153.058594 262.039062 C 152.875 260.804688 152.59375 259.59375 152.226562 258.402344 C 151.859375 257.207031 151.402344 256.050781 150.859375 254.925781 C 150.316406 253.804688 149.695312 252.726562 148.992188 251.695312 C 148.285156 250.667969 147.511719 249.695312 146.660156 248.78125 C 145.8125 247.867188 144.898438 247.023438 143.921875 246.25 C 142.945312 245.472656 141.917969 244.773438 140.835938 244.152344 C 139.753906 243.53125 138.632812 242.996094 137.472656 242.542969 C 138.796875 241.582031 139.988281 240.476562 141.050781 239.234375 C 142.113281 237.988281 143.015625 236.640625 143.761719 235.179688 C 144.503906 233.722656 145.066406 232.199219 145.449219 230.605469 C 145.832031 229.015625 146.023438 227.398438 146.027344 225.761719 C 146.027344 225.074219 145.992188 224.390625 145.925781 223.707031 C 145.859375 223.023438 145.757812 222.34375 145.625 221.671875 C 145.492188 220.996094 145.324219 220.332031 145.125 219.671875 C 144.925781 219.015625 144.695312 218.371094 144.433594 217.734375 C 144.171875 217.101562 143.878906 216.480469 143.554688 215.875 C 143.230469 215.269531 142.878906 214.679688 142.496094 214.109375 C 142.117188 213.539062 141.707031 212.984375 141.273438 212.457031 C 140.839844 211.925781 140.378906 211.414062 139.894531 210.929688 C 139.410156 210.445312 138.902344 209.984375 138.371094 209.546875 C 137.839844 209.113281 137.289062 208.703125 136.71875 208.320312 C 136.148438 207.941406 135.5625 207.585938 134.957031 207.261719 C 134.351562 206.9375 133.734375 206.644531 133.097656 206.382812 C 132.464844 206.121094 131.820312 205.890625 131.164062 205.691406 C 130.507812 205.488281 129.84375 205.324219 129.171875 205.1875 C 128.5 205.054688 127.820312 204.953125 127.136719 204.886719 C 126.457031 204.820312 125.773438 204.785156 125.085938 204.785156 C 124.398438 204.785156 123.714844 204.820312 123.035156 204.886719 C 122.351562 204.953125 121.671875 205.054688 121 205.1875 C 120.328125 205.324219 119.664062 205.488281 119.007812 205.691406 C 118.351562 205.890625 117.707031 206.121094 117.074219 206.382812 C 116.4375 206.644531 115.820312 206.9375 115.214844 207.261719 C 114.609375 207.585938 114.023438 207.941406 113.453125 208.320312 C 112.882812 208.703125 112.332031 209.113281 111.800781 209.546875 C 111.269531 209.984375 110.761719 210.445312 110.277344 210.929688 C 109.792969 211.414062 109.332031 211.925781 108.898438 212.457031 C 108.464844 212.984375 108.054688 213.539062 107.675781 214.109375 C 107.292969 214.679688 106.941406 215.269531 106.617188 215.875 C 106.292969 216.480469 106 217.101562 105.738281 217.734375 C 105.476562 218.371094 105.246094 219.015625 105.046875 219.671875 C 104.847656 220.332031 104.679688 220.996094 104.546875 221.671875 C 104.414062 222.34375 104.3125 223.023438 104.246094 223.707031 C 104.179688 224.390625 104.144531 225.074219 104.144531 225.761719 C 104.144531 227.398438 104.332031 229.015625 104.714844 230.609375 C 105.097656 232.199219 105.660156 233.726562 106.402344 235.183594 C 107.148438 236.644531 108.050781 237.996094 109.113281 239.238281 C 110.179688 240.480469 111.375 241.582031 112.699219 242.542969 C 109.453125 243.8125 106.601562 245.683594 104.144531 248.15625 C 103.011719 249.246094 102.007812 250.449219 101.136719 251.761719 C 99.726562 253.820312 98.65625 256.046875 97.921875 258.433594 C 97.1875 260.820312 96.824219 263.265625 96.832031 265.765625 C 96.832031 266.15625 96.90625 266.53125 97.054688 266.894531 C 97.203125 267.257812 97.417969 267.574219 97.695312 267.851562 C 97.972656 268.128906 98.289062 268.34375 98.652344 268.492188 C 99.011719 268.644531 99.390625 268.71875 99.78125 268.71875 Z M 110.042969 225.761719 C 110.042969 224.773438 110.140625 223.792969 110.332031 222.824219 C 110.527344 221.851562 110.8125 220.910156 111.1875 219.996094 C 111.566406 219.082031 112.03125 218.214844 112.578125 217.390625 C 113.128906 216.570312 113.75 215.808594 114.449219 215.109375 C 115.148438 214.410156 115.90625 213.785156 116.730469 213.234375 C 117.550781 212.683594 118.417969 212.21875 119.328125 211.84375 C 120.242188 211.464844 121.183594 211.175781 122.152344 210.984375 C 123.121094 210.792969 124.097656 210.695312 125.085938 210.695312 C 126.074219 210.695312 127.050781 210.792969 128.019531 210.984375 C 128.988281 211.175781 129.929688 211.464844 130.84375 211.84375 C 131.753906 212.21875 132.621094 212.683594 133.441406 213.234375 C 134.265625 213.785156 135.023438 214.410156 135.722656 215.109375 C 136.421875 215.808594 137.042969 216.570312 137.59375 217.390625 C 138.140625 218.214844 138.605469 219.082031 138.984375 219.996094 C 139.359375 220.910156 139.644531 221.851562 139.839844 222.824219 C 140.03125 223.792969 140.128906 224.773438 140.128906 225.761719 C 140.128906 226.75 140.03125 227.730469 139.839844 228.703125 C 139.644531 229.671875 139.359375 230.613281 138.984375 231.527344 C 138.605469 232.441406 138.140625 233.308594 137.59375 234.132812 C 137.042969 234.957031 136.421875 235.714844 135.722656 236.417969 C 135.023438 237.117188 134.265625 237.742188 133.441406 238.289062 C 132.621094 238.839844 131.753906 239.304688 130.84375 239.683594 C 129.929688 240.0625 128.988281 240.347656 128.019531 240.539062 C 127.050781 240.734375 126.074219 240.828125 125.085938 240.828125 C 124.097656 240.828125 123.121094 240.734375 122.152344 240.542969 C 121.179688 240.347656 120.242188 240.0625 119.328125 239.683594 C 118.414062 239.308594 117.546875 238.84375 116.726562 238.292969 C 115.90625 237.742188 115.144531 237.121094 114.445312 236.417969 C 113.746094 235.71875 113.125 234.957031 112.574219 234.136719 C 112.027344 233.3125 111.5625 232.445312 111.1875 231.53125 C 110.808594 230.617188 110.523438 229.671875 110.332031 228.703125 C 110.140625 227.730469 110.042969 226.75 110.042969 225.761719 Z M 110.042969 225.761719 " fill-opacity="1" fill-rule="nonzero"/><path fill="#000000" d="M 166.796875 228.550781 L 229.023438 228.550781 C 229.414062 228.550781 229.789062 228.476562 230.152344 228.324219 C 230.511719 228.175781 230.832031 227.960938 231.109375 227.6875 C 231.382812 227.410156 231.597656 227.089844 231.746094 226.726562 C 231.898438 226.363281 231.972656 225.988281 231.972656 225.597656 C 231.972656 225.203125 231.898438 224.828125 231.746094 224.464844 C 231.597656 224.105469 231.382812 223.785156 231.109375 223.507812 C 230.832031 223.230469 230.511719 223.015625 230.152344 222.867188 C 229.789062 222.71875 229.414062 222.640625 229.023438 222.640625 L 166.796875 222.640625 C 166.40625 222.640625 166.027344 222.71875 165.667969 222.867188 C 165.304688 223.015625 164.988281 223.230469 164.710938 223.507812 C 164.433594 223.785156 164.222656 224.105469 164.070312 224.464844 C 163.921875 224.828125 163.847656 225.203125 163.847656 225.597656 C 163.847656 225.988281 163.921875 226.363281 164.070312 226.726562 C 164.222656 227.089844 164.433594 227.410156 164.710938 227.6875 C 164.988281 227.960938 165.304688 228.175781 165.667969 228.324219 C 166.027344 228.476562 166.40625 228.550781 166.796875 228.550781 Z M 166.796875 228.550781 " fill-opacity="1" fill-rule="nonzero"/><path fill="#000000" d="M 166.796875 250.851562 L 212.742188 250.851562 C 213.132812 250.851562 213.507812 250.773438 213.871094 250.625 C 214.230469 250.476562 214.550781 250.261719 214.828125 249.984375 C 215.105469 249.707031 215.316406 249.386719 215.464844 249.027344 C 215.617188 248.664062 215.691406 248.289062 215.691406 247.894531 C 215.691406 247.503906 215.617188 247.128906 215.464844 246.765625 C 215.316406 246.402344 215.105469 246.082031 214.828125 245.808594 C 214.550781 245.53125 214.230469 245.316406 213.871094 245.167969 C 213.507812 245.015625 213.132812 244.941406 212.742188 244.941406 L 166.796875 244.941406 C 166.40625 244.941406 166.027344 245.015625 165.667969 245.167969 C 165.304688 245.316406 164.988281 245.53125 164.710938 245.808594 C 164.433594 246.082031 164.222656 246.402344 164.070312 246.765625 C 163.921875 247.128906 163.847656 247.503906 163.847656 247.894531 C 163.847656 248.289062 163.921875 248.664062 164.070312 249.027344 C 164.222656 249.386719 164.433594 249.707031 164.710938 249.984375 C 164.988281 250.261719 165.304688 250.476562 165.667969 250.625 C 166.027344 250.773438 166.40625 250.851562 166.796875 250.851562 Z M 166.796875 250.851562 " fill-opacity="1" fill-rule="nonzero"/><path fill="#000000" d="M 250.191406 250.222656 C 250.46875 250.5 250.789062 250.714844 251.148438 250.863281 C 251.511719 251.015625 251.886719 251.089844 252.277344 251.089844 C 252.667969 251.089844 253.046875 251.015625 253.40625 250.863281 C 253.769531 250.714844 254.085938 250.5 254.363281 250.222656 L 277.039062 227.46875 C 277.324219 227.195312 277.542969 226.875 277.699219 226.511719 C 277.855469 226.148438 277.933594 225.765625 277.9375 225.371094 C 277.941406 224.972656 277.867188 224.59375 277.71875 224.226562 C 277.570312 223.859375 277.355469 223.535156 277.074219 223.253906 C 276.792969 222.976562 276.472656 222.761719 276.105469 222.609375 C 275.738281 222.460938 275.359375 222.386719 274.964844 222.390625 C 274.566406 222.394531 274.1875 222.472656 273.824219 222.628906 C 273.460938 222.785156 273.140625 223.007812 272.867188 223.292969 L 252.261719 243.929688 L 245.074219 236.730469 C 244.796875 236.445312 244.480469 236.222656 244.117188 236.066406 C 243.75 235.910156 243.371094 235.832031 242.976562 235.828125 C 242.582031 235.824219 242.199219 235.898438 241.835938 236.046875 C 241.46875 236.195312 241.144531 236.410156 240.867188 236.691406 C 240.585938 236.972656 240.371094 237.296875 240.222656 237.664062 C 240.070312 238.027344 240 238.410156 240.003906 238.808594 C 240.003906 239.203125 240.085938 239.582031 240.242188 239.945312 C 240.398438 240.3125 240.617188 240.628906 240.902344 240.90625 Z M 250.191406 250.222656 " fill-opacity="1" fill-rule="nonzero"/><path fill="#000000" d="M 229.023438 297.671875 L 103.792969 297.671875 C 103.398438 297.671875 103.023438 297.746094 102.664062 297.894531 C 102.300781 298.046875 101.984375 298.257812 101.707031 298.535156 C 101.429688 298.8125 101.214844 299.132812 101.066406 299.496094 C 100.917969 299.855469 100.84375 300.234375 100.84375 300.625 L 100.84375 323.078125 C 100.84375 323.46875 100.917969 323.847656 101.066406 324.207031 C 101.214844 324.570312 101.429688 324.890625 101.707031 325.167969 C 101.984375 325.445312 102.300781 325.65625 102.664062 325.808594 C 103.023438 325.957031 103.398438 326.03125 103.792969 326.03125 L 229.023438 326.03125 C 229.414062 326.03125 229.789062 325.957031 230.152344 325.808594 C 230.511719 325.65625 230.832031 325.445312 231.109375 325.167969 C 231.382812 324.890625 231.597656 324.570312 231.746094 324.207031 C 231.898438 323.847656 231.972656 323.46875 231.972656 323.078125 L 231.972656 300.625 C 231.972656 300.234375 231.898438 299.855469 231.746094 299.496094 C 231.597656 299.132812 231.382812 298.8125 231.109375 298.535156 C 230.832031 298.257812 230.511719 298.046875 230.152344 297.894531 C 229.789062 297.746094 229.414062 297.671875 229.023438 297.671875 Z M 226.074219 320.125 L 106.742188 320.125 L 106.742188 303.578125 L 226.074219 303.578125 Z M 226.074219 320.125 " fill-opacity="1" fill-rule="nonzero"/></svg>