<svg xmlns="http://www.w3.org/2000/svg" xmlns:xlink="http://www.w3.org/1999/xlink" width="500" zoomAndPan="magnify" viewBox="0 0 375 374.999991" height="500" preserveAspectRatio="xMidYMid meet" version="1.0"><defs><clipPath id="7820e05c5d"><path d="M 91.875 37.5 L 283.125 37.5 L 283.125 337.5 L 91.875 337.5 Z M 91.875 37.5 " clip-rule="nonzero"/></clipPath></defs><g clip-path="url(#7820e05c5d)"><path fill="#100f0d" d="M 187.5 37.601562 C 134.78125 37.601562 91.914062 80.488281 91.914062 133.1875 C 91.914062 168.097656 132.863281 233.980469 159.980469 273.816406 C 130.804688 277.308594 100.496094 287.023438 100.476562 304.789062 C 100.476562 326.191406 144.472656 337.398438 187.945312 337.398438 C 231.414062 337.398438 275.433594 326.191406 275.433594 304.789062 C 275.410156 286.820312 244.660156 277.128906 215.082031 273.714844 C 242.21875 233.878906 283.085938 168.054688 283.085938 133.1875 C 283.085938 80.488281 240.21875 37.601562 187.5 37.601562 Z M 187.5 47.9375 C 234.503906 47.9375 272.746094 86.179688 272.746094 133.1875 C 272.746094 174.859375 205.105469 270.707031 187.5 294.917969 C 184.351562 290.574219 179.585938 283.914062 173.890625 275.714844 C 147.824219 238.078125 102.253906 167.410156 102.253906 133.1875 C 102.253906 86.179688 140.496094 47.9375 187.5 47.9375 Z M 265.09375 304.789062 C 265.09375 313.875 235.050781 327.0625 187.945312 327.0625 C 140.859375 327.0625 110.8125 313.875 110.8125 304.808594 C 110.8125 298.128906 128.644531 286.960938 166.664062 283.507812 C 175.851562 296.671875 182.410156 305.476562 183.359375 306.75 C 184.351562 308.0625 185.863281 308.808594 187.5 308.808594 C 189.136719 308.808594 190.648438 308.0625 191.640625 306.75 C 192.589844 305.476562 199.191406 296.632812 208.378906 283.429688 C 247.003906 286.800781 265.09375 298.027344 265.09375 304.789062 " fill-opacity="1" fill-rule="nonzero"/></g><path fill="#100f0d" d="M 187.5 194.808594 C 220.996094 194.808594 248.234375 167.550781 248.234375 134.054688 C 248.234375 100.578125 220.996094 73.320312 187.5 73.320312 C 154.003906 73.320312 126.765625 100.578125 126.765625 134.054688 C 126.765625 167.550781 154.003906 194.808594 187.5 194.808594 Z M 187.5 83.65625 C 215.304688 83.65625 237.898438 106.269531 237.898438 134.054688 C 237.898438 161.855469 215.304688 184.472656 187.5 184.472656 C 159.695312 184.472656 137.101562 161.855469 137.101562 134.054688 C 137.101562 106.269531 159.695312 83.65625 187.5 83.65625 " fill-opacity="1" fill-rule="nonzero"/><path fill="#100f0d" d="M 183.824219 163.332031 C 184.835938 164.339844 186.167969 164.84375 187.480469 164.84375 C 188.8125 164.84375 190.125 164.339844 191.132812 163.332031 L 215.425781 139.0625 C 219.382812 135.105469 221.5625 129.855469 221.5625 124.261719 C 221.5625 118.667969 219.382812 113.398438 215.425781 109.441406 C 211.46875 105.484375 206.195312 103.304688 200.605469 103.304688 C 195.777344 103.304688 191.195312 104.9375 187.5 107.925781 C 183.503906 104.695312 178.414062 103.039062 173.246094 103.324219 C 173.246094 103.324219 173.226562 103.324219 173.226562 103.324219 C 168.054688 103.605469 163.210938 105.785156 159.574219 109.441406 C 155.617188 113.398438 153.4375 118.667969 153.4375 124.261719 C 153.4375 129.855469 155.617188 135.105469 159.574219 139.0625 Z M 166.90625 116.75 C 168.742188 114.894531 171.1875 113.78125 173.808594 113.640625 C 176.699219 113.460938 179.765625 114.609375 181.886719 116.75 L 183.824219 118.707031 C 185.84375 120.707031 189.09375 120.726562 191.113281 118.730469 L 193.113281 116.75 C 197.109375 112.753906 204.097656 112.753906 208.113281 116.75 C 210.113281 118.769531 211.222656 121.433594 211.222656 124.261719 C 211.222656 127.089844 210.113281 129.753906 208.113281 131.753906 L 187.480469 152.367188 L 166.886719 131.753906 C 164.886719 129.753906 163.777344 127.089844 163.777344 124.261719 C 163.777344 121.433594 164.886719 118.769531 166.90625 116.75 " fill-opacity="1" fill-rule="nonzero"/></svg>