<svg xmlns="http://www.w3.org/2000/svg" xmlns:xlink="http://www.w3.org/1999/xlink" width="500" height="500" preserveAspectRatio="xMidYMid meet" version="1.0" viewBox="0 0 375 375" zoomAndPan="magnify"><defs><clipPath id="6544a0910f"><path d="M 92 283 L 283 283 L 283 371.210938 L 92 371.210938 Z M 92 283" clip-rule="nonzero"/></clipPath><clipPath id="27143cde28"><path d="M 70 3.710938 L 304 3.710938 L 304 321 L 70 321 Z M 70 3.710938" clip-rule="nonzero"/></clipPath></defs><g clip-path="url(#6544a0910f)"><path fill="#000" fill-opacity="1" fill-rule="nonzero" d="M 129.242188 304.402344 C 130.519531 303.75 131.84375 303.125 133.195312 302.53125 C 138.085938 300.390625 140.316406 294.683594 138.175781 289.792969 C 136.035156 284.902344 130.324219 282.683594 125.441406 284.816406 C 123.742188 285.558594 122.097656 286.339844 120.453125 287.171875 C 102.308594 296.472656 92.304688 308.886719 92.304688 322.128906 C 92.304688 335.441406 102.308594 347.871094 120.472656 357.132812 C 138.296875 366.207031 162.011719 371.210938 187.25 371.210938 C 212.5 371.210938 236.210938 366.207031 254.027344 357.132812 C 272.1875 347.867188 282.191406 335.4375 282.191406 322.128906 C 282.191406 308.890625 272.191406 296.476562 254.027344 287.164062 C 252.164062 286.210938 250.222656 285.304688 248.234375 284.449219 C 243.324219 282.339844 237.640625 284.597656 235.53125 289.5 C 233.417969 294.40625 235.679688 300.097656 240.582031 302.207031 C 242.1875 302.898438 243.738281 303.628906 245.222656 304.378906 C 258.238281 311.050781 262.855469 318.105469 262.855469 322.125 C 262.855469 326.179688 258.242188 333.269531 245.246094 339.894531 C 230.097656 347.621094 209.503906 351.867188 187.25 351.867188 C 165.003906 351.867188 144.40625 347.621094 129.257812 339.894531 C 116.253906 333.273438 111.648438 326.183594 111.648438 322.125 C 111.644531 318.109375 116.257812 311.054688 129.242188 304.402344 Z M 129.242188 304.402344"/></g><g clip-path="url(#27143cde28)"><path fill="#000" fill-opacity="1" fill-rule="nonzero" d="M 188.53125 3.742188 C 188.269531 3.722656 188.007812 3.710938 187.742188 3.710938 L 186.765625 3.710938 C 186.5 3.710938 186.238281 3.722656 185.984375 3.742188 C 122.269531 4.683594 70.5625 57.105469 70.5625 120.753906 C 69.558594 184.082031 118.007812 242.039062 153.386719 284.351562 C 163.757812 296.757812 172.722656 307.480469 178.785156 316.359375 C 180.582031 318.996094 183.574219 320.578125 186.769531 320.578125 L 187.746094 320.578125 C 190.941406 320.578125 193.933594 318.996094 195.734375 316.359375 C 201.789062 307.476562 210.753906 296.757812 221.128906 284.34375 C 256.503906 242.035156 304.949219 184.074219 303.949219 120.910156 C 303.945312 57.109375 252.230469 4.691406 188.53125 3.742188 Z M 206.289062 271.941406 C 199.183594 280.441406 192.722656 288.171875 187.25 295.230469 C 181.78125 288.171875 175.320312 280.441406 168.21875 271.945312 C 134.789062 231.957031 89.007812 177.191406 89.898438 120.910156 C 89.898438 67.441406 133.386719 23.554688 186.851562 23.074219 C 186.984375 23.074219 187.117188 23.070312 187.25 23.0625 C 187.386719 23.070312 187.515625 23.074219 187.65625 23.074219 C 241.109375 23.554688 284.605469 67.441406 284.605469 121.0625 C 285.492188 177.191406 239.71875 231.953125 206.289062 271.941406 Z M 206.289062 271.941406"/></g><path fill="#000" fill-opacity="1" fill-rule="nonzero" d="M 187.25 78.183594 C 163.621094 78.441406 144.519531 97.46875 144.519531 120.925781 C 144.519531 144.386719 163.601562 163.410156 187.25 163.667969 C 210.90625 163.410156 229.984375 144.386719 229.984375 120.925781 C 229.984375 97.46875 210.882812 78.441406 187.25 78.183594 Z M 187.25 78.183594"/></svg>