<svg xmlns="http://www.w3.org/2000/svg" xmlns:xlink="http://www.w3.org/1999/xlink" width="500" zoomAndPan="magnify" viewBox="0 0 375 374.999991" height="500" preserveAspectRatio="xMidYMid meet" version="1.0"><defs><clipPath id="54d5d45882"><path d="M 107 173 L 353 173 L 353 364.5 L 107 364.5 Z M 107 173 " clip-rule="nonzero"/></clipPath><clipPath id="513d40298d"><path d="M 18.75 63 L 131 63 L 131 258 L 18.75 258 Z M 18.75 63 " clip-rule="nonzero"/></clipPath></defs><g clip-path="url(#54d5d45882)"><path fill="#000000" d="M 217.976562 182.003906 C 209.179688 206.847656 190.183594 270.496094 186.214844 278.765625 C 164.691406 267.371094 133.1875 270.269531 118.53125 284.71875 C 103.625 299.410156 103.351562 322.070312 120.484375 334.859375 C 134.898438 345.617188 157.65625 348.351562 173.3125 338.308594 C 196.375 323.515625 198.382812 300.53125 206.601562 276.480469 C 210.675781 264.558594 214.730469 252.554688 218.109375 240.632812 C 225.527344 214.046875 227.980469 216.214844 242.949219 217.179688 L 306.035156 221.683594 C 328.683594 224.804688 328.203125 221.144531 321.933594 240.839844 C 315.378906 261.433594 305.226562 293.199219 302.863281 299.019531 C 291.644531 292.058594 266.652344 284.039062 239.238281 300.410156 C 208.25 318.914062 221.21875 364.5 263.472656 364.5 C 279.765625 364.5 298.34375 355.0625 305.363281 341.203125 L 322.160156 292.792969 C 333.613281 258.097656 339.632812 241.027344 349.683594 205.613281 C 356.21875 182.601562 354.046875 184.960938 308.667969 176.796875 C 283.5 172.265625 258.171875 174.378906 232.976562 173.617188 C 223.074219 173.316406 221.050781 173.316406 217.976562 182.003906 Z M 217.976562 182.003906 " fill-opacity="1" fill-rule="evenodd"/></g><g clip-path="url(#513d40298d)"><path fill="#000000" d="M 18.792969 68.53125 C 27.015625 86.597656 47.898438 115.46875 62.335938 136.6875 C 68.148438 145.230469 84.191406 169.761719 85.960938 173.609375 C 65.28125 178.570312 49.046875 193.753906 44.488281 212.042969 C 40.742188 227.066406 42.226562 244.605469 55.992188 253.046875 C 79.015625 267.160156 108.640625 245.664062 114.574219 220.972656 C 117.652344 208.164062 116.707031 205.019531 113.902344 193.304688 C 112.542969 187.640625 91.949219 156.589844 88.03125 150.789062 C 82.667969 142.84375 63.996094 114.585938 61.703125 107.628906 C 74.074219 107.550781 84.089844 105.210938 96.648438 109.75 C 107.6875 113.738281 115.21875 122.222656 117.644531 137.339844 C 118.722656 144.046875 116.121094 152.652344 124.769531 150.578125 C 131.617188 148.9375 133.917969 120.519531 122.480469 98.757812 C 116.269531 86.9375 98.585938 75.679688 85.707031 72.644531 C 69.574219 71.285156 52.914062 71.507812 37.445312 66.652344 C 28.039062 63.699219 23.242188 60.277344 18.792969 68.53125 Z M 18.792969 68.53125 " fill-opacity="1" fill-rule="evenodd"/></g><path fill="#000000" d="M 192.007812 139.925781 C 211.257812 139.925781 223.480469 126.527344 225.785156 108.816406 L 232.695312 49.726562 L 246.179688 59.335938 C 254.019531 66.449219 255.621094 77.351562 251.21875 86.957031 C 249.902344 89.828125 244.359375 95.691406 246.464844 99.097656 C 248.164062 101.839844 255.097656 96.394531 258.832031 92.375 C 268.382812 82.085938 271.757812 68.128906 267.464844 53.445312 C 262.382812 36.074219 245.738281 29.503906 238.175781 17.839844 C 226.609375 0.00390625 226.140625 9.210938 224.902344 24.332031 C 224.222656 30.75 218.851562 93.195312 217.074219 94.039062 C 203.992188 90.726562 188.269531 88.183594 177.402344 98.914062 C 151.007812 124.972656 176.175781 139.925781 192.007812 139.925781 Z M 192.007812 139.925781 " fill-opacity="1" fill-rule="evenodd"/></svg>