<svg xmlns="http://www.w3.org/2000/svg" xmlns:xlink="http://www.w3.org/1999/xlink" width="500" zoomAndPan="magnify" viewBox="0 0 375 374.999991" height="500" preserveAspectRatio="xMidYMid meet" version="1.0"><defs><clipPath id="cbdd37982a"><path d="M 25.640625 23 L 349.640625 23 L 349.640625 354 L 25.640625 354 Z M 25.640625 23 " clip-rule="nonzero"/></clipPath></defs><g clip-path="url(#cbdd37982a)"><path fill="#000000" d="M 109.496094 329.699219 C 133.925781 345.015625 163.070312 353.984375 194.574219 353.984375 C 280.171875 353.984375 349.570312 288.144531 349.570312 207.007812 C 349.570312 170.601562 335.585938 137.285156 312.421875 111.667969 C 332.855469 84.320312 334.734375 82.929688 335.785156 78.644531 C 337.902344 70.953125 330.902344 65.660156 323.871094 69.589844 C 320.53125 71.503906 320.339844 72.351562 299.769531 99.171875 C 299.003906 98.476562 298.238281 97.792969 297.457031 97.132812 C 295.558594 95.191406 297.183594 96.660156 293.71875 93.382812 C 302.09375 82.730469 307.8125 75.238281 314.589844 67.015625 C 315.816406 65.507812 317.0625 63.867188 317.726562 61.796875 C 319.441406 55.664062 313.75 51.761719 308.714844 54.695312 C 305.5 56.496094 306.082031 56.917969 284.175781 84.976562 C 281.824219 83.066406 279.722656 81.480469 277.664062 80.019531 C 284.570312 71.566406 291.082031 62.78125 297.035156 53.660156 C 298.320312 51.773438 299.507812 49.886719 299.972656 47.558594 C 301.261719 41.367188 295.8125 36.921875 289.953125 39.753906 C 286.808594 41.214844 286.179688 42.402344 261.078125 69.4375 C 250.605469 63.6875 239.492188 59.078125 227.988281 55.742188 C 224.851562 45.746094 219.261719 36.699219 211.570312 29.878906 C 203.78125 22.941406 190.523438 21.054688 180.058594 25.386719 C 169.214844 29.8125 161.046875 40.90625 156.21875 51.519531 C 80.550781 63.566406 25.710938 125.050781 25.710938 198.09375 C 25.710938 251.703125 56.476562 303.25 109.496094 329.699219 Z M 291.589844 96.089844 C 293.285156 97.710938 294.941406 99.242188 297.511719 102.109375 C 285.3125 118.144531 286.898438 115.910156 285.277344 118.351562 C 283.164062 121.535156 281.683594 123.472656 278.976562 123.472656 C 276.902344 123.421875 274.976562 122.054688 274.402344 120.242188 C 273.421875 116.933594 278.28125 112.855469 280.480469 110.074219 C 284.226562 105.410156 287.90625 100.75 291.589844 96.089844 Z M 282.066406 87.671875 C 267.867188 105.8125 266.347656 108.035156 263.527344 109.363281 C 261.578125 110.273438 258.898438 110.320312 257.570312 108.699219 C 256.503906 107.339844 256.707031 105.183594 257.371094 103.671875 C 259.023438 99.996094 261.253906 99.675781 275.464844 82.660156 C 277.507812 84.105469 279.617188 85.691406 282.066406 87.671875 Z M 291.421875 42.851562 C 294.726562 41.25 297.328125 43.433594 296.613281 46.871094 C 296.265625 48.589844 295.316406 50.089844 294.179688 51.757812 C 283.992188 67.363281 270.425781 84.148438 258.84375 96.199219 C 257.199219 97.84375 255.347656 99.804688 254.234375 102.28125 C 252.914062 105.28125 253.164062 108.628906 254.890625 110.839844 C 257.457031 113.984375 261.917969 113.882812 264.980469 112.472656 C 267.996094 111.046875 270.167969 108.296875 271.90625 106.09375 C 307.019531 62.03125 307.289062 59.425781 310.417969 57.671875 C 311.417969 57.082031 312.925781 56.898438 313.832031 57.679688 C 314.53125 58.300781 314.773438 59.613281 314.4375 60.8125 C 313.976562 62.253906 312.984375 63.546875 311.933594 64.84375 C 304.855469 73.429688 289.988281 92.773438 277.800781 107.933594 C 275.359375 111.003906 269.5 115.789062 271.121094 121.246094 C 272.148438 124.492188 275.34375 126.816406 278.933594 126.902344 C 284.898438 126.902344 287.191406 121.234375 289.703125 118.003906 C 321.019531 77.367188 322.355469 74.414062 325.5625 72.574219 C 327.226562 71.640625 329.621094 71.257812 331.230469 72.503906 C 332.757812 73.675781 332.945312 76.046875 332.472656 77.75 C 332.464844 77.769531 332.464844 77.789062 332.457031 77.804688 C 331.636719 81.191406 330.855469 81.28125 298.363281 124.640625 C 288.636719 137.605469 284.863281 139.011719 271.792969 139.691406 C 268.964844 139.835938 266.042969 139.988281 263.183594 140.507812 C 245.898438 143.679688 238.355469 159.601562 229.816406 171.609375 C 228.015625 174.222656 226.164062 176.882812 224.304688 179.507812 C 222.277344 178.054688 220.289062 176.664062 218.382812 175.378906 C 217.695312 174.914062 214.109375 172.53125 213.230469 171.972656 C 222.519531 162.324219 233.863281 150.09375 238.671875 137.59375 C 242.859375 126.582031 241.996094 121.175781 241.320312 115.15625 C 239.742188 101.28125 240.683594 96.40625 253.976562 82.117188 C 289.800781 43.417969 289.226562 43.875 291.421875 42.851562 Z M 151.285156 92.300781 C 152.890625 100.355469 155.949219 108.242188 160.3125 115.203125 C 164.914062 122.40625 170.554688 124.417969 172.613281 134.027344 C 127.921875 140.101562 101.117188 185.5 120.488281 225.191406 L 93.417969 268.5 C 76.035156 248.75 66.484375 223.835938 66.484375 198.09375 C 66.484375 148.726562 101.28125 105.5 151.285156 92.300781 Z M 226.4375 96.5 C 230.171875 97.917969 233.988281 99.621094 237.84375 101.613281 C 236.535156 108.472656 238.058594 114.824219 238.441406 121.050781 C 238.882812 127.777344 236.019531 138.890625 227.84375 149.867188 C 218.355469 141.71875 206.480469 136.144531 193.335938 134.152344 C 197.355469 129.496094 217.4375 120.714844 226.4375 96.5 Z M 193.972656 247.308594 C 197.789062 227.863281 182.847656 210.269531 163.511719 210.269531 C 153.304688 210.269531 144.328125 215.253906 138.667969 222.847656 C 136.128906 219.929688 133.789062 216.871094 131.777344 213.601562 C 139.09375 201.914062 165.324219 159.875 166.070312 158.816406 C 167.082031 157.425781 168.988281 156.617188 170.804688 157.164062 C 170.804688 157.164062 170.804688 157.164062 170.808594 157.164062 C 192.753906 163.667969 204.960938 169.816406 223.722656 183.308594 L 225.6875 184.734375 C 227.316406 185.917969 227.90625 188.066406 227.113281 189.941406 L 202.644531 246.660156 C 200.84375 246.839844 198.808594 247.191406 193.972656 247.308594 Z M 158.640625 250.59375 C 157.726562 250.609375 156.902344 251.300781 156.859375 252.246094 C 156.785156 254.253906 156.429688 256.234375 155.898438 258.171875 C 155.828125 258.070312 155.75 257.957031 155.683594 257.875 C 133.050781 229.773438 164.363281 211.082031 165.007812 228.71875 C 165.160156 232.90625 164.125 237.109375 162.050781 240.707031 C 168.722656 233.648438 180.652344 235.730469 183.503906 241.753906 C 185.542969 246.054688 183.21875 252.375 174.425781 254.75 C 169.65625 256.039062 163.609375 256.027344 159.429688 258.125 C 159.882812 256.234375 160.21875 254.316406 160.292969 252.375 C 160.328125 251.429688 159.589844 250.632812 158.640625 250.59375 Z M 141.511719 168.464844 C 132.039062 175.527344 124.28125 186.914062 121.46875 198.4375 C 119.339844 178.308594 130.605469 159.132812 149.0625 151.25 C 143.160156 156.941406 137.941406 164.28125 134.371094 171.621094 C 136.292969 169.769531 138.835938 168.601562 141.511719 168.464844 Z M 238.09375 205.15625 C 239.671875 205.15625 240.90625 205.980469 240.90625 207.007812 C 240.90625 207.96875 239.671875 208.792969 238.09375 208.792969 C 236.515625 208.792969 235.210938 207.96875 235.210938 207.007812 C 235.210938 205.980469 236.515625 205.15625 238.09375 205.15625 Z M 237.613281 198.4375 C 235.289062 198.4375 235.191406 197.066406 237.613281 197.066406 C 239.925781 197.066406 239.863281 198.4375 237.613281 198.4375 Z M 93.960938 274.140625 C 94.414062 273.417969 132.210938 212.910156 129.8125 216.75 C 131.875 219.941406 134.203125 222.949219 136.746094 225.800781 C 127.285156 242.0625 134.214844 261.496094 150.039062 269.160156 C 144.148438 276 136.859375 278.378906 131.703125 277.660156 C 132.65625 274.53125 131.210938 271.320312 129.996094 269.132812 C 126.296875 262.453125 120.621094 264.441406 119.722656 268.839844 C 118.910156 272.824219 122.167969 277.140625 125.816406 279.222656 C 120.433594 281.511719 110.355469 279.007812 105.121094 271.371094 C 104.585938 270.585938 103.519531 270.390625 102.738281 270.925781 C 101.953125 271.457031 101.753906 272.527344 102.289062 273.308594 C 109.5625 283.914062 124.269531 285.742188 129.722656 280.765625 C 136.746094 282.492188 146.519531 279.144531 153.402344 270.523438 C 170.730469 276.515625 187.804688 266.683594 192.941406 250.796875 C 195.675781 250.773438 198.398438 250.574219 201.09375 250.25 C 200.789062 250.957031 175.539062 309.515625 175.835938 308.828125 L 173.007812 315.390625 C 172.113281 317.453125 169.820312 318.476562 167.703125 317.804688 C 134.523438 307.128906 116.105469 299.074219 94.667969 279.585938 C 93.152344 278.207031 92.851562 275.914062 93.960938 274.140625 Z M 128.410156 276.6875 C 122.820312 274.105469 121.964844 268.625 124.175781 268.238281 C 124.226562 268.230469 124.285156 268.226562 124.34375 268.226562 C 125.480469 268.226562 126.648438 270.171875 126.992188 270.792969 C 128.40625 273.347656 128.863281 275.234375 128.410156 276.6875 Z M 200.425781 260.496094 C 245.085938 248.9375 264.605469 199.507812 239.742188 163.011719 C 256.835938 137.894531 267.011719 145.402344 281.984375 141.902344 C 292.636719 158.933594 298.296875 178.328125 298.296875 198.09375 C 298.296875 260.871094 243.011719 309.457031 179.980469 307.878906 Z M 258.65625 72.039062 C 256.234375 74.648438 253.8125 77.242188 251.390625 79.855469 C 246.339844 85.285156 241.277344 90.976562 238.832031 98.285156 C 235.019531 96.339844 231.238281 94.648438 227.535156 93.246094 C 230.832031 83.183594 231.683594 72.585938 229.824219 62.464844 C 229.648438 61.511719 229.289062 60.613281 229.0625 59.675781 C 239.320312 62.800781 249.25 66.941406 258.65625 72.039062 Z M 181.367188 28.558594 C 190.542969 24.753906 202.546875 26.421875 209.289062 32.441406 C 218.117188 40.269531 224.210938 51.15625 226.449219 63.085938 C 229.566406 80.058594 223.695312 94.363281 223.847656 93.675781 C 223.832031 93.730469 223.835938 93.710938 223.835938 93.714844 C 218.613281 109.355469 207.355469 120.152344 193.742188 129.1875 C 185.113281 135.089844 184.695312 147.617188 184.632812 158.011719 C 184.269531 157.886719 175.703125 155.046875 175.335938 154.933594 C 176.300781 149.78125 177.117188 144.351562 176.789062 138.902344 C 175.558594 123.214844 168.175781 121.148438 163.214844 113.371094 C 158.753906 106.257812 155.65625 98.125 154.261719 89.871094 C 149.757812 61.910156 165.324219 35.109375 181.367188 28.558594 Z M 154.5625 55.335938 C 150.246094 66.589844 149.214844 77.601562 150.679688 88.90625 C 99.019531 102.417969 63.050781 147.078125 63.050781 198.09375 C 63.050781 225.007812 73.199219 251.007812 91.566406 271.503906 L 91.050781 272.324219 C 89.0625 275.507812 89.613281 279.628906 92.359375 282.125 C 114.265625 302.039062 132.984375 310.230469 166.652344 321.066406 C 170.433594 322.285156 174.550781 320.472656 176.15625 316.75 L 178.542969 311.21875 C 242.113281 314.234375 301.726562 264.367188 301.726562 198.09375 C 301.726562 178 296.050781 158.292969 285.382812 140.914062 C 293.65625 137.769531 297.351562 131.625 309.027344 116.179688 C 326.210938 139.757812 335.703125 167.78125 335.703125 198.09375 C 335.703125 282.867188 259.035156 348.054688 175.628906 343.152344 C 156.300781 343.152344 131.53125 336.496094 114.59375 328.367188 C 114.589844 328.367188 114.105469 328.160156 114.101562 328.15625 C 62.203125 303.625 29.140625 253.34375 29.140625 198.09375 C 29.140625 127.46875 81.722656 67.957031 154.5625 55.335938 Z M 154.5625 55.335938 " fill-opacity="1" fill-rule="nonzero"/></g><path fill="#000000" d="M 323.199219 185.214844 C 324.863281 185.214844 326.214844 183.554688 326.214844 181.5 C 326.214844 179.449219 324.863281 177.789062 323.199219 177.789062 C 321.535156 177.789062 320.1875 179.449219 320.1875 181.5 C 320.1875 183.554688 321.535156 185.214844 323.199219 185.214844 Z M 323.199219 185.214844 " fill-opacity="1" fill-rule="nonzero"/><path fill="#000000" d="M 331.335938 198.066406 C 332.613281 198.066406 333.648438 196.3125 333.648438 194.148438 C 333.648438 191.988281 332.613281 190.234375 331.335938 190.234375 C 330.0625 190.234375 329.027344 191.988281 329.027344 194.148438 C 329.027344 196.3125 330.0625 198.066406 331.335938 198.066406 Z M 331.335938 198.066406 " fill-opacity="1" fill-rule="nonzero"/><path fill="#000000" d="M 318.378906 198.0625 C 318.378906 198.460938 318.324219 198.84375 318.210938 199.214844 C 318.101562 199.582031 317.941406 199.910156 317.734375 200.191406 C 317.523438 200.472656 317.285156 200.691406 317.015625 200.84375 C 316.746094 200.996094 316.460938 201.074219 316.167969 201.074219 C 315.875 201.074219 315.59375 200.996094 315.324219 200.84375 C 315.054688 200.691406 314.8125 200.472656 314.605469 200.191406 C 314.398438 199.910156 314.238281 199.582031 314.128906 199.214844 C 314.015625 198.84375 313.960938 198.460938 313.960938 198.0625 C 313.960938 197.664062 314.015625 197.277344 314.128906 196.910156 C 314.238281 196.539062 314.398438 196.214844 314.605469 195.933594 C 314.8125 195.652344 315.054688 195.433594 315.324219 195.28125 C 315.59375 195.128906 315.875 195.050781 316.167969 195.050781 C 316.460938 195.050781 316.746094 195.128906 317.015625 195.28125 C 317.285156 195.433594 317.523438 195.652344 317.734375 195.933594 C 317.941406 196.214844 318.101562 196.539062 318.210938 196.910156 C 318.324219 197.277344 318.378906 197.664062 318.378906 198.0625 Z M 318.378906 198.0625 " fill-opacity="1" fill-rule="nonzero"/><path fill="#000000" d="M 77.207031 174.945312 C 73.644531 190.695312 74.363281 207.390625 79.273438 222.773438 C 80.054688 200.925781 85.917969 180.699219 96.660156 161.652344 C 93.535156 163.988281 90.40625 166.324219 87.28125 168.660156 C 91.152344 156.851562 95.800781 144.46875 99.671875 132.660156 C 88.617188 144.4375 80.773438 159.199219 77.207031 174.945312 Z M 77.207031 174.945312 " fill-opacity="1" fill-rule="nonzero"/><path fill="#000000" d="M 172.570312 81.097656 C 169.765625 82.765625 167.664062 85.578125 166.863281 88.738281 C 167.046875 79.667969 169.144531 70.636719 172.984375 62.414062 C 170.015625 63.804688 167.65625 66.433594 166.59375 69.53125 C 166.414062 61.734375 167.097656 53.972656 168.617188 46.324219 C 158.070312 65.8125 158.902344 89.558594 170.816406 108.269531 C 168.757812 98.898438 169.6875 90.25 172.570312 81.097656 Z M 172.570312 81.097656 " fill-opacity="1" fill-rule="nonzero"/><path fill="#000000" d="M 262.851562 132.808594 C 263.652344 132.011719 263.46875 130.535156 262.449219 129.511719 C 261.425781 128.492188 259.949219 128.3125 259.148438 129.109375 C 258.351562 129.90625 258.53125 131.382812 259.554688 132.40625 C 260.578125 133.425781 262.054688 133.609375 262.851562 132.808594 Z M 262.851562 132.808594 " fill-opacity="1" fill-rule="nonzero"/><path fill="#000000" d="M 272.597656 135.65625 C 274.453125 135.65625 275.953125 134.464844 275.953125 132.996094 C 275.953125 131.53125 274.453125 130.339844 272.597656 130.339844 C 270.746094 130.339844 269.242188 131.53125 269.242188 132.996094 C 269.242188 134.464844 270.746094 135.65625 272.597656 135.65625 Z M 272.597656 135.65625 " fill-opacity="1" fill-rule="nonzero"/><path fill="#000000" d="M 60.546875 42.859375 C 52.40625 36.199219 43.09375 30.6875 32.398438 28.605469 C 39.585938 36.734375 47.238281 43.042969 54.855469 49.632812 C 62.640625 55.996094 70.449219 62.566406 80.253906 67.320312 C 75.421875 57.609375 68.535156 49.730469 60.546875 42.859375 Z M 60.546875 42.859375 " fill-opacity="1" fill-rule="nonzero"/><path fill="#000000" d="M 53.683594 70.613281 C 46.972656 70.292969 40.28125 70.515625 33.445312 71.1875 C 43.421875 75.988281 51.757812 76.746094 57.492188 78.992188 C 63.082031 80.449219 68.691406 79.789062 73.046875 75.96875 C 65.742188 69.445312 58.316406 71.007812 53.683594 70.613281 Z M 53.683594 70.613281 " fill-opacity="1" fill-rule="nonzero"/><path fill="#000000" d="M 92.949219 59.441406 C 93.921875 50.246094 88.488281 46.238281 86.085938 42.726562 C 82.46875 37.894531 78.457031 33.402344 73.96875 29.105469 C 75.972656 38.910156 80.214844 45.441406 81.699219 50.507812 C 84.109375 56.011719 88.191406 58.878906 92.949219 59.441406 Z M 92.949219 59.441406 " fill-opacity="1" fill-rule="nonzero"/></svg>