<svg xmlns="http://www.w3.org/2000/svg" xmlns:xlink="http://www.w3.org/1999/xlink" width="500" zoomAndPan="magnify" viewBox="0 0 375 374.999991" height="500" preserveAspectRatio="xMidYMid meet" version="1.0"><defs><clipPath id="c835095cbd"><path d="M 87 163 L 351.71875 163 L 351.71875 313.414062 L 87 313.414062 Z M 87 163 " clip-rule="nonzero"/></clipPath><clipPath id="b4fb3ae220"><path d="M 23.21875 61.414062 L 308 61.414062 L 308 286 L 23.21875 286 Z M 23.21875 61.414062 " clip-rule="nonzero"/></clipPath></defs><path fill="#000000" d="M 283.910156 311.234375 C 281.441406 311.234375 279.425781 309.21875 279.425781 306.75 L 279.425781 167.6875 C 279.425781 165.21875 281.441406 163.203125 283.910156 163.203125 C 286.378906 163.203125 288.394531 165.21875 288.394531 167.6875 L 288.394531 306.75 C 288.394531 309.21875 286.378906 311.234375 283.910156 311.234375 Z M 283.910156 311.234375 " fill-opacity="1" fill-rule="nonzero"/><path fill="#000000" d="M 243.390625 216.109375 L 142.386719 216.109375 C 139.921875 216.109375 137.902344 214.089844 137.902344 211.625 C 137.902344 209.160156 139.921875 207.140625 142.386719 207.140625 L 243.390625 207.140625 C 245.855469 207.140625 247.875 209.160156 247.875 211.625 C 247.875 214.089844 245.855469 216.109375 243.390625 216.109375 Z M 243.390625 216.109375 " fill-opacity="1" fill-rule="nonzero"/><path fill="#000000" d="M 243.390625 242.710938 L 142.386719 242.710938 C 139.921875 242.710938 137.902344 240.695312 137.902344 238.226562 C 137.902344 235.761719 139.921875 233.742188 142.386719 233.742188 L 243.390625 233.742188 C 245.855469 233.742188 247.875 235.761719 247.875 238.226562 C 247.875 240.695312 245.855469 242.710938 243.390625 242.710938 Z M 243.390625 242.710938 " fill-opacity="1" fill-rule="nonzero"/><path fill="#000000" d="M 210.945312 269.3125 L 142.386719 269.3125 C 139.921875 269.3125 137.902344 267.296875 137.902344 264.828125 C 137.902344 262.363281 139.921875 260.347656 142.386719 260.347656 L 210.945312 260.347656 C 213.410156 260.347656 215.429688 262.363281 215.429688 264.828125 C 215.429688 267.296875 213.410156 269.3125 210.945312 269.3125 Z M 210.945312 269.3125 " fill-opacity="1" fill-rule="nonzero"/><g clip-path="url(#c835095cbd)"><path fill="#000000" d="M 334.523438 313.253906 L 104.257812 313.253906 C 94.765625 313.253906 87.066406 305.554688 87.066406 296.066406 L 87.066406 265.277344 C 87.066406 262.8125 89.082031 260.792969 91.550781 260.792969 C 103.960938 260.792969 114.128906 250.707031 114.128906 238.226562 C 114.128906 225.824219 104.035156 215.660156 91.550781 215.660156 C 89.082031 215.660156 87.066406 213.644531 87.066406 211.175781 L 87.066406 180.390625 C 87.066406 170.898438 94.765625 163.203125 104.257812 163.203125 L 334.523438 163.203125 C 344.019531 163.203125 351.71875 170.898438 351.71875 180.390625 L 351.71875 211.328125 C 351.71875 212.597656 351.195312 213.792969 350.222656 214.6875 C 349.25 215.511719 348.054688 215.960938 346.785156 215.808594 C 345.960938 215.734375 345.140625 215.660156 344.390625 215.660156 C 331.980469 215.660156 321.8125 225.75 321.8125 238.226562 C 321.8125 250.632812 331.90625 260.792969 344.390625 260.792969 C 345.140625 260.792969 345.960938 260.71875 346.785156 260.644531 C 348.054688 260.496094 349.328125 260.945312 350.222656 261.765625 C 351.195312 262.589844 351.71875 263.859375 351.71875 265.128906 L 351.71875 296.066406 C 351.71875 305.554688 343.945312 313.253906 334.523438 313.253906 Z M 96.035156 269.464844 L 96.035156 296.066406 C 96.035156 300.625 99.699219 304.285156 104.257812 304.285156 L 334.523438 304.285156 C 339.085938 304.285156 342.746094 300.625 342.746094 296.066406 L 342.746094 269.6875 C 326.074219 268.863281 312.84375 255.039062 312.84375 238.226562 C 312.84375 221.414062 326.152344 207.589844 342.746094 206.769531 L 342.746094 180.390625 C 342.746094 175.832031 339.085938 172.171875 334.523438 172.171875 L 104.257812 172.171875 C 99.699219 172.171875 96.035156 175.832031 96.035156 180.390625 L 96.035156 206.992188 C 111.289062 209.160156 123.097656 222.3125 123.097656 238.226562 C 123.097656 254.070312 111.363281 267.222656 96.035156 269.464844 Z M 96.035156 269.464844 " fill-opacity="1" fill-rule="nonzero"/></g><g clip-path="url(#b4fb3ae220)"><path fill="#000000" d="M 81.457031 285.679688 C 74.503906 285.679688 67.925781 281.417969 65.382812 274.617188 L 54.46875 245.851562 C 53.570312 243.53125 54.769531 240.917969 57.085938 240.097656 C 68.75 235.6875 74.578125 222.609375 70.167969 211.027344 C 65.757812 199.371094 52.675781 193.542969 41.085938 197.949219 C 38.769531 198.847656 36.152344 197.652344 35.328125 195.335938 L 24.339844 166.492188 C 20.976562 157.597656 25.460938 147.660156 34.285156 144.371094 L 249.59375 62.695312 C 253.855469 61.054688 258.566406 61.203125 262.753906 63.070312 C 266.941406 64.9375 270.15625 68.375 271.800781 72.636719 L 282.789062 101.554688 C 283.238281 102.75 283.164062 104.019531 282.566406 105.214844 C 281.964844 106.335938 280.996094 107.160156 279.722656 107.53125 C 278.976562 107.757812 278.152344 107.980469 277.40625 108.28125 C 271.800781 110.371094 267.3125 114.632812 264.847656 120.085938 C 262.378906 125.542969 262.15625 131.667969 264.324219 137.347656 C 266.492188 142.953125 270.679688 147.4375 276.136719 149.902344 C 281.667969 152.367188 287.796875 152.59375 293.40625 150.425781 C 294.226562 150.125 294.976562 149.828125 295.574219 149.453125 C 296.695312 148.855469 298.039062 148.78125 299.238281 149.304688 C 300.433594 149.753906 301.328125 150.722656 301.777344 151.917969 L 307.160156 166.117188 C 307.683594 167.460938 307.460938 169.03125 306.636719 170.226562 C 305.816406 171.421875 304.394531 172.171875 302.972656 172.171875 L 104.257812 172.171875 C 99.699219 172.171875 96.035156 175.832031 96.035156 180.390625 L 96.035156 206.992188 C 111.289062 209.160156 123.097656 222.3125 123.097656 238.226562 C 123.097656 254.070312 111.289062 267.222656 96.035156 269.464844 L 96.035156 278.28125 C 96.035156 280.148438 94.914062 281.792969 93.121094 282.464844 L 87.511719 284.558594 C 85.570312 285.304688 83.476562 285.679688 81.457031 285.679688 Z M 64.335938 246.523438 L 73.757812 271.40625 C 75.328125 275.664062 80.113281 277.757812 84.375 276.1875 L 87.066406 275.140625 L 87.066406 265.203125 C 87.066406 262.738281 89.082031 260.71875 91.550781 260.71875 C 103.960938 260.71875 114.128906 250.632812 114.128906 238.152344 C 114.128906 225.75 104.035156 215.585938 91.550781 215.585938 C 89.082031 215.585938 87.066406 213.566406 87.066406 211.101562 L 87.066406 180.316406 C 87.066406 170.824219 94.765625 163.128906 104.257812 163.128906 L 296.546875 163.128906 L 295.125 159.316406 C 287.648438 161.707031 279.722656 161.261719 272.546875 158.046875 C 264.847656 154.609375 259.015625 148.332031 256.023438 140.488281 C 253.035156 132.640625 253.257812 124.046875 256.773438 116.351562 C 259.988281 109.175781 265.667969 103.570312 272.847656 100.433594 L 263.5 75.773438 C 262.753906 73.757812 261.183594 72.113281 259.164062 71.214844 C 257.144531 70.320312 254.902344 70.246094 252.882812 70.992188 L 37.574219 152.59375 C 33.3125 154.160156 31.21875 158.945312 32.789062 163.203125 L 42.207031 188.160156 C 57.234375 184.796875 72.933594 192.945312 78.542969 207.738281 C 84.222656 222.609375 77.867188 239.050781 64.335938 246.523438 Z M 64.335938 246.523438 " fill-opacity="1" fill-rule="nonzero"/></g><path fill="#000000" d="M 233.746094 168.058594 C 231.953125 168.058594 230.230469 166.9375 229.558594 165.144531 L 199.730469 86.460938 C 198.832031 84.144531 200.027344 81.527344 202.347656 80.707031 C 204.664062 79.808594 207.28125 81.003906 208.101562 83.320312 L 237.933594 162.007812 C 238.828125 164.324219 237.632812 166.9375 235.316406 167.761719 C 234.792969 167.910156 234.269531 168.058594 233.746094 168.058594 Z M 233.746094 168.058594 " fill-opacity="1" fill-rule="nonzero"/></svg>