<svg xmlns="http://www.w3.org/2000/svg" xmlns:xlink="http://www.w3.org/1999/xlink" width="500" zoomAndPan="magnify" viewBox="0 0 375 374.999991" height="500" preserveAspectRatio="xMidYMid meet" version="1.0"><defs><clipPath id="150a7d3ed5"><path d="M 94 18.75 L 187 18.75 L 187 63 L 94 63 Z M 94 18.75 " clip-rule="nonzero"/></clipPath><clipPath id="a560bf8f70"><path d="M 28 18.75 L 253 18.75 L 253 356.25 L 28 356.25 Z M 28 18.75 " clip-rule="nonzero"/></clipPath><clipPath id="06bc3ab2aa"><path d="M 206 236 L 333 236 L 333 356.25 L 206 356.25 Z M 206 236 " clip-rule="nonzero"/></clipPath><clipPath id="e7113f117a"><path d="M 207 307 L 276 307 L 276 356.25 L 207 356.25 Z M 207 307 " clip-rule="nonzero"/></clipPath><clipPath id="4de0ff2cbb"><path d="M 264 307 L 333 307 L 333 356.25 L 264 356.25 Z M 264 307 " clip-rule="nonzero"/></clipPath></defs><g clip-path="url(#150a7d3ed5)"><path fill="#000000" d="M 167.628906 62.246094 L 113.652344 62.246094 C 103.175781 62.246094 94.671875 53.546875 94.671875 43.070312 L 94.671875 24.089844 C 94.671875 21.121094 97.046875 18.75 99.8125 18.75 L 181.46875 18.75 C 184.433594 18.75 186.808594 21.121094 186.808594 24.089844 L 186.808594 43.070312 C 186.808594 53.546875 178.109375 62.246094 167.628906 62.246094 Z M 167.628906 62.246094 " fill-opacity="1" fill-rule="evenodd"/></g><g clip-path="url(#a560bf8f70)"><path fill="#000000" d="M 217.847656 356.25 L 63.632812 356.25 C 44.453125 356.25 28.832031 340.628906 28.832031 321.453125 L 28.832031 53.546875 C 28.832031 34.371094 44.453125 18.75 63.632812 18.75 L 217.847656 18.75 C 237.027344 18.75 252.449219 34.371094 252.449219 53.546875 L 252.449219 132.832031 C 252.449219 135.796875 250.078125 138.171875 247.308594 138.171875 L 230.898438 138.171875 C 230.898438 138.171875 230.699219 138.171875 230.699219 138.367188 L 230.699219 236.433594 C 230.699219 236.433594 230.898438 236.632812 230.898438 236.632812 C 233.863281 236.632812 236.238281 239.003906 236.238281 241.96875 C 236.238281 244.738281 233.863281 247.109375 230.898438 247.109375 L 217.847656 247.109375 C 217.652344 247.109375 217.652344 247.308594 217.652344 247.308594 L 217.652344 345.375 C 217.652344 345.574219 217.652344 345.574219 217.847656 345.574219 C 220.816406 345.574219 223.1875 347.945312 223.1875 350.910156 C 223.1875 353.878906 220.816406 356.25 217.847656 356.25 Z M 63.632812 29.230469 C 50.1875 29.230469 39.3125 40.101562 39.3125 53.546875 L 39.3125 321.453125 C 39.3125 334.699219 50.1875 345.574219 63.632812 345.574219 L 206.976562 345.574219 C 206.976562 345.574219 206.976562 345.375 206.976562 345.375 L 206.976562 247.308594 C 206.976562 241.378906 211.917969 236.632812 217.847656 236.632812 L 220.222656 236.632812 C 220.222656 236.632812 220.222656 236.433594 220.222656 236.433594 L 220.222656 138.367188 C 220.222656 132.4375 224.96875 127.691406 230.898438 127.691406 L 241.96875 127.691406 L 241.96875 53.546875 C 241.96875 40.101562 231.097656 29.230469 217.847656 29.230469 Z M 63.632812 29.230469 " fill-opacity="1" fill-rule="evenodd"/></g><path fill="#000000" d="M 212.3125 299.308594 L 34.171875 299.308594 C 31.207031 299.308594 28.832031 296.933594 28.832031 293.96875 L 28.832031 80.832031 C 28.832031 78.066406 31.207031 75.691406 34.171875 75.691406 L 247.308594 75.691406 C 250.078125 75.691406 252.449219 78.066406 252.449219 80.832031 L 252.449219 132.832031 C 252.449219 135.796875 250.078125 138.171875 247.308594 138.171875 L 230.898438 138.171875 C 230.898438 138.171875 230.699219 138.367188 230.699219 138.367188 L 230.699219 236.433594 C 230.699219 236.433594 230.898438 236.632812 230.898438 236.632812 C 233.863281 236.632812 236.238281 239.003906 236.238281 241.96875 C 236.238281 244.738281 233.863281 247.109375 230.898438 247.109375 L 217.847656 247.109375 C 217.652344 247.109375 217.652344 247.308594 217.652344 247.308594 L 217.652344 293.96875 C 217.652344 296.933594 215.277344 299.308594 212.3125 299.308594 Z M 39.3125 288.828125 L 206.976562 288.828125 L 206.976562 247.308594 C 206.976562 241.378906 211.917969 236.632812 217.847656 236.632812 L 220.222656 236.632812 C 220.222656 236.632812 220.222656 236.433594 220.222656 236.433594 L 220.222656 138.367188 C 220.222656 132.4375 224.96875 127.691406 230.898438 127.691406 L 241.96875 127.691406 L 241.96875 86.171875 L 39.3125 86.171875 Z M 39.3125 288.828125 " fill-opacity="1" fill-rule="evenodd"/><path fill="#000000" d="M 114.046875 317.695312 C 111.476562 317.695312 109.304688 319.871094 109.304688 322.441406 C 109.304688 325.011719 111.476562 327.1875 114.046875 327.1875 L 170.003906 327.1875 C 172.574219 327.1875 174.746094 325.011719 174.746094 322.441406 C 174.746094 319.871094 172.574219 317.695312 170.003906 317.695312 Z M 114.046875 317.695312 " fill-opacity="1" fill-rule="evenodd"/><path fill="#000000" d="M 170.003906 337.664062 L 114.046875 337.664062 C 105.546875 337.664062 98.824219 330.941406 98.824219 322.441406 C 98.824219 313.9375 105.546875 307.214844 114.046875 307.214844 L 170.003906 307.214844 C 178.304688 307.214844 185.226562 313.9375 185.226562 322.441406 C 185.226562 330.941406 178.304688 337.664062 170.003906 337.664062 Z M 170.003906 337.664062 " fill-opacity="1" fill-rule="evenodd"/><path fill="#000000" d="M 133.425781 261.941406 C 92.496094 261.941406 59.082031 228.527344 59.082031 187.402344 C 59.082031 146.472656 92.496094 113.058594 133.425781 113.058594 C 174.550781 113.058594 207.765625 146.472656 207.765625 187.402344 C 207.765625 228.527344 174.550781 261.941406 133.425781 261.941406 Z M 133.425781 123.539062 C 98.230469 123.539062 69.5625 152.207031 69.5625 187.402344 C 69.5625 222.59375 98.230469 251.261719 133.425781 251.261719 C 168.617188 251.261719 197.285156 222.59375 197.285156 187.402344 C 197.285156 152.207031 168.617188 123.539062 133.425781 123.539062 Z M 133.425781 123.539062 " fill-opacity="1" fill-rule="evenodd"/><path fill="#000000" d="M 123.539062 223.976562 C 118.597656 223.976562 114.046875 222.199219 110.6875 218.640625 L 93.683594 201.636719 C 86.566406 194.714844 86.566406 183.050781 93.683594 176.132812 C 97.046875 172.574219 101.59375 170.792969 106.535156 170.792969 C 111.28125 170.792969 115.828125 172.574219 119.1875 176.132812 L 123.539062 180.285156 L 147.660156 156.164062 C 151.023438 152.800781 155.570312 150.824219 160.3125 150.824219 C 165.257812 150.824219 169.804688 152.800781 173.164062 156.164062 C 180.285156 163.28125 180.285156 174.746094 173.164062 181.863281 L 136.390625 218.640625 C 132.832031 222.199219 128.285156 223.976562 123.539062 223.976562 Z M 123.539062 223.976562 " fill-opacity="1" fill-rule="evenodd"/><g clip-path="url(#06bc3ab2aa)"><path fill="#000000" d="M 322.242188 356.25 L 217.847656 356.25 C 211.917969 356.25 206.976562 351.308594 206.976562 345.375 L 206.976562 247.308594 C 206.976562 241.378906 211.917969 236.632812 217.847656 236.632812 L 322.242188 236.632812 C 328.175781 236.632812 332.917969 241.378906 332.917969 247.308594 L 332.917969 345.375 C 332.917969 351.308594 328.175781 356.25 322.242188 356.25 Z M 217.847656 247.109375 C 217.652344 247.109375 217.652344 247.308594 217.652344 247.308594 L 217.652344 345.375 C 217.652344 345.574219 217.652344 345.574219 217.847656 345.574219 L 322.242188 345.574219 C 322.242188 345.574219 322.441406 345.574219 322.441406 345.375 L 322.441406 247.308594 C 322.441406 247.308594 322.242188 247.109375 322.242188 247.109375 Z M 217.847656 247.109375 " fill-opacity="1" fill-rule="evenodd"/></g><g clip-path="url(#e7113f117a)"><path fill="#000000" d="M 270.046875 356.25 C 269.058594 356.25 268.070312 355.855469 267.082031 355.261719 L 209.347656 317.300781 C 206.976562 315.71875 206.382812 312.355469 207.964844 309.984375 C 209.546875 307.613281 212.707031 306.820312 215.277344 308.402344 L 272.8125 346.5625 C 275.382812 348.144531 275.976562 351.308594 274.394531 353.878906 C 273.40625 355.261719 271.628906 356.25 270.046875 356.25 Z M 270.046875 356.25 " fill-opacity="1" fill-rule="evenodd"/></g><g clip-path="url(#4de0ff2cbb)"><path fill="#000000" d="M 270.046875 356.25 C 268.265625 356.25 266.488281 355.261719 265.5 353.878906 C 263.917969 351.308594 264.707031 348.144531 267.082031 346.5625 L 324.8125 308.402344 C 327.1875 306.820312 330.546875 307.613281 332.128906 309.984375 C 333.710938 312.355469 332.917969 315.71875 330.546875 317.300781 L 272.8125 355.261719 C 272.023438 355.855469 271.035156 356.25 270.046875 356.25 Z M 270.046875 356.25 " fill-opacity="1" fill-rule="evenodd"/></g><path fill="#000000" d="M 289.421875 297.925781 C 288.234375 297.925781 287.246094 297.527344 286.257812 296.738281 L 270.046875 284.675781 L 253.636719 296.738281 C 252.054688 297.925781 249.878906 298.121094 248.101562 297.332031 C 246.320312 296.34375 245.332031 294.5625 245.332031 292.585938 L 245.332031 241.96875 C 245.332031 239.003906 247.703125 236.632812 250.472656 236.632812 C 253.4375 236.632812 255.8125 239.003906 255.8125 241.96875 L 255.8125 282.105469 L 266.882812 274 C 268.660156 272.617188 271.230469 272.617188 273.011719 274 L 284.082031 282.105469 L 284.082031 241.96875 C 284.082031 239.003906 286.457031 236.632812 289.421875 236.632812 C 292.386719 236.632812 294.761719 239.003906 294.761719 241.96875 L 294.761719 292.585938 C 294.761719 294.5625 293.574219 296.34375 291.792969 297.332031 C 291.003906 297.726562 290.214844 297.925781 289.421875 297.925781 Z M 289.421875 297.925781 " fill-opacity="1" fill-rule="evenodd"/><path fill="#000000" d="M 335.292969 247.109375 L 230.898438 247.109375 C 224.96875 247.109375 220.222656 242.367188 220.222656 236.433594 L 220.222656 138.367188 C 220.222656 132.4375 224.96875 127.691406 230.898438 127.691406 L 335.292969 127.691406 C 341.222656 127.691406 346.167969 132.4375 346.167969 138.367188 L 346.167969 236.433594 C 346.167969 242.367188 341.222656 247.109375 335.292969 247.109375 Z M 230.898438 138.171875 C 230.898438 138.171875 230.699219 138.171875 230.699219 138.367188 L 230.699219 236.433594 C 230.699219 236.433594 230.898438 236.632812 230.898438 236.632812 L 335.292969 236.632812 C 335.488281 236.632812 335.488281 236.433594 335.488281 236.433594 L 335.488281 138.367188 C 335.488281 138.171875 335.488281 138.171875 335.292969 138.171875 Z M 230.898438 138.171875 " fill-opacity="1" fill-rule="evenodd"/><path fill="#000000" d="M 283.09375 247.109375 C 282.105469 247.109375 281.117188 246.914062 280.328125 246.320312 L 222.59375 208.359375 C 220.222656 206.777344 219.429688 203.417969 221.011719 201.042969 C 222.59375 198.472656 225.957031 197.878906 228.328125 199.460938 L 286.0625 237.421875 C 288.433594 239.003906 289.222656 242.367188 287.644531 244.738281 C 286.457031 246.320312 284.875 247.109375 283.09375 247.109375 Z M 283.09375 247.109375 " fill-opacity="1" fill-rule="evenodd"/><path fill="#000000" d="M 283.09375 247.109375 C 281.316406 247.109375 279.734375 246.320312 278.746094 244.738281 C 277.164062 242.367188 277.757812 239.003906 280.128906 237.421875 L 337.863281 199.460938 C 340.433594 197.878906 343.597656 198.472656 345.179688 201.042969 C 346.757812 203.417969 346.167969 206.777344 343.792969 208.359375 L 286.0625 246.320312 C 285.074219 246.914062 284.082031 247.109375 283.09375 247.109375 Z M 283.09375 247.109375 " fill-opacity="1" fill-rule="evenodd"/><path fill="#000000" d="M 302.472656 188.785156 C 301.484375 188.785156 300.296875 188.585938 299.503906 187.796875 L 283.09375 175.734375 L 266.882812 187.796875 C 265.300781 188.984375 263.125 189.179688 261.347656 188.191406 C 259.566406 187.402344 258.382812 185.621094 258.382812 183.644531 L 258.382812 132.832031 C 258.382812 130.0625 260.753906 127.691406 263.71875 127.691406 C 266.683594 127.691406 268.859375 130.0625 268.859375 132.832031 L 268.859375 173.164062 L 279.933594 165.058594 C 281.910156 163.675781 284.480469 163.675781 286.257812 165.058594 L 297.332031 173.164062 L 297.332031 132.832031 C 297.332031 130.0625 299.703125 127.691406 302.472656 127.691406 C 305.4375 127.691406 307.808594 130.0625 307.808594 132.832031 L 307.808594 183.644531 C 307.808594 185.621094 306.625 187.402344 304.84375 188.191406 C 304.25 188.585938 303.460938 188.785156 302.472656 188.785156 Z M 302.472656 188.785156 " fill-opacity="1" fill-rule="evenodd"/></svg>