<svg xmlns="http://www.w3.org/2000/svg" xmlns:xlink="http://www.w3.org/1999/xlink" width="500" zoomAndPan="magnify" viewBox="0 0 375 374.999991" height="500" preserveAspectRatio="xMidYMid meet" version="1.0"><defs><clipPath id="b6e5913fc5"><path d="M 0 0 L 365.25 0 L 365.25 365.25 L 0 365.25 Z M 0 0 " clip-rule="nonzero"/></clipPath></defs><g clip-path="url(#b6e5913fc5)"><path fill="#000000" d="M 365.269531 182.660156 C 365.269531 185.652344 365.195312 188.636719 365.046875 191.625 C 364.902344 194.609375 364.683594 197.589844 364.390625 200.5625 C 364.097656 203.539062 363.730469 206.503906 363.292969 209.460938 C 362.851562 212.417969 362.34375 215.359375 361.757812 218.292969 C 361.175781 221.222656 360.519531 224.140625 359.796875 227.039062 C 359.070312 229.9375 358.273438 232.816406 357.402344 235.679688 C 356.535156 238.539062 355.597656 241.375 354.59375 244.191406 C 353.585938 247.003906 352.511719 249.792969 351.367188 252.554688 C 350.222656 255.316406 349.011719 258.046875 347.734375 260.75 C 346.457031 263.449219 345.113281 266.121094 343.703125 268.757812 C 342.292969 271.390625 340.820312 273.992188 339.285156 276.554688 C 337.746094 279.121094 336.148438 281.644531 334.488281 284.128906 C 332.828125 286.613281 331.109375 289.058594 329.328125 291.457031 C 327.546875 293.859375 325.707031 296.214844 323.8125 298.523438 C 321.914062 300.835938 319.964844 303.097656 317.957031 305.3125 C 315.949219 307.527344 313.890625 309.691406 311.777344 311.804688 C 309.660156 313.917969 307.496094 315.980469 305.28125 317.988281 C 303.070312 319.992188 300.804688 321.945312 298.496094 323.84375 C 296.183594 325.738281 293.828125 327.578125 291.429688 329.355469 C 289.027344 331.136719 286.585938 332.859375 284.097656 334.519531 C 281.613281 336.179688 279.089844 337.777344 276.527344 339.316406 C 273.960938 340.851562 271.363281 342.324219 268.726562 343.734375 C 266.089844 345.140625 263.421875 346.484375 260.71875 347.761719 C 258.015625 349.042969 255.285156 350.253906 252.523438 351.394531 C 249.761719 352.539062 246.976562 353.617188 244.160156 354.621094 C 241.347656 355.628906 238.507812 356.566406 235.648438 357.433594 C 232.789062 358.300781 229.910156 359.097656 227.007812 359.824219 C 224.109375 360.550781 221.195312 361.207031 218.261719 361.789062 C 215.332031 362.371094 212.386719 362.882812 209.429688 363.320312 C 206.472656 363.761719 203.507812 364.125 200.535156 364.417969 C 197.558594 364.710938 194.578125 364.933594 191.59375 365.078125 C 188.609375 365.226562 185.621094 365.296875 182.632812 365.296875 C 179.644531 365.296875 176.65625 365.226562 173.671875 365.078125 C 170.683594 364.933594 167.707031 364.710938 164.730469 364.417969 C 161.757812 364.125 158.789062 363.761719 155.832031 363.320312 C 152.878906 362.882812 149.933594 362.371094 147 361.789062 C 144.070312 361.207031 141.15625 360.550781 138.253906 359.824219 C 135.355469 359.097656 132.476562 358.300781 129.617188 357.433594 C 126.753906 356.566406 123.917969 355.628906 121.105469 354.621094 C 118.289062 353.617188 115.5 352.539062 112.738281 351.394531 C 109.980469 350.253906 107.246094 349.042969 104.542969 347.761719 C 101.84375 346.484375 99.171875 345.140625 96.539062 343.734375 C 93.902344 342.324219 91.300781 340.851562 88.738281 339.316406 C 86.175781 337.777344 83.648438 336.179688 81.164062 334.519531 C 78.679688 332.859375 76.234375 331.136719 73.835938 329.355469 C 71.433594 327.578125 69.078125 325.738281 66.769531 323.84375 C 64.457031 321.945312 62.195312 319.992188 59.980469 317.988281 C 57.765625 315.980469 55.601562 313.917969 53.488281 311.804688 C 51.375 309.691406 49.316406 307.527344 47.308594 305.3125 C 45.300781 303.097656 43.347656 300.835938 41.453125 298.523438 C 39.554688 296.214844 37.71875 293.859375 35.9375 291.457031 C 34.15625 289.058594 32.4375 286.613281 30.773438 284.128906 C 29.113281 281.644531 27.515625 279.121094 25.980469 276.554688 C 24.441406 273.992188 22.96875 271.390625 21.5625 268.757812 C 20.152344 266.121094 18.808594 263.449219 17.53125 260.75 C 16.253906 258.046875 15.042969 255.316406 13.898438 252.554688 C 12.753906 249.792969 11.679688 247.003906 10.671875 244.191406 C 9.664062 241.375 8.726562 238.539062 7.859375 235.679688 C 6.992188 232.816406 6.195312 229.9375 5.46875 227.039062 C 4.742188 224.140625 4.089844 221.222656 3.503906 218.292969 C 2.921875 215.359375 2.410156 212.417969 1.972656 209.460938 C 1.535156 206.503906 1.167969 203.539062 0.875 200.5625 C 0.582031 197.589844 0.363281 194.609375 0.214844 191.625 C 0.0703125 188.636719 -0.00390625 185.652344 -0.00390625 182.660156 C -0.00390625 179.671875 0.0703125 176.6875 0.214844 173.699219 C 0.363281 170.714844 0.582031 167.734375 0.875 164.761719 C 1.167969 161.785156 1.535156 158.820312 1.972656 155.863281 C 2.410156 152.90625 2.921875 149.964844 3.503906 147.03125 C 4.089844 144.101562 4.742188 141.183594 5.46875 138.285156 C 6.195312 135.386719 6.992188 132.503906 7.859375 129.644531 C 8.726562 126.785156 9.664062 123.949219 10.671875 121.132812 C 11.679688 118.320312 12.753906 115.53125 13.898438 112.769531 C 15.042969 110.007812 16.253906 107.277344 17.53125 104.574219 C 18.808594 101.871094 20.152344 99.203125 21.5625 96.566406 C 22.96875 93.933594 24.441406 91.332031 25.980469 88.769531 C 27.515625 86.203125 29.113281 83.679688 30.773438 81.195312 C 32.4375 78.710938 34.15625 76.265625 35.9375 73.867188 C 37.71875 71.464844 39.554688 69.109375 41.453125 66.796875 C 43.347656 64.488281 45.300781 62.226562 47.308594 60.011719 C 49.316406 57.796875 51.375 55.632812 53.488281 53.519531 C 55.601562 51.40625 57.765625 49.34375 59.980469 47.335938 C 62.195312 45.328125 64.457031 43.378906 66.769531 41.480469 C 69.078125 39.585938 71.433594 37.746094 73.835938 35.96875 C 76.234375 34.1875 78.679688 32.464844 81.164062 30.804688 C 83.648438 29.144531 86.175781 27.546875 88.738281 26.007812 C 91.300781 24.472656 93.902344 23 96.539062 21.589844 C 99.171875 20.183594 101.84375 18.839844 104.542969 17.558594 C 107.246094 16.28125 109.980469 15.070312 112.738281 13.929688 C 115.5 12.785156 118.289062 11.707031 121.105469 10.703125 C 123.917969 9.695312 126.753906 8.757812 129.617188 7.890625 C 132.476562 7.023438 135.355469 6.226562 138.253906 5.5 C 141.15625 4.773438 144.070312 4.117188 147 3.535156 C 149.933594 2.953125 152.878906 2.441406 155.832031 2.003906 C 158.789062 1.5625 161.757812 1.199219 164.730469 0.90625 C 167.707031 0.613281 170.683594 0.390625 173.671875 0.246094 C 176.65625 0.0976562 179.644531 0.0273438 182.632812 0.0273438 C 185.621094 0.0273438 188.609375 0.0976562 191.59375 0.246094 C 194.578125 0.390625 197.558594 0.613281 200.535156 0.90625 C 203.507812 1.199219 206.472656 1.5625 209.429688 2.003906 C 212.386719 2.441406 215.332031 2.953125 218.261719 3.535156 C 221.195312 4.117188 224.109375 4.773438 227.007812 5.5 C 229.910156 6.226562 232.789062 7.023438 235.648438 7.890625 C 238.507812 8.757812 241.347656 9.695312 244.160156 10.703125 C 246.972656 11.707031 249.761719 12.785156 252.523438 13.929688 C 255.285156 15.070312 258.015625 16.28125 260.71875 17.558594 C 263.421875 18.839844 266.089844 20.183594 268.726562 21.589844 C 271.363281 23 273.960938 24.472656 276.527344 26.007812 C 279.089844 27.546875 281.613281 29.144531 284.097656 30.804688 C 286.585938 32.464844 289.027344 34.1875 291.429688 35.96875 C 293.828125 37.746094 296.183594 39.585938 298.496094 41.480469 C 300.804688 43.378906 303.070312 45.328125 305.28125 47.335938 C 307.496094 49.34375 309.660156 51.40625 311.777344 53.519531 C 313.890625 55.632812 315.949219 57.796875 317.957031 60.011719 C 319.964844 62.226562 321.914062 64.488281 323.8125 66.796875 C 325.707031 69.109375 327.546875 71.464844 329.328125 73.867188 C 331.109375 76.265625 332.828125 78.710938 334.488281 81.195312 C 336.148438 83.679688 337.746094 86.203125 339.285156 88.769531 C 340.820312 91.332031 342.292969 93.933594 343.703125 96.566406 C 345.113281 99.203125 346.457031 101.871094 347.734375 104.574219 C 349.011719 107.277344 350.222656 110.007812 351.367188 112.769531 C 352.511719 115.53125 353.585938 118.320312 354.59375 121.132812 C 355.597656 123.949219 356.535156 126.785156 357.402344 129.644531 C 358.273438 132.503906 359.070312 135.386719 359.796875 138.285156 C 360.519531 141.183594 361.175781 144.101562 361.757812 147.03125 C 362.34375 149.964844 362.851562 152.90625 363.292969 155.863281 C 363.730469 158.820312 364.097656 161.785156 364.390625 164.761719 C 364.683594 167.734375 364.902344 170.714844 365.046875 173.699219 C 365.195312 176.6875 365.269531 179.671875 365.269531 182.660156 Z M 365.269531 182.660156 " fill-opacity="1" fill-rule="nonzero"/></g><path fill="#ffffff" d="M 271.507812 186.636719 C 269.375 186.359375 267.175781 186.214844 264.980469 186.214844 C 237.253906 186.214844 214.761719 208.710938 214.761719 236.417969 C 214.761719 248 218.707031 258.664062 225.296875 267.160156 L 107.285156 267.160156 C 103.730469 267.160156 100.304688 265.75 97.78125 263.226562 C 95.261719 260.707031 93.90625 257.289062 93.90625 253.726562 L 93.90625 122.5 C 93.90625 118.9375 95.261719 115.515625 97.78125 112.996094 C 100.304688 110.476562 103.730469 109.066406 107.285156 109.066406 L 258.066406 109.066406 C 261.621094 109.066406 265.042969 110.476562 267.566406 112.996094 C 270.085938 115.515625 271.507812 118.9375 271.507812 122.5 Z M 271.507812 186.636719 " fill-opacity="1" fill-rule="evenodd"/><path fill="#000000" d="M 154.125 134.675781 C 154.125 135.496094 154.042969 136.308594 153.882812 137.113281 C 153.722656 137.917969 153.488281 138.699219 153.171875 139.457031 C 152.859375 140.214844 152.472656 140.9375 152.019531 141.617188 C 151.5625 142.300781 151.042969 142.929688 150.464844 143.511719 C 149.886719 144.089844 149.253906 144.609375 148.570312 145.066406 C 147.890625 145.519531 147.167969 145.90625 146.414062 146.21875 C 145.652344 146.53125 144.875 146.769531 144.070312 146.929688 C 143.265625 147.089844 142.453125 147.167969 141.632812 147.167969 C 140.8125 147.167969 140 147.089844 139.195312 146.929688 C 138.390625 146.769531 137.609375 146.53125 136.851562 146.21875 C 136.09375 145.90625 135.371094 145.519531 134.691406 145.066406 C 134.007812 144.609375 133.375 144.089844 132.796875 143.511719 C 132.21875 142.929688 131.699219 142.300781 131.242188 141.617188 C 130.789062 140.9375 130.402344 140.214844 130.089844 139.457031 C 129.777344 138.699219 129.539062 137.917969 129.378906 137.113281 C 129.21875 136.308594 129.140625 135.496094 129.140625 134.675781 C 129.140625 133.855469 129.21875 133.042969 129.378906 132.238281 C 129.539062 131.4375 129.777344 130.652344 130.089844 129.894531 C 130.402344 129.136719 130.789062 128.417969 131.242188 127.738281 C 131.699219 127.054688 132.21875 126.421875 132.796875 125.84375 C 133.375 125.261719 134.007812 124.746094 134.691406 124.289062 C 135.371094 123.835938 136.09375 123.449219 136.851562 123.136719 C 137.609375 122.820312 138.390625 122.585938 139.195312 122.425781 C 140 122.265625 140.8125 122.183594 141.632812 122.183594 C 142.453125 122.183594 143.265625 122.265625 144.070312 122.425781 C 144.875 122.585938 145.652344 122.820312 146.414062 123.136719 C 147.167969 123.449219 147.890625 123.835938 148.570312 124.289062 C 149.253906 124.746094 149.886719 125.261719 150.464844 125.84375 C 151.042969 126.421875 151.5625 127.054688 152.019531 127.738281 C 152.472656 128.417969 152.859375 129.140625 153.171875 129.898438 C 153.488281 130.652344 153.722656 131.4375 153.882812 132.238281 C 154.042969 133.042969 154.125 133.855469 154.125 134.675781 Z M 154.125 134.675781 " fill-opacity="1" fill-rule="nonzero"/><path fill="#000000" d="M 236.109375 134.675781 C 236.109375 135.496094 236.03125 136.308594 235.871094 137.113281 C 235.710938 137.917969 235.472656 138.699219 235.160156 139.457031 C 234.84375 140.214844 234.460938 140.9375 234.003906 141.617188 C 233.546875 142.300781 233.03125 142.929688 232.449219 143.511719 C 231.871094 144.089844 231.238281 144.609375 230.558594 145.066406 C 229.875 145.519531 229.15625 145.90625 228.398438 146.21875 C 227.640625 146.53125 226.859375 146.769531 226.054688 146.929688 C 225.25 147.089844 224.4375 147.167969 223.617188 147.167969 C 222.796875 147.167969 221.984375 147.089844 221.179688 146.929688 C 220.375 146.769531 219.59375 146.53125 218.835938 146.21875 C 218.078125 145.90625 217.359375 145.519531 216.675781 145.066406 C 215.996094 144.609375 215.363281 144.089844 214.785156 143.511719 C 214.203125 142.929688 213.683594 142.300781 213.230469 141.617188 C 212.773438 140.9375 212.390625 140.214844 212.074219 139.457031 C 211.761719 138.699219 211.523438 137.917969 211.363281 137.113281 C 211.207031 136.308594 211.125 135.496094 211.125 134.675781 C 211.125 133.855469 211.207031 133.042969 211.363281 132.238281 C 211.523438 131.4375 211.761719 130.652344 212.074219 129.894531 C 212.390625 129.136719 212.773438 128.417969 213.230469 127.738281 C 213.683594 127.054688 214.203125 126.421875 214.785156 125.84375 C 215.363281 125.261719 215.996094 124.746094 216.675781 124.289062 C 217.359375 123.835938 218.078125 123.449219 218.835938 123.136719 C 219.59375 122.820312 220.375 122.585938 221.179688 122.425781 C 221.984375 122.265625 222.796875 122.183594 223.617188 122.183594 C 224.4375 122.183594 225.25 122.265625 226.054688 122.425781 C 226.859375 122.585938 227.640625 122.820312 228.398438 123.136719 C 229.15625 123.449219 229.875 123.835938 230.558594 124.289062 C 231.238281 124.746094 231.871094 125.261719 232.449219 125.84375 C 233.03125 126.421875 233.546875 127.054688 234.003906 127.738281 C 234.460938 128.417969 234.84375 129.140625 235.160156 129.898438 C 235.472656 130.652344 235.710938 131.4375 235.871094 132.238281 C 236.03125 133.042969 236.109375 133.855469 236.109375 134.675781 Z M 236.109375 134.675781 " fill-opacity="1" fill-rule="nonzero"/><path fill="#ffffff" d="M 136.167969 98.160156 C 136.167969 95.121094 138.613281 92.652344 141.6875 92.652344 C 144.691406 92.652344 147.140625 95.121094 147.140625 98.160156 L 147.140625 133.722656 C 147.140625 136.765625 144.691406 139.226562 141.6875 139.226562 C 138.613281 139.226562 136.167969 136.765625 136.167969 133.722656 Z M 136.167969 98.160156 " fill-opacity="1" fill-rule="evenodd"/><path fill="#ffffff" d="M 218.152344 98.160156 C 218.152344 95.121094 220.597656 92.652344 223.671875 92.652344 C 226.679688 92.652344 229.125 95.121094 229.125 98.160156 L 229.125 133.722656 C 229.125 136.765625 226.679688 139.226562 223.671875 139.226562 C 220.597656 139.226562 218.152344 136.765625 218.152344 133.722656 Z M 218.152344 98.160156 " fill-opacity="1" fill-rule="evenodd"/><path fill="#000000" d="M 261.742188 158.359375 C 261.742188 158.359375 261.742188 227.390625 261.742188 248.679688 C 261.742188 250.320312 261.097656 251.898438 259.890625 253.050781 C 258.765625 254.210938 257.152344 254.859375 255.542969 254.859375 L 111.421875 254.859375 C 109.808594 254.859375 108.199219 254.210938 107.070312 253.050781 C 105.863281 251.898438 105.21875 250.320312 105.21875 248.679688 C 105.21875 227.390625 105.21875 158.359375 105.21875 158.359375 Z M 261.742188 158.359375 " fill-opacity="1" fill-rule="evenodd"/><path fill="#000000" d="M 304.566406 236.421875 C 304.566406 237.722656 304.503906 239.015625 304.375 240.308594 C 304.25 241.601562 304.058594 242.882812 303.804688 244.15625 C 303.550781 245.429688 303.238281 246.6875 302.859375 247.929688 C 302.484375 249.171875 302.046875 250.394531 301.550781 251.59375 C 301.054688 252.792969 300.5 253.964844 299.886719 255.109375 C 299.273438 256.253906 298.609375 257.367188 297.886719 258.445312 C 297.164062 259.523438 296.394531 260.566406 295.570312 261.570312 C 294.746094 262.574219 293.875 263.535156 292.957031 264.453125 C 292.039062 265.371094 291.078125 266.242188 290.074219 267.0625 C 289.070312 267.886719 288.03125 268.660156 286.949219 269.382812 C 285.871094 270.101562 284.757812 270.769531 283.613281 271.382812 C 282.46875 271.992188 281.296875 272.546875 280.097656 273.042969 C 278.898438 273.542969 277.679688 273.976562 276.433594 274.355469 C 275.191406 274.730469 273.933594 275.046875 272.660156 275.300781 C 271.390625 275.554688 270.105469 275.742188 268.8125 275.871094 C 267.523438 276 266.226562 276.0625 264.929688 276.0625 C 263.632812 276.0625 262.335938 276 261.042969 275.871094 C 259.75 275.742188 258.46875 275.554688 257.195312 275.300781 C 255.921875 275.046875 254.664062 274.730469 253.421875 274.355469 C 252.179688 273.976562 250.960938 273.542969 249.757812 273.042969 C 248.558594 272.546875 247.386719 271.992188 246.242188 271.382812 C 245.097656 270.769531 243.988281 270.101562 242.90625 269.382812 C 241.828125 268.660156 240.785156 267.886719 239.78125 267.0625 C 238.78125 266.242188 237.820312 265.371094 236.902344 264.453125 C 235.984375 263.535156 235.113281 262.574219 234.289062 261.570312 C 233.464844 260.566406 232.691406 259.523438 231.972656 258.445312 C 231.25 257.367188 230.582031 256.253906 229.972656 255.109375 C 229.359375 253.964844 228.804688 252.792969 228.308594 251.59375 C 227.8125 250.394531 227.375 249.171875 226.996094 247.929688 C 226.621094 246.6875 226.304688 245.429688 226.050781 244.15625 C 225.800781 242.882812 225.609375 241.601562 225.480469 240.308594 C 225.355469 239.015625 225.289062 237.722656 225.289062 236.421875 C 225.289062 235.125 225.355469 233.828125 225.480469 232.539062 C 225.609375 231.246094 225.800781 229.964844 226.050781 228.691406 C 226.304688 227.417969 226.621094 226.160156 226.996094 224.917969 C 227.375 223.675781 227.8125 222.453125 228.308594 221.253906 C 228.804688 220.054688 229.359375 218.882812 229.972656 217.738281 C 230.582031 216.59375 231.25 215.480469 231.972656 214.402344 C 232.691406 213.320312 233.464844 212.28125 234.289062 211.277344 C 235.113281 210.273438 235.984375 209.3125 236.902344 208.394531 C 237.820312 207.476562 238.78125 206.605469 239.78125 205.78125 C 240.785156 204.957031 241.828125 204.1875 242.90625 203.464844 C 243.988281 202.742188 245.097656 202.078125 246.242188 201.464844 C 247.386719 200.851562 248.5625 200.300781 249.761719 199.800781 C 250.960938 199.304688 252.179688 198.867188 253.421875 198.492188 C 254.664062 198.113281 255.921875 197.800781 257.195312 197.546875 C 258.46875 197.292969 259.753906 197.101562 261.042969 196.976562 C 262.335938 196.847656 263.632812 196.785156 264.929688 196.785156 C 266.226562 196.785156 267.523438 196.847656 268.8125 196.976562 C 270.105469 197.101562 271.390625 197.292969 272.660156 197.546875 C 273.933594 197.800781 275.191406 198.113281 276.433594 198.492188 C 277.675781 198.867188 278.898438 199.304688 280.097656 199.800781 C 281.296875 200.300781 282.46875 200.851562 283.613281 201.464844 C 284.757812 202.078125 285.871094 202.742188 286.949219 203.464844 C 288.03125 204.1875 289.070312 204.957031 290.074219 205.78125 C 291.078125 206.605469 292.039062 207.476562 292.957031 208.394531 C 293.875 209.3125 294.746094 210.273438 295.570312 211.277344 C 296.394531 212.28125 297.164062 213.320312 297.886719 214.402344 C 298.609375 215.480469 299.273438 216.59375 299.886719 217.738281 C 300.5 218.882812 301.054688 220.054688 301.550781 221.253906 C 302.046875 222.453125 302.484375 223.675781 302.859375 224.917969 C 303.238281 226.160156 303.550781 227.417969 303.804688 228.691406 C 304.058594 229.964844 304.25 231.246094 304.375 232.539062 C 304.503906 233.828125 304.566406 235.125 304.566406 236.421875 Z M 304.566406 236.421875 " fill-opacity="1" fill-rule="nonzero"/><path fill="#ffffff" d="M 264.933594 193.273438 C 288.746094 193.273438 308.082031 212.609375 308.082031 236.425781 C 308.082031 260.238281 288.746094 279.574219 264.933594 279.574219 C 241.117188 279.574219 221.785156 260.238281 221.785156 236.425781 C 221.785156 212.609375 241.117188 193.273438 264.933594 193.273438 Z M 264.933594 201.660156 C 284.117188 201.660156 299.699219 217.238281 299.699219 236.425781 C 299.699219 255.609375 284.117188 271.183594 264.933594 271.183594 C 245.746094 271.183594 230.171875 255.609375 230.171875 236.425781 C 230.171875 217.238281 245.746094 201.660156 264.933594 201.660156 Z M 264.933594 201.660156 " fill-opacity="1" fill-rule="evenodd"/><path fill="#ffffff" d="M 268.445312 236.425781 C 268.445312 238.363281 266.871094 239.9375 264.929688 239.9375 C 262.992188 239.9375 261.421875 238.363281 261.421875 236.425781 L 261.421875 217.023438 C 261.421875 215.082031 262.992188 213.507812 264.929688 213.507812 C 266.871094 213.507812 268.445312 215.082031 268.445312 217.023438 Z M 268.445312 236.425781 " fill-opacity="1" fill-rule="evenodd"/><path fill="#ffffff" d="M 264.945312 239.9375 C 263.007812 239.9375 261.429688 238.363281 261.429688 236.425781 C 261.429688 234.484375 263.007812 232.914062 264.945312 232.914062 L 284.347656 232.914062 C 286.285156 232.914062 287.859375 234.484375 287.859375 236.425781 C 287.859375 238.363281 286.285156 239.9375 284.347656 239.9375 Z M 264.945312 239.9375 " fill-opacity="1" fill-rule="evenodd"/><path fill="#ffffff" d="M 138.636719 170.300781 C 138.867188 170.300781 139.09375 170.390625 139.25 170.554688 C 139.421875 170.71875 139.507812 170.941406 139.507812 171.171875 C 139.507812 174.265625 139.507812 184.691406 139.507812 187.785156 C 139.507812 188.015625 139.421875 188.238281 139.25 188.402344 C 139.09375 188.5625 138.867188 188.65625 138.636719 188.65625 L 119.71875 188.65625 C 119.488281 188.65625 119.261719 188.5625 119.097656 188.402344 C 118.941406 188.238281 118.84375 188.015625 118.84375 187.785156 C 118.84375 184.691406 118.84375 174.265625 118.84375 171.171875 C 118.84375 170.941406 118.941406 170.71875 119.097656 170.554688 C 119.261719 170.390625 119.488281 170.300781 119.71875 170.300781 C 123.089844 170.300781 135.265625 170.300781 138.636719 170.300781 Z M 138.636719 170.300781 " fill-opacity="1" fill-rule="evenodd"/><path fill="#ffffff" d="M 174.8125 170.300781 C 175.042969 170.300781 175.269531 170.390625 175.425781 170.554688 C 175.597656 170.71875 175.6875 170.941406 175.6875 171.171875 L 175.6875 187.785156 C 175.6875 188.015625 175.597656 188.238281 175.425781 188.402344 C 175.269531 188.5625 175.042969 188.65625 174.8125 188.65625 L 155.894531 188.65625 C 155.664062 188.65625 155.4375 188.5625 155.273438 188.402344 C 155.117188 188.238281 155.023438 188.015625 155.023438 187.785156 C 155.023438 184.691406 155.023438 174.265625 155.023438 171.171875 C 155.023438 170.941406 155.117188 170.71875 155.273438 170.554688 C 155.4375 170.390625 155.664062 170.300781 155.894531 170.300781 C 159.265625 170.300781 171.441406 170.300781 174.8125 170.300781 Z M 174.8125 170.300781 " fill-opacity="1" fill-rule="evenodd"/><path fill="#ffffff" d="M 210.988281 170.300781 C 211.222656 170.300781 211.445312 170.390625 211.601562 170.554688 C 211.773438 170.71875 211.863281 170.941406 211.863281 171.171875 C 211.863281 174.265625 211.863281 184.691406 211.863281 187.785156 C 211.863281 188.015625 211.773438 188.238281 211.601562 188.402344 C 211.445312 188.5625 211.222656 188.65625 210.988281 188.65625 C 207.617188 188.65625 195.441406 188.65625 192.070312 188.65625 C 191.839844 188.65625 191.613281 188.5625 191.449219 188.402344 C 191.292969 188.238281 191.199219 188.015625 191.199219 187.785156 C 191.199219 184.691406 191.199219 174.265625 191.199219 171.171875 C 191.199219 170.941406 191.292969 170.71875 191.449219 170.554688 C 191.613281 170.390625 191.839844 170.300781 192.070312 170.300781 C 195.441406 170.300781 207.617188 170.300781 210.988281 170.300781 Z M 210.988281 170.300781 " fill-opacity="1" fill-rule="evenodd"/><path fill="#ffffff" d="M 247.164062 170.300781 C 247.398438 170.300781 247.621094 170.390625 247.777344 170.554688 C 247.949219 170.71875 248.039062 170.941406 248.039062 171.171875 C 248.039062 174.265625 248.039062 184.691406 248.039062 187.785156 C 248.039062 188.015625 247.949219 188.238281 247.777344 188.402344 C 247.621094 188.5625 247.398438 188.65625 247.164062 188.65625 L 228.246094 188.65625 C 228.015625 188.65625 227.789062 188.5625 227.625 188.402344 C 227.46875 188.238281 227.375 188.015625 227.375 187.785156 C 227.375 184.691406 227.375 174.265625 227.375 171.171875 C 227.375 170.941406 227.46875 170.71875 227.625 170.554688 C 227.789062 170.390625 228.015625 170.300781 228.246094 170.300781 C 231.617188 170.300781 243.792969 170.300781 247.164062 170.300781 Z M 247.164062 170.300781 " fill-opacity="1" fill-rule="evenodd"/><path fill="#ffffff" d="M 138.636719 197.433594 C 138.867188 197.433594 139.09375 197.527344 139.25 197.691406 C 139.421875 197.855469 139.507812 198.074219 139.507812 198.308594 C 139.507812 201.398438 139.507812 211.828125 139.507812 214.917969 C 139.507812 215.152344 139.421875 215.371094 139.25 215.535156 C 139.09375 215.699219 138.867188 215.792969 138.636719 215.792969 L 119.71875 215.792969 C 119.488281 215.792969 119.261719 215.699219 119.097656 215.535156 C 118.941406 215.371094 118.84375 215.152344 118.84375 214.917969 C 118.84375 211.828125 118.84375 201.398438 118.84375 198.308594 C 118.84375 198.074219 118.941406 197.855469 119.097656 197.691406 C 119.261719 197.527344 119.488281 197.433594 119.71875 197.433594 C 123.089844 197.433594 135.265625 197.433594 138.636719 197.433594 Z M 138.636719 197.433594 " fill-opacity="1" fill-rule="evenodd"/><path fill="#ffffff" d="M 174.8125 197.433594 C 175.042969 197.433594 175.269531 197.527344 175.425781 197.691406 C 175.597656 197.855469 175.6875 198.074219 175.6875 198.308594 L 175.6875 214.917969 C 175.6875 215.152344 175.597656 215.371094 175.425781 215.535156 C 175.269531 215.699219 175.042969 215.792969 174.8125 215.792969 L 155.894531 215.792969 C 155.664062 215.792969 155.4375 215.699219 155.273438 215.535156 C 155.117188 215.371094 155.023438 215.152344 155.023438 214.917969 C 155.023438 211.828125 155.023438 201.398438 155.023438 198.308594 C 155.023438 198.074219 155.117188 197.855469 155.273438 197.691406 C 155.4375 197.527344 155.664062 197.433594 155.894531 197.433594 C 159.265625 197.433594 171.441406 197.433594 174.8125 197.433594 Z M 174.8125 197.433594 " fill-opacity="1" fill-rule="evenodd"/><path fill="#ffffff" d="M 210.988281 197.433594 C 211.222656 197.433594 211.445312 197.527344 211.601562 197.691406 C 211.773438 197.855469 211.863281 198.074219 211.863281 198.308594 C 211.863281 201.398438 211.863281 211.828125 211.863281 214.917969 C 211.863281 215.152344 211.773438 215.371094 211.601562 215.535156 C 211.445312 215.699219 211.222656 215.792969 210.988281 215.792969 C 207.617188 215.792969 195.441406 215.792969 192.070312 215.792969 C 191.839844 215.792969 191.613281 215.699219 191.449219 215.535156 C 191.292969 215.371094 191.199219 215.152344 191.199219 214.917969 C 191.199219 211.828125 191.199219 201.398438 191.199219 198.308594 C 191.199219 198.074219 191.292969 197.855469 191.449219 197.691406 C 191.613281 197.527344 191.839844 197.433594 192.070312 197.433594 C 195.441406 197.433594 207.617188 197.433594 210.988281 197.433594 Z M 210.988281 197.433594 " fill-opacity="1" fill-rule="evenodd"/><path fill="#ffffff" d="M 138.636719 224.570312 C 138.867188 224.570312 139.09375 224.664062 139.25 224.828125 C 139.421875 224.988281 139.507812 225.210938 139.507812 225.441406 C 139.507812 228.535156 139.507812 238.964844 139.507812 242.054688 C 139.507812 242.285156 139.421875 242.507812 139.25 242.671875 C 139.09375 242.835938 138.867188 242.925781 138.636719 242.925781 L 119.71875 242.925781 C 119.488281 242.925781 119.261719 242.835938 119.097656 242.671875 C 118.941406 242.507812 118.84375 242.285156 118.84375 242.054688 C 118.84375 238.964844 118.84375 228.535156 118.84375 225.441406 C 118.84375 225.210938 118.941406 224.988281 119.097656 224.828125 C 119.261719 224.664062 119.488281 224.570312 119.71875 224.570312 C 123.089844 224.570312 135.265625 224.570312 138.636719 224.570312 Z M 138.636719 224.570312 " fill-opacity="1" fill-rule="evenodd"/><path fill="#ffffff" d="M 174.8125 224.570312 C 175.042969 224.570312 175.269531 224.664062 175.425781 224.828125 C 175.597656 224.988281 175.6875 225.210938 175.6875 225.441406 L 175.6875 242.054688 C 175.6875 242.285156 175.597656 242.507812 175.425781 242.671875 C 175.269531 242.835938 175.042969 242.925781 174.8125 242.925781 L 155.894531 242.925781 C 155.664062 242.925781 155.4375 242.835938 155.273438 242.671875 C 155.117188 242.507812 155.023438 242.285156 155.023438 242.054688 C 155.023438 238.964844 155.023438 228.535156 155.023438 225.441406 C 155.023438 225.210938 155.117188 224.988281 155.273438 224.828125 C 155.4375 224.664062 155.664062 224.570312 155.894531 224.570312 C 159.265625 224.570312 171.441406 224.570312 174.8125 224.570312 Z M 174.8125 224.570312 " fill-opacity="1" fill-rule="evenodd"/><path fill="#ffffff" d="M 210.988281 224.570312 C 211.222656 224.570312 211.445312 224.664062 211.601562 224.828125 C 211.773438 224.988281 211.863281 225.210938 211.863281 225.441406 C 211.863281 228.535156 211.863281 238.964844 211.863281 242.054688 C 211.863281 242.285156 211.773438 242.507812 211.601562 242.671875 C 211.445312 242.835938 211.222656 242.925781 210.988281 242.925781 C 207.617188 242.925781 195.441406 242.925781 192.070312 242.925781 C 191.839844 242.925781 191.613281 242.835938 191.449219 242.671875 C 191.292969 242.507812 191.199219 242.285156 191.199219 242.054688 C 191.199219 238.964844 191.199219 228.535156 191.199219 225.441406 C 191.199219 225.210938 191.292969 224.988281 191.449219 224.828125 C 191.613281 224.664062 191.839844 224.570312 192.070312 224.570312 C 195.441406 224.570312 207.617188 224.570312 210.988281 224.570312 Z M 210.988281 224.570312 " fill-opacity="1" fill-rule="evenodd"/></svg>