<svg xmlns="http://www.w3.org/2000/svg" xmlns:xlink="http://www.w3.org/1999/xlink" width="500" zoomAndPan="magnify" viewBox="0 0 375 374.999991" height="500" preserveAspectRatio="xMidYMid meet" version="1.0"><defs><clipPath id="b9e0c0f50e"><path d="M 20.496094 12.734375 L 363.246094 12.734375 L 363.246094 356.234375 L 20.496094 356.234375 Z M 20.496094 12.734375 " clip-rule="nonzero"/></clipPath></defs><g clip-path="url(#b9e0c0f50e)"><path fill="#000000" d="M 324.199219 64.039062 L 312.632812 64.039062 L 312.632812 51.910156 C 312.632812 30.378906 295.117188 12.871094 273.585938 12.871094 L 59.539062 12.871094 C 38.003906 12.871094 20.488281 30.378906 20.488281 51.910156 L 20.488281 265.890625 C 20.488281 287.402344 38.003906 304.925781 59.539062 304.925781 L 71.105469 304.925781 L 71.105469 317.058594 C 71.105469 338.582031 88.621094 356.09375 110.152344 356.09375 L 324.199219 356.09375 C 345.734375 356.09375 363.25 338.582031 363.25 317.058594 L 363.25 103.074219 C 363.25 81.550781 345.734375 64.039062 324.199219 64.039062 Z M 59.539062 283.238281 C 49.992188 283.238281 42.183594 275.429688 42.183594 265.890625 L 42.183594 51.910156 C 42.183594 42.367188 49.992188 34.558594 59.539062 34.558594 L 273.585938 34.558594 C 283.128906 34.558594 290.941406 42.367188 290.941406 51.910156 L 290.941406 64.039062 L 110.152344 64.039062 C 88.621094 64.039062 71.105469 81.550781 71.105469 103.074219 L 71.105469 283.238281 Z M 341.554688 217.191406 L 292.066406 154.675781 C 286.078125 147.117188 274.59375 147.117188 268.605469 154.675781 L 196.316406 245.980469 L 166.09375 213.144531 C 159.847656 206.351562 149.136719 206.351562 142.886719 213.144531 L 92.800781 267.578125 L 92.800781 103.074219 C 92.800781 93.535156 100.609375 85.726562 110.152344 85.726562 L 324.199219 85.726562 C 333.746094 85.726562 341.554688 93.535156 341.554688 103.074219 Z M 341.554688 217.191406 " fill-opacity="1" fill-rule="nonzero"/></g><path fill="#000000" d="M 170.898438 139.226562 C 170.898438 140.03125 170.855469 140.835938 170.777344 141.636719 C 170.699219 142.4375 170.582031 143.230469 170.425781 144.019531 C 170.265625 144.8125 170.070312 145.589844 169.839844 146.359375 C 169.605469 147.132812 169.332031 147.886719 169.023438 148.632812 C 168.71875 149.375 168.375 150.101562 167.992188 150.8125 C 167.613281 151.523438 167.199219 152.210938 166.753906 152.882812 C 166.304688 153.550781 165.828125 154.195312 165.316406 154.820312 C 164.804688 155.441406 164.265625 156.035156 163.695312 156.605469 C 163.125 157.175781 162.53125 157.714844 161.90625 158.226562 C 161.285156 158.734375 160.640625 159.214844 159.96875 159.664062 C 159.300781 160.109375 158.609375 160.523438 157.902344 160.902344 C 157.191406 161.28125 156.464844 161.625 155.71875 161.933594 C 154.976562 162.242188 154.21875 162.511719 153.449219 162.746094 C 152.675781 162.980469 151.898438 163.175781 151.105469 163.332031 C 150.316406 163.488281 149.523438 163.609375 148.71875 163.6875 C 147.917969 163.765625 147.117188 163.804688 146.3125 163.804688 C 145.503906 163.804688 144.703125 163.765625 143.902344 163.6875 C 143.097656 163.609375 142.304688 163.488281 141.515625 163.332031 C 140.722656 163.175781 139.945312 162.980469 139.171875 162.746094 C 138.402344 162.511719 137.644531 162.242188 136.902344 161.933594 C 136.15625 161.625 135.429688 161.28125 134.71875 160.902344 C 134.011719 160.523438 133.320312 160.109375 132.652344 159.664062 C 131.980469 159.214844 131.335938 158.734375 130.714844 158.226562 C 130.089844 157.714844 129.496094 157.175781 128.925781 156.605469 C 128.355469 156.035156 127.816406 155.441406 127.304688 154.820312 C 126.792969 154.195312 126.316406 153.550781 125.867188 152.882812 C 125.421875 152.210938 125.007812 151.523438 124.628906 150.8125 C 124.246094 150.101562 123.902344 149.375 123.597656 148.632812 C 123.289062 147.886719 123.015625 147.132812 122.78125 146.359375 C 122.550781 145.589844 122.355469 144.8125 122.195312 144.019531 C 122.039062 143.230469 121.921875 142.4375 121.84375 141.636719 C 121.765625 140.835938 121.722656 140.03125 121.722656 139.226562 C 121.722656 138.421875 121.765625 137.617188 121.84375 136.816406 C 121.921875 136.015625 122.039062 135.21875 122.195312 134.429688 C 122.355469 133.640625 122.550781 132.863281 122.78125 132.089844 C 123.015625 131.320312 123.289062 130.5625 123.597656 129.820312 C 123.902344 129.078125 124.246094 128.351562 124.628906 127.640625 C 125.007812 126.929688 125.421875 126.238281 125.867188 125.570312 C 126.316406 124.902344 126.792969 124.253906 127.304688 123.632812 C 127.816406 123.011719 128.355469 122.414062 128.925781 121.847656 C 129.496094 121.277344 130.089844 120.738281 130.714844 120.226562 C 131.335938 119.714844 131.980469 119.238281 132.652344 118.789062 C 133.320312 118.34375 134.011719 117.929688 134.722656 117.550781 C 135.429688 117.171875 136.15625 116.828125 136.902344 116.519531 C 137.644531 116.210938 138.402344 115.9375 139.171875 115.707031 C 139.945312 115.472656 140.722656 115.277344 141.515625 115.121094 C 142.304688 114.960938 143.097656 114.84375 143.902344 114.765625 C 144.703125 114.6875 145.503906 114.648438 146.3125 114.648438 C 147.117188 114.648438 147.917969 114.6875 148.71875 114.765625 C 149.523438 114.84375 150.316406 114.960938 151.105469 115.121094 C 151.898438 115.277344 152.675781 115.472656 153.449219 115.707031 C 154.21875 115.9375 154.976562 116.210938 155.71875 116.519531 C 156.464844 116.828125 157.191406 117.171875 157.902344 117.550781 C 158.609375 117.929688 159.300781 118.34375 159.96875 118.789062 C 160.640625 119.238281 161.285156 119.714844 161.90625 120.226562 C 162.53125 120.738281 163.125 121.277344 163.695312 121.847656 C 164.265625 122.414062 164.804688 123.011719 165.316406 123.632812 C 165.828125 124.253906 166.304688 124.902344 166.753906 125.570312 C 167.199219 126.238281 167.613281 126.929688 167.992188 127.640625 C 168.375 128.351562 168.71875 129.078125 169.023438 129.820312 C 169.332031 130.5625 169.605469 131.320312 169.839844 132.089844 C 170.070312 132.863281 170.265625 133.640625 170.425781 134.429688 C 170.582031 135.21875 170.699219 136.015625 170.777344 136.816406 C 170.855469 137.617188 170.898438 138.421875 170.898438 139.226562 Z M 170.898438 139.226562 " fill-opacity="1" fill-rule="nonzero"/></svg>