<svg xmlns="http://www.w3.org/2000/svg" xmlns:xlink="http://www.w3.org/1999/xlink" width="500" height="500" preserveAspectRatio="xMidYMid meet" version="1.0" viewBox="0 0 375 375" zoomAndPan="magnify"><defs><clipPath id="6d2636c127"><path d="M 13.828125 65 L 129 65 L 129 265 L 13.828125 265 Z M 13.828125 65" clip-rule="nonzero"/></clipPath></defs><path fill="#000" fill-opacity="1" fill-rule="evenodd" d="M 218.808594 187.246094 C 209.761719 212.804688 190.214844 278.285156 186.132812 286.792969 C 163.984375 275.074219 131.574219 278.058594 116.492188 292.917969 C 101.15625 308.035156 100.875 331.347656 118.5 344.503906 C 133.332031 355.574219 156.746094 358.382812 172.855469 348.054688 C 196.582031 332.835938 198.652344 309.1875 207.105469 284.445312 C 211.296875 272.179688 215.46875 259.828125 218.949219 247.566406 C 226.578125 220.210938 229.105469 222.441406 244.503906 223.4375 L 309.414062 228.070312 C 332.714844 231.28125 332.222656 227.515625 325.769531 247.777344 C 319.027344 268.964844 308.582031 301.644531 306.148438 307.636719 C 294.609375 300.472656 268.890625 292.222656 240.6875 309.0625 C 208.804688 328.097656 222.144531 375 265.617188 375 C 282.386719 375 301.5 365.292969 308.722656 351.03125 L 326.003906 301.230469 C 337.789062 265.53125 343.980469 247.96875 354.324219 211.539062 C 361.046875 187.863281 358.8125 190.289062 312.121094 181.890625 C 286.226562 177.230469 260.167969 179.402344 234.242188 178.617188 C 224.054688 178.308594 221.972656 178.308594 218.808594 187.246094 Z M 218.808594 187.246094"/><g clip-path="url(#6d2636c127)"><path fill="#000" fill-opacity="1" fill-rule="evenodd" d="M 13.871094 70.503906 C 22.332031 89.089844 43.820312 118.796875 58.675781 140.625 C 64.65625 149.414062 81.160156 174.652344 82.980469 178.613281 C 61.703125 183.714844 45 199.335938 40.308594 218.152344 C 36.457031 233.609375 37.980469 251.652344 52.148438 260.335938 C 75.835938 274.855469 106.3125 252.742188 112.421875 227.339844 C 115.589844 214.160156 114.613281 210.925781 111.726562 198.875 C 110.332031 193.046875 89.140625 161.101562 85.109375 155.132812 C 79.59375 146.957031 60.378906 117.886719 58.023438 110.730469 C 70.75 110.648438 81.054688 108.242188 93.976562 112.910156 C 105.335938 117.011719 113.085938 125.742188 115.582031 141.296875 C 116.6875 148.195312 114.011719 157.046875 122.910156 154.914062 C 129.953125 153.226562 132.324219 123.992188 120.558594 101.601562 C 114.164062 89.441406 95.96875 77.859375 82.71875 74.734375 C 66.121094 73.339844 48.980469 73.566406 33.066406 68.570312 C 23.386719 65.53125 18.453125 62.011719 13.871094 70.503906 Z M 13.871094 70.503906"/></g><path fill="#000" fill-opacity="1" fill-rule="evenodd" d="M 192.089844 143.957031 C 211.898438 143.957031 224.472656 130.171875 226.84375 111.949219 L 233.953125 51.160156 L 247.828125 61.042969 C 255.894531 68.363281 257.542969 79.578125 253.011719 89.464844 C 251.660156 92.417969 245.957031 98.449219 248.121094 101.949219 C 249.867188 104.773438 257.003906 99.171875 260.84375 95.035156 C 270.675781 84.453125 274.148438 70.09375 269.726562 54.984375 C 264.5 37.113281 247.375 30.351562 239.59375 18.355469 C 227.695312 0.00390625 227.210938 9.476562 225.933594 25.03125 C 225.238281 31.636719 219.710938 95.878906 217.878906 96.746094 C 204.421875 93.339844 188.246094 90.726562 177.0625 101.765625 C 149.90625 128.570312 175.800781 143.957031 192.089844 143.957031 Z M 192.089844 143.957031"/></svg>